#VRML V2.0 utf8
# 3D model generated by kicad-lcsc-manager
# Based on easyeda2kicad.py v1.0.1

Shape{
    appearance Appearance {
        material  Material {
            diffuseColor 1.0 1.0 1.0
            specularColor 0.5019607843137255 0.5019607843137255 0.5019607843137255
            ambientIntensity 1.0
            transparency 0.0
            shininess 0.5
        }
    }
    geometry IndexedFaceSet {
        ccw TRUE
        solid FALSE
        coord DEF co Coordinate {
            point [
                0.0532 -0.7854 0.1021, 0.0532 -0.7854 0.0703, 0.1303 -0.7854 0.0703, 0.0532 -0.7854 0.2291, 0.0532 -0.7854 0.2056, 0.1303 -0.7854 0.2056, 0.1609 -0.7854 0.3098, 0.1669 -0.7854 0.3105, 0.1351 -0.7854 0.3105, 0.1815 -0.7854 0.2296, 0.1763 -0.7854 0.2291, 0.2028 -0.7854 0.2291, 0.2178 -0.7854 0.3006, 0.2178 -0.7854 0.275, 0.2394 -0.7854 0.275, 0.2214 -0.7854 0.1021, 0.2206 -0.7854 0.1021, 0.2394 -0.7854 0.1021, 0.2044 -0.7854 0.1025, 0.2028 -0.7854 0.103, 0.2028 -0.7854 0.1021, 0.3181 -0.7854 0.1388, 0.3181 -0.7854 0.1119, 0.3331 -0.7854 0.1119, -0.0162 -0.7854 0.2474, -0.0008 -0.7854 0.2343, 0.0532 -0.7854 0.3105, -0.0794 -0.7854 0.3105, -0.0667 -0.7854 0.3017, -0.0472 -0.7854 0.279, -0.0359 -0.7854 0.2567, -0.0331 -0.7854 0.2558, -0.1703 -0.7854 0.3283, -0.1441 -0.7854 0.3313, 0.0532 -0.7854 0.6299, -0.1176 -0.7854 0.3282, -0.0893 -0.7854 0.3173, -0.1966 -0.7854 0.3187, -1.3525 -0.7854 0.6299, -0.2101 -0.7854 0.3105, -1.3525 -0.7854 0.3105, -0.2124 -0.7854 0.3091, -0.273 -0.7854 0.2824, -0.2506 -0.7854 0.2852, -0.2258 -0.7854 0.2976, -0.244 -0.7854 0.2848, -0.2375 -0.7854 0.2841, -0.316 -0.7854 0.2579, -0.3122 -0.7854 0.2615, -0.2941 -0.7854 0.2742, -1.3525 -0.7854 0.2291, -1.3525 -0.7854 0.2056, -0.3414 -0.7854 0.2056, -0.3388 -0.7854 0.2198, -0.3347 -0.7854 0.2291, -0.3297 -0.7854 0.2403, -0.2805 -0.7854 0.1057, -0.3011 -0.7854 0.1158, -1.3525 -0.7854 0.1021, -0.3189 -0.7854 0.1309, -0.3319 -0.7854 0.1495, -0.34 -0.7854 0.1707, -0.3428 -0.7854 0.193, -0.3426 -0.7854 0.1984, -0.2733 -0.7854 0.1036, -0.2726 -0.7854 0.1021, -0.2676 -0.7854 0.0914, -0.2592 -0.7854 0.0809, -0.1957 -0.7854 0.0703, -0.2055 -0.7854 0.0666, 0.0532 -0.7854 0.0079, -0.2193 -0.7854 0.0649, -0.2214 -0.7854 0.0649, -1.3525 -0.7854 0.0079, -0.2349 -0.7854 0.067, -1.3525 -0.7854 0.0703, -0.2428 -0.7854 0.0703, -0.248 -0.7854 0.0725, -0.1659 -0.7854 0.1021, -0.166 -0.7854 0.1018, -0.1727 -0.7854 0.0891, -0.1814 -0.7854 0.0793, -0.1928 -0.7854 0.0715, 0.0178 -0.7854 0.2007, 0.0204 -0.7854 0.1822, -0.0932 -0.7854 0.1356, -0.0893 -0.7854 0.1372, -0.0826 -0.7854 0.1696, -0.0007 -0.7854 0.1281, -0.0161 -0.7854 0.115, -0.1766 -0.7854 0.16, -0.1003 -0.7854 0.1998, -0.1865 -0.7854 0.169, -0.1986 -0.7854 0.1755, -0.0967 -0.7854 0.1332, 0.0106 -0.7854 0.1438, -0.0152 -0.7854 0.1866, -0.0178 -0.7854 0.1975, -0.0222 -0.7854 0.2056, -0.3055 -0.7854 0.2056, 0.0178 -0.7854 0.1618, -0.0849 -0.7854 0.1377, -0.0844 -0.7854 0.1377, -0.0826 -0.7854 0.1373, -0.3022 -0.7854 0.1714, -0.2954 -0.7854 0.1599, -0.2665 -0.7854 0.154, -0.2852 -0.7854 0.1494, -0.2728 -0.7854 0.1417, -0.2454 -0.7854 0.1728, -0.2571 -0.7854 0.1647, -0.3069 -0.7854 0.1941, -0.3062 -0.7854 0.1853, -0.2329 -0.7854 0.1776, -0.2193 -0.7854 0.1793, -0.2123 -0.7854 0.1789, -0.1026 -0.7854 0.1201, -0.1024 -0.7854 0.1223, -0.1623 -0.7854 0.1275, -0.1013 -0.7854 0.1267, -0.0991 -0.7854 0.1306, -0.0264 -0.7854 0.1515, -0.0202 -0.7854 0.1604, -0.0163 -0.7854 0.1705, -0.0149 -0.7854 0.1816, -0.0893 -0.7854 0.103, -0.093 -0.7854 0.1045, -0.0967 -0.7854 0.1071, -0.098 -0.7854 0.1084, -0.1005 -0.7854 0.112, -0.102 -0.7854 0.1159, -0.1626 -0.7854 0.1159, -0.1623 -0.7854 0.1218, -0.0335 -0.7854 0.1065, -0.0525 -0.7854 0.1025, -0.086 -0.7854 0.1025, -0.0815 -0.7854 0.1372, -0.0559 -0.7854 0.1372, -0.0457 -0.7854 0.1391, -0.0356 -0.7854 0.1438, -0.0272 -0.7854 0.1507, -0.0638 -0.7854 0.226, -0.3004 -0.7854 0.2206, -0.3052 -0.7854 0.2079, -0.0593 -0.7854 0.226, -0.0231 -0.7854 0.2073, -0.0297 -0.7854 0.2147, -0.0385 -0.7854 0.2208, -0.0485 -0.7854 0.2247, -0.0761 -0.7854 0.2602, -0.089 -0.7854 0.2755, -0.2198 -0.7854 0.2425, -0.0904 -0.7854 0.2768, -0.1064 -0.7854 0.2879, -0.2111 -0.7854 0.2605, -0.2944 -0.7854 0.2291, -0.2239 -0.7854 0.2447, -0.0645 -0.7854 0.2291, -0.0673 -0.7854 0.2418, -0.2366 -0.7854 0.2494, -0.25 -0.7854 0.251, -0.2559 -0.7854 0.2507, -0.1984 -0.7854 0.2758, -0.1242 -0.7854 0.2948, -0.1831 -0.7854 0.2869, -0.1435 -0.7854 0.2971, -0.1645 -0.7854 0.2944, -0.27 -0.7854 0.2474, -0.2827 -0.7854 0.2407, -0.2925 -0.7854 0.2319, 0.003 -0.7854 0.2291, 0.0109 -0.7854 0.2181, 0.0159 -0.7854 0.2056, 0.3508 -0.7854 0.1119, 0.3508 -0.7854 0.1027, 0.3584 -0.7854 0.1021, 0.3331 -0.7854 0.1021, 0.3584 -0.7854 0.2056, 0.349 -0.7854 0.1828, 0.349 -0.7854 0.1736, 0.3467 -0.7854 0.148, 0.3467 -0.7854 0.1388, 0.3331 -0.7854 0.1388, 0.3331 -0.7854 0.1736, 0.3331 -0.7854 0.148, 0.3181 -0.7854 0.1736, 0.3181 -0.7854 0.148, 0.3331 -0.7854 0.1027, 0.3077 -0.7854 0.1027, 0.3023 -0.7854 0.1021, 0.3077 -0.7854 0.1828, 0.1428 -0.7854 0.1301, 0.1442 -0.7854 0.1462, 0.1408 -0.7854 0.1273, 0.1394 -0.7854 0.1237, 0.1982 -0.7854 0.1151, 0.1846 -0.7854 0.1395, 0.1982 -0.7854 0.1047, 0.1846 -0.7854 0.1027, 0.1695 -0.7854 0.1057, 0.166 -0.7854 0.1034, 0.1746 -0.7854 0.1027, 0.1623 -0.7854 0.1021, 0.1351 -0.7854 0.1021, 0.1404 -0.7854 0.1101, 0.1391 -0.7854 0.1135, 0.1538 -0.7854 0.16, 0.1351 -0.7854 0.2056, 0.1463 -0.7854 0.1571, 0.1442 -0.7854 0.1559, 0.1351 -0.7854 0.0703, 0.151 -0.7854 0.1021, 0.1508 -0.7854 0.1021, 0.1469 -0.7854 0.1035, 0.1459 -0.7854 0.1328, 0.1503 -0.7854 0.1349, 0.1502 -0.7854 0.1501, 0.1576 -0.7854 0.1367, 0.1664 -0.7854 0.1527, 0.163 -0.7854 0.1531, 0.1565 -0.7854 0.1523, 0.1436 -0.7854 0.1059, 0.1425 -0.7854 0.107, 0.1746 -0.7854 0.1116, 0.1743 -0.7854 0.1116, 0.1727 -0.7854 0.1091, 0.2021 -0.7854 0.1127, 0.2028 -0.7854 0.1124, 0.2028 -0.7854 0.1337, 0.1387 -0.7854 0.118, 0.1387 -0.7854 0.1195, 0.1839 -0.7854 0.147, 0.1987 -0.7854 0.1406, 0.1986 -0.7854 0.1481, 0.1998 -0.7854 0.1513, 0.1803 -0.7854 0.1549, 0.1639 -0.7854 0.1612, 0.1701 -0.7854 0.1607, 0.1743 -0.7854 0.1594, 0.1746 -0.7854 0.1391, 0.1742 -0.7854 0.1435, 0.1732 -0.7854 0.1471, 0.172 -0.7854 0.1492, 0.1823 -0.7854 0.1516, 0.1983 -0.7854 0.1445, 0.2027 -0.7854 0.1337, 0.2011 -0.7854 0.1354, 0.1998 -0.7854 0.1375, 0.1705 -0.7854 0.1508, 0.1687 -0.7854 0.1519, 0.2079 -0.7854 0.1021, 0.2028 -0.7854 0.0703, 0.2137 -0.7854 0.1014, 0.2341 -0.7854 0.1587, 0.2341 -0.7854 0.1489, 0.2363 -0.7854 0.1143, 0.2351 -0.7854 0.1111, 0.2332 -0.7854 0.1084, 0.2017 -0.7854 0.154, 0.2028 -0.7854 0.155, 0.2028 -0.7854 0.2056, 0.2047 -0.7854 0.1567, 0.2078 -0.7854 0.1586, 0.2134 -0.7854 0.1605, 0.2205 -0.7854 0.1612, 0.2394 -0.7854 0.2056, 0.2275 -0.7854 0.1606, 0.2335 -0.7854 0.1277, 0.2353 -0.7854 0.125, 0.2364 -0.7854 0.122, 0.2368 -0.7854 0.1183, 0.2304 -0.7854 0.1059, 0.227 -0.7854 0.104, 0.2195 -0.7854 0.1531, 0.2166 -0.7854 0.1529, 0.2086 -0.7854 0.1454, 0.2139 -0.7854 0.1521, 0.2116 -0.7854 0.151, 0.2087 -0.7854 0.1441, 0.2091 -0.7854 0.1425, 0.2098 -0.7854 0.1411, 0.2108 -0.7854 0.1401, 0.2143 -0.7854 0.1379, 0.2261 -0.7854 0.1523, 0.2205 -0.7854 0.1352, 0.2317 -0.7854 0.1503, 0.2244 -0.7854 0.1336, 0.2311 -0.7854 0.1299, 0.2101 -0.7854 0.1496, 0.2093 -0.7854 0.1483, 0.2088 -0.7854 0.147, 0.2084 -0.7854 0.1103, 0.2134 -0.7854 0.1279, 0.2075 -0.7854 0.1306, 0.2147 -0.7854 0.1096, 0.2151 -0.7854 0.1096, 0.22 -0.7854 0.1251, 0.2203 -0.7854 0.1101, 0.2265 -0.7854 0.1173, 0.2264 -0.7854 0.1186, 0.2229 -0.7854 0.1111, 0.2238 -0.7854 0.1116, 0.2249 -0.7854 0.1127, 0.2258 -0.7854 0.114, 0.2263 -0.7854 0.1154, 0.226 -0.7854 0.1201, 0.2252 -0.7854 0.1214, 0.2239 -0.7854 0.1227, 0.3877 -0.7854 0.2517, 0.3584 -0.7854 0.2517, 0.3959 -0.7854 0.2298, 0.3584 -0.7854 0.2291, 0.4073 -0.7854 0.2298, 2.3622 -0.7854 0.2291, 2.3622 -0.7854 0.3105, 0.3768 -0.7854 0.3098, 0.3584 -0.7854 0.3105, 0.3544 -0.7854 0.2517, 0.3467 -0.7854 0.2298, 0.3331 -0.7854 0.2291, 0.3353 -0.7854 0.2298, 0.3331 -0.7854 0.3105, 0.3584 -0.7854 0.2903, 0.3658 -0.7854 0.3098, 0.3023 -0.7854 0.3105, 0.2581 -0.7854 0.3105, 0.2885 -0.7854 0.3098, 0.2657 -0.7854 0.3098, 0.2657 -0.7854 0.2298, 0.2581 -0.7854 0.2291, 0.2877 -0.7854 0.2298, 0.3023 -0.7854 0.2291, 0.3012 -0.7854 0.2314, 0.3287 -0.7854 0.2563, 0.3247 -0.7854 0.248, 0.3216 -0.7854 0.2964, 0.3266 -0.7854 0.2895, 0.3188 -0.7854 0.241, 0.3104 -0.7854 0.235, 0.3023 -0.7854 0.2318, 0.3188 -0.7854 0.2992, 0.3007 -0.7854 0.3085, 0.3023 -0.7854 0.3079, 0.3104 -0.7854 0.3049, 0.3295 -0.7854 0.2818, 0.3308 -0.7854 0.2708, 0.3306 -0.7854 0.2657, 0.2394 -0.7854 0.3105, 0.2487 -0.7854 0.3098, 0.2394 -0.7854 0.3098, 0.2487 -0.7854 0.3006, 0.2505 -0.7854 0.2389, 0.2505 -0.7854 0.2298, 0.2394 -0.7854 0.2291, 0.2178 -0.7854 0.2389, 0.2394 -0.7854 0.2389, 0.2178 -0.7854 0.2658, 0.2394 -0.7854 0.2658, 0.2464 -0.7854 0.2658, 0.2464 -0.7854 0.275, 0.2394 -0.7854 0.3006, 0.2075 -0.7854 0.3098, 0.2028 -0.7854 0.3105, 0.2075 -0.7854 0.2298, 0.1914 -0.7854 0.3079, 0.1829 -0.7854 0.3103, 0.1811 -0.7854 0.3105, 0.2394 -0.7854 0.2298, 0.1914 -0.7854 0.2971, 0.1901 -0.7854 0.2324, 0.1726 -0.7854 0.3018, 0.1689 -0.7854 0.3017, 0.1637 -0.7854 0.2384, 0.1708 -0.7854 0.2376, 0.1745 -0.7854 0.2377, 0.1905 -0.7854 0.2976, 0.1835 -0.7854 0.2394, 0.1914 -0.7854 0.243, 0.1914 -0.7854 0.2331, 0.1824 -0.7854 0.3007, 0.162 -0.7854 0.3002, 0.1558 -0.7854 0.2972, 0.1507 -0.7854 0.293, 0.1524 -0.7854 0.2439, 0.1425 -0.7854 0.2654, 0.1502 -0.7854 0.246, 0.1438 -0.7854 0.2575, 0.1465 -0.7854 0.2511, 0.1502 -0.7854 0.2923, 0.1463 -0.7854 0.2868, 0.1436 -0.7854 0.2799, 0.1423 -0.7854 0.2689, 0.1578 -0.7854 0.2404, 0.1725 -0.7854 0.3112, 0.1351 -0.7854 0.6299, 0.2028 -0.7854 0.6299, 0.1372 -0.7854 0.2918, 0.1431 -0.7854 0.2994, 0.145 -0.7854 0.3013, 0.1525 -0.7854 0.3065, 0.1351 -0.7854 0.2501, 0.1331 -0.7854 0.2553, 0.1303 -0.7854 0.2291, 0.1315 -0.7854 0.2683, 0.1316 -0.7854 0.2725, 0.1303 -0.7854 0.3105, 0.1334 -0.7854 0.2829, 0.1351 -0.7854 0.2867, 0.1472 -0.7854 0.2347, 0.1418 -0.7854 0.2393, 0.1351 -0.7854 0.2291, 0.1411 -0.7854 0.2401, 0.1363 -0.7854 0.2469, 0.1693 -0.7854 0.2284, 0.163 -0.7854 0.2288, 0.1618 -0.7854 0.2291, 0.1546 -0.7854 0.2308, 0.1776 -0.7854 0.1575, 0.162 -0.7854 0.102, 0.1568 -0.7854 0.1014, 0.2865 -0.7854 0.1599, 0.2969 -0.7854 0.1599, 0.3023 -0.7854 0.2056, 0.3331 -0.7854 0.1828, 0.3331 -0.7854 0.2056, 0.2741 -0.7854 0.1021, 0.2682 -0.7854 0.1169, 0.2694 -0.7854 0.1122, 0.2697 -0.7854 0.1122, 0.2581 -0.7854 0.2056, 0.2581 -0.7854 0.146, 0.2709 -0.7854 0.1169, 0.2701 -0.7854 0.1142, 0.2581 -0.7854 0.1021, 0.2581 -0.7854 0.1191, 0.242 -0.7854 0.1599, 0.2532 -0.7854 0.1599, 0.2645 -0.7854 0.1029, 0.2641 -0.7854 0.1021, 0.2601 -0.7854 0.0925, 0.2394 -0.7854 0.0703, 0.2441 -0.7854 0.0766, 0.2441 -0.7854 0.0855, 0.2562 -0.7854 0.0867, 0.2581 -0.7854 0.0888, 0.2581 -0.7854 0.0888, 0.2462 -0.7854 0.0849, 0.2498 -0.7854 0.0844, 0.2581 -0.7854 0.0776, 0.2546 -0.7854 0.0763, 0.2581 -0.7854 0.0703, 0.2506 -0.7854 0.0758, 0.2484 -0.7854 0.0759, 0.2523 -0.7854 0.0847, 0.2545 -0.7854 0.0855, 0.271 -0.7854 0.0941, 0.2664 -0.7854 0.0853, 0.3023 -0.7854 0.0703, 0.2628 -0.7854 0.0808, 0.2621 -0.7854 0.0802, 0.2586 -0.7854 0.0778, -2.3622 -0.7854 0.0079, -2.3622 -0.7854 0.0703, -2.3622 -0.7854 0.1021, -2.3622 -0.7854 0.2056, -2.3622 -0.7854 0.2291, -2.3622 -0.7854 0.3105, -2.3622 -0.7854 0.6299, 0.1282 -0.7854 0.2389, 0.1282 -0.7854 0.2298, 0.086 -0.7854 0.2298, 0.0963 -0.7854 0.3098, 0.0963 -0.7854 0.2389, 0.086 -0.7854 0.3098, 0.1303 -0.7854 0.1021, 0.1291 -0.7854 0.1027, 0.086 -0.7854 0.1027, 0.1291 -0.7854 0.1119, 0.1272 -0.7854 0.1736, 0.0963 -0.7854 0.1388, 0.0963 -0.7854 0.1119, 0.125 -0.7854 0.1388, 0.125 -0.7854 0.148, 0.0963 -0.7854 0.148, 0.0963 -0.7854 0.1736, 0.086 -0.7854 0.1828, 0.1272 -0.7854 0.1828, 0.1303 -0.7854 0.6299, 0.2394 -0.7854 0.6299, 0.2581 -0.7854 0.6299, 0.3023 -0.7854 0.6299, 0.3331 -0.7854 0.6299, 0.3584 -0.7854 0.6299, 2.3622 -0.7854 0.6299, 0.3659 -0.7854 0.1027, 0.3659 -0.7854 0.1828, 0.3879 -0.7854 0.1027, 0.4962 -0.7854 0.1027, 0.5076 -0.7854 0.1027, 2.3622 -0.7854 0.1021, 0.4771 -0.7854 0.1828, 2.3622 -0.7854 0.2056, 0.488 -0.7854 0.1246, 0.4547 -0.7854 0.1246, 0.447 -0.7854 0.1027, 0.4356 -0.7854 0.1027, 0.4661 -0.7854 0.1828, 0.425 -0.7854 0.121, 0.419 -0.7854 0.1139, 0.4106 -0.7854 0.1079, 0.4015 -0.7854 0.1044, 0.419 -0.7854 0.1722, 0.4219 -0.7854 0.1694, 0.4268 -0.7854 0.1624, 0.4298 -0.7854 0.1548, 0.3888 -0.7854 0.1828, 0.401 -0.7854 0.1814, 0.4107 -0.7854 0.1779, 0.4311 -0.7854 0.1438, 0.4309 -0.7854 0.1387, 0.4289 -0.7854 0.1293, 0.3331 -0.7854 0.0703, 0.3584 -0.7854 0.0703, 2.3622 -0.7854 0.0703, 0.1303 -0.7854 0.0079, 0.1351 -0.7854 0.0079, 0.2028 -0.7854 0.0079, 0.2394 -0.7854 0.0079, 0.2581 -0.7854 0.0079, 0.3023 -0.7854 0.0079, 0.3331 -0.7854 0.0079, 0.3584 -0.7854 0.0079, 2.3622 -0.7854 0.0079, 2.3622 0.7892 0.0069, 2.3622 0.7894 0.0079, 2.3622 0.7865 0.0041, 2.3622 0.7894 0.6299, 2.3622 0.7892 0.6309, 2.3622 0.7865 0.6337, 2.3622 0.7854 0.6339, 2.3622 -0.7815 0.6339, 2.3622 0.7888 0.6319, 2.3622 0.7882 0.6327, 2.3622 0.7874 0.6333, 2.3622 -0.7835 0.6333, 2.3622 -0.7843 0.6327, 2.3622 -0.7825 0.6337, 2.3622 -0.7849 0.6319, 2.3622 -0.7853 0.6309, 2.3622 -0.7815 0.0039, 2.3622 0.7854 0.0039, 2.3622 -0.7853 0.0069, 2.3622 -0.7849 0.0059, 2.3622 -0.7825 0.0041, 2.3622 -0.7843 0.0051, 2.3622 -0.7835 0.0045, 2.3622 0.7874 0.0045, 2.3622 0.7882 0.0051, 2.3622 0.7888 0.0059, -2.3622 0.7894 0.0079, -2.3622 0.7894 0.6299, -2.3622 0.7892 0.0069, -2.3622 0.7865 0.0041, -2.3622 0.7854 0.0039, -2.3622 -0.7815 0.0039, -2.3622 0.7888 0.0059, -2.3622 0.7882 0.0051, -2.3622 0.7874 0.0045, -2.3622 -0.7835 0.0045, -2.3622 -0.7843 0.0051, -2.3622 -0.7825 0.0041, -2.3622 -0.7849 0.0059, -2.3622 -0.7853 0.0069, -2.3622 -0.7815 0.6339, -2.3622 0.7854 0.6339, -2.3622 0.7865 0.6337, -2.3622 0.7892 0.6309, -2.3622 -0.7853 0.6309, -2.3622 -0.7849 0.6319, -2.3622 -0.7825 0.6337, -2.3622 -0.7843 0.6327, -2.3622 -0.7835 0.6333, -2.3622 0.7874 0.6333, -2.3622 0.7882 0.6327, -2.3622 0.7888 0.6319
            ]
        }
        coordIndex [
            0,1,2,-1,3,4,5,-1,6,7,8,-1,9,10,11,-1,12,13,14,-1,15,16,17,-1,18,19,20,-1,21,22,23,-1,24,25,26,-1,26,25,3,-1,27,28,26,-1,26,28,29,-1,29,30,26,-1,26,30,31,-1,26,31,24,-1,32,33,34,-1,34,33,35,-1,34,35,36,-1,32,34,37,-1,37,34,38,-1,37,38,39,-1,39,38,40,-1,39,40,41,-1,40,42,41,-1,41,42,43,-1,41,43,44,-1,44,43,45,-1,44,45,46,-1,47,48,40,-1,40,48,49,-1,40,49,42,-1,50,51,52,-1,52,53,50,-1,50,53,54,-1,50,54,40,-1,40,54,55,-1,40,55,47,-1,56,57,58,-1,58,57,59,-1,58,59,60,-1,60,61,58,-1,58,61,62,-1,58,62,51,-1,51,62,63,-1,51,63,52,-1,64,56,65,-1,65,56,58,-1,65,58,66,-1,66,58,67,-1,68,69,70,-1,69,71,70,-1,70,71,72,-1,70,72,73,-1,73,72,74,-1,73,74,75,-1,75,74,76,-1,75,76,58,-1,58,76,77,-1,58,77,67,-1,0,78,1,-1,1,78,79,-1,1,79,80,-1,80,81,1,-1,1,81,82,-1,1,82,68,-1,83,84,4,-1,85,86,87,-1,88,89,0,-1,90,91,92,-1,92,91,93,-1,85,87,94,-1,88,0,95,-1,96,97,91,-1,91,97,98,-1,91,98,99,-1,4,84,0,-1,0,84,100,-1,0,100,95,-1,86,101,87,-1,87,101,102,-1,87,102,103,-1,104,105,106,-1,106,105,107,-1,106,107,108,-1,109,99,110,-1,110,99,111,-1,110,111,106,-1,106,111,112,-1,106,112,104,-1,109,113,99,-1,99,113,114,-1,99,114,91,-1,91,114,115,-1,91,115,93,-1,116,117,118,-1,118,117,119,-1,118,119,87,-1,87,119,120,-1,87,120,94,-1,121,122,87,-1,87,122,123,-1,87,123,91,-1,91,123,124,-1,91,124,96,-1,125,126,78,-1,78,126,127,-1,78,127,128,-1,128,129,78,-1,78,129,130,-1,78,130,131,-1,131,130,116,-1,131,116,132,-1,132,116,118,-1,89,133,0,-1,0,133,134,-1,0,134,78,-1,78,134,135,-1,78,135,125,-1,103,136,87,-1,87,136,137,-1,87,137,138,-1,138,139,87,-1,87,139,140,-1,87,140,121,-1,141,142,143,-1,143,99,141,-1,141,99,98,-1,141,98,144,-1,144,98,145,-1,145,146,144,-1,144,146,147,-1,144,147,148,-1,149,150,151,-1,150,152,151,-1,151,152,153,-1,151,153,154,-1,155,151,156,-1,142,141,155,-1,155,141,157,-1,155,157,151,-1,151,157,158,-1,151,158,149,-1,156,159,155,-1,155,159,160,-1,155,160,161,-1,154,153,162,-1,162,153,163,-1,162,163,164,-1,164,163,165,-1,164,165,166,-1,167,168,161,-1,161,168,169,-1,161,169,155,-1,25,170,3,-1,3,170,171,-1,3,171,4,-1,4,171,172,-1,4,172,83,-1,173,174,175,-1,175,174,176,-1,177,178,179,-1,180,181,173,-1,173,181,23,-1,23,181,182,-1,23,182,21,-1,179,183,184,-1,184,183,185,-1,184,185,186,-1,174,187,176,-1,176,187,188,-1,176,188,189,-1,189,188,190,-1,191,192,193,-1,193,192,194,-1,195,196,197,-1,197,196,198,-1,197,198,19,-1,199,200,201,-1,201,200,202,-1,201,202,198,-1,203,204,205,-1,206,207,208,-1,208,207,209,-1,210,211,203,-1,203,211,212,-1,203,212,213,-1,191,214,192,-1,192,214,215,-1,192,215,216,-1,216,215,217,-1,218,219,217,-1,217,219,220,-1,217,220,216,-1,213,221,203,-1,203,221,222,-1,203,222,204,-1,223,224,201,-1,201,224,225,-1,201,225,199,-1,226,227,228,-1,205,229,203,-1,203,229,230,-1,203,230,207,-1,207,230,194,-1,207,194,209,-1,209,194,192,-1,231,196,232,-1,233,234,235,-1,206,236,207,-1,207,236,237,-1,207,237,238,-1,239,240,217,-1,217,240,241,-1,217,241,242,-1,226,228,195,-1,235,243,233,-1,233,243,231,-1,233,231,244,-1,244,231,232,-1,228,245,195,-1,195,245,246,-1,195,246,196,-1,196,246,247,-1,196,247,232,-1,242,248,217,-1,217,248,249,-1,217,249,218,-1,18,20,250,-1,250,20,251,-1,250,251,252,-1,253,254,17,-1,255,256,17,-1,17,256,257,-1,258,259,260,-1,260,259,261,-1,260,261,262,-1,262,263,260,-1,260,263,264,-1,260,264,265,-1,265,264,266,-1,265,266,253,-1,267,268,254,-1,254,268,269,-1,254,269,17,-1,17,269,270,-1,17,270,255,-1,257,271,17,-1,17,271,272,-1,17,272,15,-1,273,274,275,-1,275,274,276,-1,275,276,277,-1,275,278,273,-1,273,278,279,-1,273,279,280,-1,280,281,273,-1,273,281,282,-1,273,282,283,-1,283,282,284,-1,283,284,285,-1,285,284,286,-1,285,286,254,-1,254,286,287,-1,254,287,267,-1,288,289,277,-1,277,289,290,-1,277,290,275,-1,291,292,227,-1,227,292,293,-1,227,293,228,-1,291,294,292,-1,292,294,295,-1,292,295,296,-1,296,295,297,-1,296,298,299,-1,297,300,296,-1,296,300,301,-1,296,301,302,-1,302,303,296,-1,296,303,304,-1,296,304,298,-1,299,305,296,-1,296,305,306,-1,296,306,307,-1,308,309,310,-1,310,309,311,-1,310,311,312,-1,313,314,315,-1,315,314,316,-1,309,317,311,-1,311,317,318,-1,311,318,319,-1,319,318,320,-1,319,320,321,-1,321,320,322,-1,321,322,316,-1,316,322,323,-1,316,323,315,-1,324,325,326,-1,326,325,327,-1,327,325,328,-1,328,325,329,-1,328,329,330,-1,330,329,331,-1,330,331,332,-1,333,334,319,-1,335,336,321,-1,334,337,319,-1,319,337,338,-1,319,338,331,-1,331,338,339,-1,331,339,332,-1,335,321,340,-1,326,341,324,-1,324,341,342,-1,324,342,321,-1,321,342,343,-1,321,343,340,-1,336,344,321,-1,321,344,345,-1,321,345,319,-1,319,345,346,-1,319,346,333,-1,325,347,348,-1,348,347,349,-1,348,350,325,-1,325,350,351,-1,325,351,329,-1,329,351,352,-1,329,352,353,-1,354,355,356,-1,356,355,357,-1,357,355,358,-1,358,355,351,-1,358,351,359,-1,359,351,350,-1,359,350,14,-1,14,350,360,-1,14,360,12,-1,349,347,361,-1,361,347,362,-1,361,362,363,-1,364,362,365,-1,365,362,366,-1,352,367,353,-1,353,367,363,-1,353,363,11,-1,11,363,362,-1,11,362,368,-1,368,362,364,-1,9,11,369,-1,370,371,372,-1,373,374,375,-1,375,374,376,-1,375,376,368,-1,368,376,377,-1,368,377,11,-1,11,377,378,-1,11,378,369,-1,373,375,372,-1,372,375,379,-1,372,379,370,-1,371,380,372,-1,372,380,381,-1,372,381,382,-1,383,384,385,-1,385,384,386,-1,385,386,387,-1,382,388,372,-1,372,388,389,-1,372,389,390,-1,390,391,372,-1,372,391,384,-1,372,384,392,-1,392,384,383,-1,7,393,394,-1,394,393,366,-1,394,366,395,-1,8,396,397,-1,397,398,8,-1,8,398,399,-1,8,399,6,-1,400,401,402,-1,403,404,405,-1,405,404,406,-1,405,406,8,-1,8,406,407,-1,8,407,396,-1,408,409,410,-1,410,409,411,-1,410,411,412,-1,413,414,207,-1,207,414,415,-1,207,415,410,-1,410,415,416,-1,410,416,408,-1,10,413,260,-1,260,413,207,-1,260,207,258,-1,258,207,238,-1,258,238,234,-1,234,238,417,-1,234,417,235,-1,19,198,20,-1,20,198,202,-1,20,202,251,-1,251,202,418,-1,251,418,210,-1,210,418,419,-1,210,419,211,-1,420,421,422,-1,178,177,423,-1,423,177,424,-1,423,424,190,-1,190,424,422,-1,190,422,189,-1,189,422,421,-1,189,421,425,-1,426,427,428,-1,422,429,420,-1,420,429,430,-1,420,430,431,-1,431,430,426,-1,431,426,432,-1,432,426,428,-1,433,434,17,-1,17,434,435,-1,253,17,265,-1,265,17,435,-1,265,435,429,-1,429,435,436,-1,429,436,430,-1,437,434,438,-1,438,434,433,-1,438,433,439,-1,440,441,442,-1,443,444,433,-1,433,444,445,-1,433,445,439,-1,252,251,16,-1,16,251,440,-1,16,440,17,-1,17,440,442,-1,17,442,433,-1,433,442,446,-1,433,446,447,-1,448,449,450,-1,450,449,451,-1,450,451,440,-1,440,451,452,-1,440,452,441,-1,447,453,433,-1,433,453,454,-1,433,454,443,-1,455,456,457,-1,455,457,425,-1,456,458,457,-1,457,458,459,-1,457,459,450,-1,450,459,460,-1,450,460,448,-1,461,73,462,-1,462,73,75,-1,462,75,463,-1,463,75,58,-1,463,58,464,-1,464,58,51,-1,464,51,465,-1,465,51,50,-1,465,50,466,-1,466,50,40,-1,466,40,467,-1,467,40,38,-1,468,469,402,-1,402,469,470,-1,471,405,26,-1,401,403,402,-1,402,403,405,-1,402,405,468,-1,468,405,471,-1,468,471,472,-1,5,402,3,-1,3,402,470,-1,3,470,26,-1,26,470,473,-1,26,473,471,-1,474,475,476,-1,475,474,477,-1,477,474,5,-1,477,5,478,-1,479,480,481,-1,481,480,477,-1,481,477,482,-1,482,477,478,-1,482,478,483,-1,483,478,484,-1,2,474,0,-1,0,474,476,-1,0,476,4,-1,4,476,485,-1,4,485,5,-1,5,485,486,-1,5,486,478,-1,7,394,8,-1,8,394,487,-1,8,487,405,-1,405,487,34,-1,405,34,26,-1,26,34,36,-1,26,36,27,-1,2,210,474,-1,474,210,203,-1,474,203,5,-1,5,203,207,-1,5,207,402,-1,402,207,410,-1,402,410,400,-1,400,410,412,-1,10,260,11,-1,11,260,265,-1,11,265,353,-1,353,265,429,-1,353,429,329,-1,329,429,422,-1,329,422,331,-1,331,422,424,-1,331,424,319,-1,319,424,177,-1,319,177,311,-1,366,362,395,-1,395,362,347,-1,395,347,488,-1,488,347,325,-1,488,325,489,-1,489,325,324,-1,489,324,490,-1,490,324,321,-1,490,321,491,-1,491,321,316,-1,491,316,492,-1,492,316,314,-1,492,314,493,-1,494,495,177,-1,184,180,179,-1,179,180,173,-1,179,173,177,-1,177,173,175,-1,177,175,494,-1,494,175,496,-1,497,175,498,-1,498,175,499,-1,498,499,500,-1,500,499,501,-1,502,503,497,-1,497,503,504,-1,497,504,175,-1,175,504,505,-1,175,505,496,-1,315,312,313,-1,313,312,311,-1,313,311,501,-1,501,311,177,-1,501,177,500,-1,500,177,506,-1,505,507,508,-1,508,509,505,-1,505,509,510,-1,505,510,496,-1,511,512,506,-1,506,512,513,-1,506,513,514,-1,495,515,177,-1,177,515,516,-1,177,516,506,-1,506,516,517,-1,506,517,511,-1,514,518,506,-1,506,518,519,-1,506,519,505,-1,505,519,520,-1,505,520,507,-1,425,457,189,-1,189,457,521,-1,189,521,176,-1,176,521,522,-1,176,522,175,-1,175,522,523,-1,175,523,499,-1,68,70,1,-1,1,70,524,-1,1,524,2,-1,2,524,525,-1,2,525,210,-1,210,525,526,-1,210,526,251,-1,251,526,527,-1,251,527,440,-1,440,527,528,-1,440,528,450,-1,450,528,529,-1,450,529,457,-1,457,529,530,-1,457,530,521,-1,521,530,531,-1,521,531,522,-1,522,531,532,-1,522,532,523,-1,533,534,535,-1,534,536,493,-1,493,314,534,-1,534,314,313,-1,534,313,501,-1,537,538,536,-1,536,538,539,-1,536,539,493,-1,493,539,540,-1,501,499,534,-1,534,499,523,-1,534,523,532,-1,537,541,538,-1,538,541,542,-1,538,542,543,-1,544,545,546,-1,546,545,547,-1,546,547,540,-1,540,547,548,-1,540,548,493,-1,532,549,534,-1,534,549,550,-1,534,550,535,-1,532,551,549,-1,549,551,552,-1,549,552,553,-1,553,552,554,-1,553,554,555,-1,556,557,535,-1,535,557,558,-1,535,558,533,-1,559,560,534,-1,534,560,536,-1,461,462,559,-1,559,462,463,-1,559,463,464,-1,561,562,559,-1,559,562,563,-1,559,563,461,-1,461,563,564,-1,561,565,562,-1,562,565,566,-1,562,566,567,-1,568,569,570,-1,570,569,571,-1,570,571,564,-1,564,571,572,-1,564,572,461,-1,573,574,560,-1,560,574,575,-1,560,575,576,-1,464,465,559,-1,559,465,466,-1,559,466,560,-1,560,466,467,-1,560,467,573,-1,467,577,573,-1,573,577,578,-1,573,578,579,-1,579,578,580,-1,579,580,581,-1,582,583,575,-1,575,583,584,-1,575,584,576,-1,574,573,539,-1,539,573,540,-1,550,549,563,-1,563,549,564,-1,
        ]
    }
}
Shape{
    appearance Appearance {
        material  Material {
            diffuseColor 0.0 0.0 0.0
            specularColor 0.0 0.0 0.0
            ambientIntensity 0.0
            transparency 0.0
            shininess 0.5
        }
    }
    geometry IndexedFaceSet {
        ccw TRUE
        solid FALSE
        coord DEF co Coordinate {
            point [
                0.1282 -0.7894 0.2389, 0.1282 -0.7894 0.2298, 0.1282 -0.7854 0.2389, 0.1282 -0.7854 0.2298, 0.0963 -0.7894 0.2389, 0.0963 -0.7854 0.2389, 0.0963 -0.7894 0.3098, 0.0963 -0.7854 0.3098, 0.086 -0.7894 0.3098, 0.086 -0.7854 0.3098, 0.086 -0.7894 0.2298, 0.086 -0.7854 0.2298, 0.1693 -0.7894 0.2284, 0.1693 -0.7854 0.2284, 0.1815 -0.7894 0.2296, 0.1763 -0.7854 0.2291, 0.1815 -0.7854 0.2296, 0.1901 -0.7854 0.2324, 0.1901 -0.7894 0.2324, 0.1914 -0.7854 0.2331, 0.1914 -0.7894 0.2331, 0.1914 -0.7894 0.243, 0.1914 -0.7854 0.243, 0.1835 -0.7854 0.2394, 0.1835 -0.7894 0.2394, 0.1745 -0.7854 0.2377, 0.1745 -0.7894 0.2377, 0.1708 -0.7854 0.2376, 0.1708 -0.7894 0.2376, 0.1637 -0.7854 0.2384, 0.1637 -0.7894 0.2384, 0.1578 -0.7854 0.2404, 0.1578 -0.7894 0.2404, 0.1524 -0.7854 0.2439, 0.1524 -0.7894 0.2439, 0.1502 -0.7854 0.246, 0.1502 -0.7894 0.246, 0.1465 -0.7854 0.2511, 0.1465 -0.7894 0.2511, 0.1438 -0.7854 0.2575, 0.1438 -0.7894 0.2575, 0.1425 -0.7854 0.2654, 0.1425 -0.7894 0.2654, 0.1423 -0.7854 0.2689, 0.1423 -0.7894 0.2689, 0.1436 -0.7854 0.2799, 0.1436 -0.7894 0.2799, 0.1463 -0.7854 0.2868, 0.1463 -0.7894 0.2868, 0.1502 -0.7854 0.2923, 0.1502 -0.7894 0.2923, 0.1507 -0.7854 0.293, 0.1507 -0.7894 0.293, 0.1558 -0.7854 0.2972, 0.1558 -0.7894 0.2972, 0.162 -0.7854 0.3002, 0.162 -0.7894 0.3002, 0.1689 -0.7854 0.3017, 0.1689 -0.7894 0.3017, 0.1726 -0.7854 0.3018, 0.1726 -0.7894 0.3018, 0.1824 -0.7854 0.3007, 0.1824 -0.7894 0.3007, 0.1905 -0.7854 0.2976, 0.1905 -0.7894 0.2976, 0.1914 -0.7854 0.2971, 0.1914 -0.7894 0.2971, 0.1914 -0.7894 0.3079, 0.1914 -0.7854 0.3079, 0.1725 -0.7854 0.3112, 0.1725 -0.7894 0.3112, 0.1811 -0.7854 0.3105, 0.1829 -0.7894 0.3103, 0.1829 -0.7854 0.3103, 0.1669 -0.7854 0.3105, 0.1609 -0.7894 0.3098, 0.1609 -0.7854 0.3098, 0.1525 -0.7854 0.3065, 0.1525 -0.7894 0.3065, 0.145 -0.7854 0.3013, 0.145 -0.7894 0.3013, 0.1431 -0.7854 0.2994, 0.1431 -0.7894 0.2994, 0.1372 -0.7854 0.2918, 0.1351 -0.7854 0.2867, 0.1334 -0.7894 0.2829, 0.1372 -0.7894 0.2918, 0.1334 -0.7854 0.2829, 0.1316 -0.7854 0.2725, 0.1316 -0.7894 0.2725, 0.1315 -0.7854 0.2683, 0.1315 -0.7894 0.2683, 0.1331 -0.7854 0.2553, 0.1351 -0.7854 0.2501, 0.1363 -0.7894 0.2469, 0.1331 -0.7894 0.2553, 0.1363 -0.7854 0.2469, 0.1411 -0.7854 0.2401, 0.1411 -0.7894 0.2401, 0.1418 -0.7854 0.2393, 0.1418 -0.7894 0.2393, 0.163 -0.7894 0.2288, 0.1472 -0.7854 0.2347, 0.1472 -0.7894 0.2347, 0.1546 -0.7854 0.2308, 0.1546 -0.7894 0.2308, 0.1618 -0.7854 0.2291, 0.163 -0.7854 0.2288, 0.2505 -0.7894 0.2389, 0.2505 -0.7894 0.2298, 0.2505 -0.7854 0.2389, 0.2505 -0.7854 0.2298, 0.2178 -0.7854 0.2389, 0.2178 -0.7894 0.2389, 0.2394 -0.7854 0.2389, 0.2178 -0.7894 0.2658, 0.2178 -0.7854 0.2658, 0.2464 -0.7894 0.2658, 0.2394 -0.7854 0.2658, 0.2464 -0.7854 0.2658, 0.2464 -0.7894 0.275, 0.2464 -0.7854 0.275, 0.2178 -0.7854 0.275, 0.2178 -0.7894 0.275, 0.2394 -0.7854 0.275, 0.2178 -0.7894 0.3006, 0.2178 -0.7854 0.3006, 0.2487 -0.7894 0.3006, 0.2394 -0.7854 0.3006, 0.2487 -0.7854 0.3006, 0.2487 -0.7894 0.3098, 0.2487 -0.7854 0.3098, 0.2075 -0.7854 0.3098, 0.2075 -0.7894 0.3098, 0.2394 -0.7854 0.3098, 0.2075 -0.7894 0.2298, 0.2075 -0.7854 0.2298, 0.2394 -0.7854 0.2298, 0.3188 -0.7894 0.241, 0.3105 -0.7894 0.2463, 0.3104 -0.7894 0.235, 0.3053 -0.7894 0.2428, 0.3012 -0.7894 0.2314, 0.2987 -0.7894 0.2402, 0.2877 -0.7894 0.2298, 0.2876 -0.7894 0.2389, 0.2657 -0.7894 0.2298, 0.276 -0.7894 0.2389, 0.2657 -0.7894 0.3098, 0.276 -0.7894 0.3006, 0.2885 -0.7894 0.3098, 0.2881 -0.7894 0.3006, 0.2887 -0.7894 0.3006, 0.3007 -0.7894 0.3085, 0.299 -0.7894 0.2993, 0.3104 -0.7894 0.3049, 0.3059 -0.7894 0.2967, 0.3188 -0.7894 0.2992, 0.3112 -0.7894 0.2931, 0.3216 -0.7894 0.2964, 0.3134 -0.7894 0.2909, 0.3266 -0.7894 0.2895, 0.3165 -0.7894 0.2864, 0.3295 -0.7894 0.2818, 0.3188 -0.7894 0.2805, 0.3308 -0.7894 0.2708, 0.32 -0.7894 0.2705, 0.3306 -0.7894 0.2657, 0.3197 -0.7894 0.2652, 0.3287 -0.7894 0.2563, 0.3181 -0.7894 0.2579, 0.3247 -0.7894 0.248, 0.3153 -0.7894 0.252, 0.3114 -0.7894 0.2472, 0.2877 -0.7854 0.2298, 0.2657 -0.7854 0.2298, 0.3188 -0.7854 0.241, 0.3012 -0.7854 0.2314, 0.3023 -0.7854 0.2318, 0.3104 -0.7854 0.235, 0.3247 -0.7854 0.248, 0.3287 -0.7854 0.2563, 0.3306 -0.7854 0.2657, 0.3308 -0.7854 0.2708, 0.3295 -0.7854 0.2818, 0.3266 -0.7854 0.2895, 0.3216 -0.7854 0.2964, 0.3188 -0.7854 0.2992, 0.2885 -0.7854 0.3098, 0.3104 -0.7854 0.3049, 0.3023 -0.7854 0.3079, 0.3007 -0.7854 0.3085, 0.2657 -0.7854 0.3098, 0.2881 -0.7854 0.3006, 0.276 -0.7854 0.3006, 0.276 -0.7854 0.2389, 0.2876 -0.7854 0.2389, 0.3114 -0.7854 0.2472, 0.3105 -0.7854 0.2463, 0.3053 -0.7854 0.2428, 0.2987 -0.7854 0.2402, 0.32 -0.7854 0.2705, 0.3197 -0.7854 0.2652, 0.3181 -0.7854 0.2579, 0.3153 -0.7854 0.252, 0.3112 -0.7854 0.2931, 0.3134 -0.7854 0.2909, 0.3165 -0.7854 0.2864, 0.3188 -0.7854 0.2805, 0.2887 -0.7854 0.3006, 0.299 -0.7854 0.2993, 0.3059 -0.7854 0.2967
            ]
        }
        coordIndex [
            0,1,2,-1,2,1,3,-1,4,0,5,-1,5,0,2,-1,6,4,7,-1,7,4,5,-1,8,6,9,-1,9,6,7,-1,10,8,11,-1,11,8,9,-1,1,10,3,-1,3,10,11,-1,6,8,4,-1,4,8,10,-1,4,10,0,-1,0,10,1,-1,12,13,14,-1,14,13,15,-1,15,16,14,-1,14,16,17,-1,14,17,18,-1,18,17,19,-1,18,19,20,-1,21,20,22,-1,22,20,19,-1,21,22,23,-1,21,23,24,-1,24,23,25,-1,24,25,26,-1,26,25,27,-1,26,27,28,-1,28,27,29,-1,28,29,30,-1,30,29,31,-1,30,31,32,-1,32,31,33,-1,32,33,34,-1,34,33,35,-1,34,35,36,-1,36,35,37,-1,36,37,38,-1,38,37,39,-1,38,39,40,-1,40,39,41,-1,40,41,42,-1,42,41,43,-1,42,43,44,-1,44,43,45,-1,44,45,46,-1,46,45,47,-1,46,47,48,-1,48,47,49,-1,48,49,50,-1,50,49,51,-1,50,51,52,-1,52,51,53,-1,52,53,54,-1,54,53,55,-1,54,55,56,-1,56,55,57,-1,56,57,58,-1,58,57,59,-1,58,59,60,-1,60,59,61,-1,60,61,62,-1,62,61,63,-1,62,63,64,-1,64,63,65,-1,64,65,66,-1,67,66,68,-1,68,66,65,-1,69,70,71,-1,71,70,72,-1,71,72,73,-1,73,72,67,-1,73,67,68,-1,70,69,74,-1,70,74,75,-1,74,76,75,-1,75,76,77,-1,75,77,78,-1,78,77,79,-1,78,79,80,-1,80,79,81,-1,80,81,82,-1,82,81,83,-1,84,85,83,-1,83,85,86,-1,83,86,82,-1,84,87,85,-1,85,87,88,-1,85,88,89,-1,89,88,90,-1,89,90,91,-1,91,90,92,-1,93,94,92,-1,92,94,95,-1,92,95,91,-1,93,96,94,-1,94,96,97,-1,94,97,98,-1,98,97,99,-1,98,99,100,-1,13,12,101,-1,100,99,102,-1,100,102,103,-1,103,102,104,-1,103,104,105,-1,105,104,106,-1,105,106,101,-1,101,106,107,-1,101,107,13,-1,46,48,86,-1,86,48,82,-1,91,44,89,-1,89,44,46,-1,89,46,85,-1,85,46,86,-1,48,50,82,-1,82,50,52,-1,82,52,80,-1,80,52,54,-1,80,54,78,-1,78,54,75,-1,75,54,56,-1,75,56,70,-1,20,21,18,-1,18,21,24,-1,18,24,14,-1,14,24,26,-1,14,26,12,-1,12,26,28,-1,12,28,101,-1,101,28,30,-1,101,30,105,-1,105,30,32,-1,105,32,103,-1,103,32,34,-1,103,34,100,-1,100,34,36,-1,100,36,98,-1,98,36,38,-1,98,38,94,-1,94,38,95,-1,95,38,40,-1,95,40,91,-1,91,40,42,-1,91,42,44,-1,56,58,70,-1,70,58,60,-1,70,60,72,-1,72,60,62,-1,72,62,67,-1,67,62,64,-1,67,64,66,-1,108,109,110,-1,110,109,111,-1,112,113,114,-1,114,113,108,-1,114,108,110,-1,115,113,116,-1,116,113,112,-1,115,116,117,-1,117,116,118,-1,117,118,119,-1,120,117,121,-1,121,117,119,-1,122,123,124,-1,124,123,120,-1,124,120,121,-1,125,123,126,-1,126,123,122,-1,125,126,127,-1,127,126,128,-1,127,128,129,-1,130,127,131,-1,131,127,129,-1,132,133,134,-1,134,133,130,-1,134,130,131,-1,135,133,136,-1,136,133,132,-1,135,136,109,-1,109,136,137,-1,109,137,111,-1,135,109,108,-1,108,113,135,-1,135,113,115,-1,135,115,133,-1,127,130,125,-1,125,130,133,-1,125,133,123,-1,123,133,115,-1,123,115,120,-1,120,115,117,-1,138,139,140,-1,140,139,141,-1,140,141,142,-1,142,141,143,-1,142,143,144,-1,144,143,145,-1,144,145,146,-1,146,145,147,-1,146,147,148,-1,148,147,149,-1,148,149,150,-1,149,151,150,-1,150,151,152,-1,150,152,153,-1,153,152,154,-1,153,154,155,-1,155,154,156,-1,155,156,157,-1,157,156,158,-1,157,158,159,-1,159,158,160,-1,159,160,161,-1,161,160,162,-1,161,162,163,-1,163,162,164,-1,163,164,165,-1,165,164,166,-1,165,166,167,-1,167,166,168,-1,167,168,169,-1,169,168,170,-1,169,170,171,-1,171,170,172,-1,171,172,138,-1,138,172,173,-1,138,173,139,-1,144,146,174,-1,174,146,175,-1,176,138,140,-1,144,174,177,-1,144,177,142,-1,142,177,178,-1,142,178,140,-1,140,178,179,-1,140,179,176,-1,138,176,180,-1,138,180,171,-1,171,180,181,-1,171,181,169,-1,169,181,182,-1,169,182,167,-1,167,182,183,-1,167,183,165,-1,165,183,184,-1,165,184,163,-1,163,184,185,-1,163,185,161,-1,161,185,186,-1,161,186,159,-1,159,186,187,-1,159,187,157,-1,188,150,153,-1,157,187,189,-1,157,189,155,-1,155,189,190,-1,155,190,153,-1,153,190,191,-1,153,191,188,-1,148,150,192,-1,192,150,188,-1,146,148,175,-1,175,148,192,-1,151,149,193,-1,193,149,194,-1,149,147,194,-1,194,147,195,-1,147,145,195,-1,195,145,196,-1,173,197,198,-1,173,198,139,-1,139,198,199,-1,139,199,141,-1,141,199,200,-1,141,200,143,-1,143,200,196,-1,143,196,145,-1,166,201,202,-1,166,202,168,-1,168,202,203,-1,168,203,170,-1,170,203,204,-1,170,204,172,-1,172,204,197,-1,172,197,173,-1,158,205,206,-1,158,206,160,-1,160,206,207,-1,160,207,162,-1,162,207,208,-1,162,208,164,-1,164,208,201,-1,164,201,166,-1,151,193,209,-1,151,209,152,-1,152,209,210,-1,152,210,154,-1,154,210,211,-1,154,211,156,-1,156,211,205,-1,156,205,158,-1,
        ]
    }
}
Shape{
    appearance Appearance {
        material  Material {
            diffuseColor 1.0 1.0 1.0
            specularColor 0.5019607843137255 0.5019607843137255 0.5019607843137255
            ambientIntensity 1.0
            transparency 0.0
            shininess 0.5
        }
    }
    geometry IndexedFaceSet {
        ccw TRUE
        solid FALSE
        coord DEF co Coordinate {
            point [
                0.3053 -0.7854 0.2428, 0.3105 -0.7854 0.2463, 0.2887 -0.7854 0.3006, 0.276 -0.7854 0.3006, 0.276 -0.7854 0.2389, 0.2881 -0.7854 0.3006, 0.2876 -0.7854 0.2389, 0.2987 -0.7854 0.2402, 0.3114 -0.7854 0.2472, 0.3153 -0.7854 0.252, 0.3181 -0.7854 0.2579, 0.32 -0.7854 0.2705, 0.3112 -0.7854 0.2931, 0.3059 -0.7854 0.2967, 0.3188 -0.7854 0.2805, 0.3165 -0.7854 0.2864, 0.3134 -0.7854 0.2909, 0.3197 -0.7854 0.2652, 0.299 -0.7854 0.2993
            ]
        }
        coordIndex [
            0,1,2,-1,3,4,5,-1,5,4,6,-1,5,6,2,-1,2,6,7,-1,2,7,0,-1,1,8,2,-1,2,8,9,-1,2,9,10,-1,11,12,13,-1,14,15,11,-1,11,15,16,-1,11,16,12,-1,10,17,2,-1,2,17,11,-1,2,11,18,-1,18,11,13,-1,
        ]
    }
}
Shape{
    appearance Appearance {
        material  Material {
            diffuseColor 0.0 0.0 0.0
            specularColor 0.0 0.0 0.0
            ambientIntensity 0.0
            transparency 0.0
            shininess 0.5
        }
    }
    geometry IndexedFaceSet {
        ccw TRUE
        solid FALSE
        coord DEF co Coordinate {
            point [
                0.3577 -0.7894 0.2607, 0.3544 -0.7894 0.2517, 0.3845 -0.7894 0.2607, 0.3877 -0.7894 0.2517, 0.3696 -0.7894 0.294, 0.3658 -0.7894 0.3098, 0.3353 -0.7894 0.2298, 0.3467 -0.7894 0.2298, 0.3703 -0.7894 0.2964, 0.371 -0.7894 0.2996, 0.3768 -0.7894 0.3098, 0.3712 -0.7894 0.2996, 0.3719 -0.7894 0.2962, 0.3725 -0.7894 0.294, 0.4073 -0.7894 0.2298, 0.3959 -0.7894 0.2298, 0.3768 -0.7854 0.3098, 0.4073 -0.7854 0.2298, 0.3658 -0.7854 0.3098, 0.3353 -0.7854 0.2298, 0.3584 -0.7854 0.2903, 0.3467 -0.7854 0.2298, 0.3544 -0.7854 0.2517, 0.3877 -0.7854 0.2517, 0.3584 -0.7854 0.2517, 0.3959 -0.7854 0.2298, 0.3577 -0.7854 0.2607, 0.3845 -0.7854 0.2607, 0.3725 -0.7854 0.294, 0.3712 -0.7854 0.2996, 0.3719 -0.7854 0.2962, 0.371 -0.7854 0.2996, 0.3696 -0.7854 0.294, 0.3703 -0.7854 0.2964
            ]
        }
        coordIndex [
            0,1,2,-1,2,1,3,-1,4,5,0,-1,0,5,6,-1,0,6,1,-1,1,6,7,-1,4,8,5,-1,5,8,9,-1,5,9,10,-1,10,9,11,-1,10,11,12,-1,12,13,10,-1,10,13,2,-1,10,2,14,-1,14,2,3,-1,14,3,15,-1,10,14,16,-1,16,14,17,-1,5,10,18,-1,18,10,16,-1,19,6,20,-1,20,6,5,-1,20,5,18,-1,7,6,21,-1,21,6,19,-1,1,7,22,-1,22,7,21,-1,23,3,24,-1,24,3,1,-1,24,1,22,-1,15,3,25,-1,25,3,23,-1,14,15,17,-1,17,15,25,-1,0,2,26,-1,26,2,27,-1,2,13,27,-1,27,13,28,-1,11,29,30,-1,11,30,12,-1,12,30,28,-1,12,28,13,-1,11,9,29,-1,29,9,31,-1,4,32,33,-1,4,33,8,-1,8,33,31,-1,8,31,9,-1,4,0,32,-1,32,0,26,-1,
        ]
    }
}
Shape{
    appearance Appearance {
        material  Material {
            diffuseColor 1.0 1.0 1.0
            specularColor 0.5019607843137255 0.5019607843137255 0.5019607843137255
            ambientIntensity 1.0
            transparency 0.0
            shininess 0.5
        }
    }
    geometry IndexedFaceSet {
        ccw TRUE
        solid FALSE
        coord DEF co Coordinate {
            point [
                0.3712 -0.7854 0.2996, 0.371 -0.7854 0.2996, 0.3719 -0.7854 0.2962, 0.3703 -0.7854 0.2964, 0.3725 -0.7854 0.294, 0.3696 -0.7854 0.294, 0.3845 -0.7854 0.2607, 0.3577 -0.7854 0.2607
            ]
        }
        coordIndex [
            0,1,2,-1,2,1,3,-1,2,3,4,-1,4,3,5,-1,4,5,6,-1,6,5,7,-1,
        ]
    }
}
Shape{
    appearance Appearance {
        material  Material {
            diffuseColor 0.0 0.0 0.0
            specularColor 0.0 0.0 0.0
            ambientIntensity 0.0
            transparency 0.0
            shininess 0.5
        }
    }
    geometry IndexedFaceSet {
        ccw TRUE
        solid FALSE
        coord DEF co Coordinate {
            point [
                0.1291 -0.7894 0.1119, 0.1291 -0.7894 0.1027, 0.1291 -0.7854 0.1119, 0.1291 -0.7854 0.1027, 0.0963 -0.7894 0.1119, 0.0963 -0.7854 0.1119, 0.0963 -0.7894 0.1388, 0.0963 -0.7854 0.1388, 0.125 -0.7894 0.1388, 0.125 -0.7854 0.1388, 0.125 -0.7894 0.148, 0.125 -0.7854 0.148, 0.0963 -0.7894 0.148, 0.0963 -0.7854 0.148, 0.0963 -0.7894 0.1736, 0.0963 -0.7854 0.1736, 0.1272 -0.7894 0.1736, 0.1272 -0.7854 0.1736, 0.1272 -0.7894 0.1828, 0.1272 -0.7854 0.1828, 0.086 -0.7894 0.1828, 0.086 -0.7854 0.1828, 0.086 -0.7894 0.1027, 0.086 -0.7854 0.1027, 0.1743 -0.7894 0.1116, 0.1746 -0.7894 0.1116, 0.1739 -0.7894 0.1208, 0.1746 -0.7894 0.1253, 0.1846 -0.7894 0.1395, 0.1746 -0.7894 0.1259, 0.1746 -0.7894 0.1314, 0.1746 -0.7894 0.1027, 0.1846 -0.7894 0.1027, 0.1489 -0.7894 0.1205, 0.1494 -0.7894 0.1227, 0.1408 -0.7894 0.1273, 0.1724 -0.7894 0.1172, 0.1703 -0.7894 0.1143, 0.1727 -0.7894 0.1091, 0.169 -0.7894 0.113, 0.1695 -0.7894 0.1057, 0.1662 -0.7894 0.1111, 0.166 -0.7894 0.1034, 0.1631 -0.7894 0.11, 0.162 -0.7894 0.102, 0.1594 -0.7894 0.1096, 0.1568 -0.7894 0.1014, 0.156 -0.7894 0.11, 0.1508 -0.7894 0.1021, 0.1537 -0.7894 0.1108, 0.1469 -0.7894 0.1035, 0.1517 -0.7894 0.1122, 0.1436 -0.7894 0.1059, 0.1509 -0.7894 0.113, 0.1428 -0.7894 0.1301, 0.1503 -0.7894 0.1246, 0.1459 -0.7894 0.1328, 0.1515 -0.7894 0.1261, 0.1503 -0.7894 0.1349, 0.1527 -0.7894 0.1271, 0.155 -0.7894 0.1282, 0.1576 -0.7894 0.1367, 0.1612 -0.7894 0.1296, 0.1746 -0.7894 0.1391, 0.1394 -0.7894 0.1237, 0.1387 -0.7894 0.1195, 0.1488 -0.7894 0.1189, 0.1387 -0.7894 0.118, 0.1491 -0.7894 0.1166, 0.1391 -0.7894 0.1135, 0.1497 -0.7894 0.1147, 0.1404 -0.7894 0.1101, 0.1425 -0.7894 0.107, 0.1442 -0.7894 0.1559, 0.1442 -0.7894 0.1462, 0.1463 -0.7894 0.1571, 0.1502 -0.7894 0.1501, 0.1538 -0.7894 0.16, 0.1565 -0.7894 0.1523, 0.1639 -0.7894 0.1612, 0.163 -0.7894 0.1531, 0.1701 -0.7894 0.1607, 0.1664 -0.7894 0.1527, 0.1743 -0.7894 0.1594, 0.1687 -0.7894 0.1519, 0.1776 -0.7894 0.1575, 0.1705 -0.7894 0.1508, 0.1803 -0.7894 0.1549, 0.172 -0.7894 0.1492, 0.1823 -0.7894 0.1516, 0.1732 -0.7894 0.1471, 0.1839 -0.7894 0.147, 0.1742 -0.7894 0.1435, 0.1639 -0.7854 0.1612, 0.1538 -0.7854 0.16, 0.1463 -0.7854 0.1571, 0.1442 -0.7854 0.1559, 0.1442 -0.7854 0.1462, 0.1502 -0.7854 0.1501, 0.1565 -0.7854 0.1523, 0.163 -0.7854 0.1531, 0.1664 -0.7854 0.1527, 0.1687 -0.7854 0.1519, 0.1705 -0.7854 0.1508, 0.172 -0.7854 0.1492, 0.1732 -0.7854 0.1471, 0.1742 -0.7854 0.1435, 0.1746 -0.7854 0.1391, 0.1576 -0.7854 0.1367, 0.1503 -0.7854 0.1349, 0.1459 -0.7854 0.1328, 0.1428 -0.7854 0.1301, 0.1408 -0.7854 0.1273, 0.1394 -0.7854 0.1237, 0.1387 -0.7854 0.1195, 0.1387 -0.7854 0.118, 0.1391 -0.7854 0.1135, 0.1404 -0.7854 0.1101, 0.1425 -0.7854 0.107, 0.1436 -0.7854 0.1059, 0.1568 -0.7854 0.1014, 0.151 -0.7854 0.1021, 0.1508 -0.7854 0.1021, 0.1469 -0.7854 0.1035, 0.162 -0.7854 0.102, 0.1623 -0.7854 0.1021, 0.166 -0.7854 0.1034, 0.1695 -0.7854 0.1057, 0.1727 -0.7854 0.1091, 0.1743 -0.7854 0.1116, 0.1746 -0.7854 0.1116, 0.1746 -0.7854 0.1027, 0.1846 -0.7854 0.1027, 0.1846 -0.7854 0.1395, 0.1839 -0.7854 0.147, 0.1823 -0.7854 0.1516, 0.1803 -0.7854 0.1549, 0.1776 -0.7854 0.1575, 0.1743 -0.7854 0.1594, 0.1701 -0.7854 0.1607, 0.1515 -0.7854 0.1261, 0.1527 -0.7854 0.1271, 0.155 -0.7854 0.1282, 0.1612 -0.7854 0.1296, 0.1488 -0.7854 0.1189, 0.1489 -0.7854 0.1205, 0.1494 -0.7854 0.1227, 0.1503 -0.7854 0.1246, 0.1517 -0.7854 0.1122, 0.1509 -0.7854 0.113, 0.1497 -0.7854 0.1147, 0.1491 -0.7854 0.1166, 0.1594 -0.7854 0.1096, 0.156 -0.7854 0.11, 0.1537 -0.7854 0.1108, 0.1703 -0.7854 0.1143, 0.169 -0.7854 0.113, 0.1662 -0.7854 0.1111, 0.1631 -0.7854 0.11, 0.1746 -0.7854 0.1259, 0.1746 -0.7854 0.1253, 0.1739 -0.7854 0.1208, 0.1724 -0.7854 0.1172, 0.1746 -0.7854 0.1314
            ]
        }
        coordIndex [
            0,1,2,-1,2,1,3,-1,4,0,5,-1,5,0,2,-1,6,4,7,-1,7,4,5,-1,8,6,9,-1,9,6,7,-1,10,8,11,-1,11,8,9,-1,12,10,13,-1,13,10,11,-1,14,12,15,-1,15,12,13,-1,16,14,17,-1,17,14,15,-1,18,16,19,-1,19,16,17,-1,20,18,21,-1,21,18,19,-1,22,20,23,-1,23,20,21,-1,1,22,3,-1,3,22,23,-1,22,1,0,-1,0,4,22,-1,22,4,6,-1,22,6,20,-1,16,18,14,-1,14,18,20,-1,14,20,12,-1,12,20,6,-1,12,6,10,-1,10,6,8,-1,24,25,26,-1,27,28,29,-1,29,28,30,-1,31,32,25,-1,25,32,28,-1,25,28,26,-1,26,28,27,-1,33,34,35,-1,26,36,24,-1,24,36,37,-1,24,37,38,-1,38,37,39,-1,38,39,40,-1,40,39,41,-1,40,41,42,-1,42,41,43,-1,42,43,44,-1,44,43,45,-1,44,45,46,-1,46,45,47,-1,46,47,48,-1,48,47,49,-1,48,49,50,-1,50,49,51,-1,50,51,52,-1,52,51,53,-1,35,34,54,-1,54,34,55,-1,54,55,56,-1,56,55,57,-1,56,57,58,-1,57,59,58,-1,58,59,60,-1,58,60,61,-1,61,60,62,-1,61,62,63,-1,35,64,33,-1,33,64,65,-1,33,65,66,-1,66,65,67,-1,66,67,68,-1,68,67,69,-1,68,69,70,-1,70,69,71,-1,70,71,53,-1,53,71,72,-1,53,72,52,-1,73,74,75,-1,75,74,76,-1,75,76,77,-1,77,76,78,-1,77,78,79,-1,79,78,80,-1,79,80,81,-1,81,80,82,-1,81,82,83,-1,83,82,84,-1,83,84,85,-1,85,84,86,-1,85,86,87,-1,87,86,88,-1,87,88,89,-1,89,88,90,-1,89,90,91,-1,91,90,92,-1,91,92,28,-1,28,92,63,-1,28,63,30,-1,30,63,62,-1,79,93,94,-1,79,94,77,-1,77,94,95,-1,77,95,75,-1,75,95,96,-1,75,96,73,-1,74,73,97,-1,97,73,96,-1,74,97,98,-1,74,98,76,-1,76,98,99,-1,76,99,78,-1,78,99,100,-1,78,100,80,-1,80,100,101,-1,80,101,82,-1,82,101,102,-1,82,102,84,-1,84,102,103,-1,84,103,86,-1,86,103,104,-1,86,104,88,-1,88,104,105,-1,88,105,90,-1,90,105,106,-1,90,106,92,-1,92,106,107,-1,92,107,63,-1,61,63,108,-1,108,63,107,-1,61,108,109,-1,61,109,58,-1,58,109,110,-1,58,110,56,-1,56,110,111,-1,56,111,54,-1,54,111,112,-1,54,112,35,-1,35,112,113,-1,35,113,64,-1,64,113,114,-1,64,114,65,-1,65,114,115,-1,65,115,67,-1,67,115,116,-1,67,116,69,-1,69,116,117,-1,69,117,71,-1,71,117,118,-1,71,118,72,-1,72,118,119,-1,72,119,52,-1,120,46,121,-1,121,46,48,-1,121,48,122,-1,122,48,50,-1,122,50,123,-1,123,50,52,-1,123,52,119,-1,46,120,124,-1,46,124,44,-1,44,124,125,-1,44,125,42,-1,125,126,42,-1,42,126,127,-1,42,127,40,-1,40,127,128,-1,40,128,38,-1,38,128,129,-1,38,129,24,-1,25,24,130,-1,130,24,129,-1,31,25,131,-1,131,25,130,-1,32,31,132,-1,132,31,131,-1,28,32,133,-1,133,32,132,-1,28,133,134,-1,28,134,91,-1,91,134,135,-1,91,135,89,-1,89,135,136,-1,89,136,87,-1,87,136,137,-1,87,137,85,-1,85,137,138,-1,85,138,83,-1,83,138,139,-1,83,139,81,-1,81,139,93,-1,81,93,79,-1,57,140,141,-1,57,141,59,-1,59,141,142,-1,59,142,60,-1,60,142,143,-1,60,143,62,-1,66,144,145,-1,66,145,33,-1,33,145,146,-1,33,146,34,-1,34,146,147,-1,34,147,55,-1,55,147,140,-1,55,140,57,-1,51,148,149,-1,51,149,53,-1,53,149,150,-1,53,150,70,-1,70,150,151,-1,70,151,68,-1,68,151,144,-1,68,144,66,-1,45,152,153,-1,45,153,47,-1,47,153,154,-1,47,154,49,-1,49,154,148,-1,49,148,51,-1,37,155,156,-1,37,156,39,-1,39,156,157,-1,39,157,41,-1,41,157,158,-1,41,158,43,-1,43,158,152,-1,43,152,45,-1,29,159,160,-1,29,160,27,-1,27,160,161,-1,27,161,26,-1,26,161,162,-1,26,162,36,-1,36,162,155,-1,36,155,37,-1,29,30,159,-1,159,30,163,-1,30,62,163,-1,163,62,143,-1,
        ]
    }
}
Shape{
    appearance Appearance {
        material  Material {
            diffuseColor 1.0 1.0 1.0
            specularColor 0.5019607843137255 0.5019607843137255 0.5019607843137255
            ambientIntensity 1.0
            transparency 0.0
            shininess 0.5
        }
    }
    geometry IndexedFaceSet {
        ccw TRUE
        solid FALSE
        coord DEF co Coordinate {
            point [
                0.1746 -0.7854 0.1253, 0.1746 -0.7854 0.1259, 0.1515 -0.7854 0.1261, 0.1746 -0.7854 0.1314, 0.1612 -0.7854 0.1296, 0.155 -0.7854 0.1282, 0.1527 -0.7854 0.1271, 0.1739 -0.7854 0.1208, 0.1503 -0.7854 0.1246, 0.1724 -0.7854 0.1172, 0.1509 -0.7854 0.113, 0.1517 -0.7854 0.1122, 0.169 -0.7854 0.113, 0.1497 -0.7854 0.1147, 0.1662 -0.7854 0.1111, 0.1631 -0.7854 0.11, 0.1594 -0.7854 0.1096, 0.1494 -0.7854 0.1227, 0.1489 -0.7854 0.1205, 0.1703 -0.7854 0.1143, 0.1488 -0.7854 0.1189, 0.1491 -0.7854 0.1166, 0.1537 -0.7854 0.1108, 0.156 -0.7854 0.11
            ]
        }
        coordIndex [
            0,1,2,-1,1,3,4,-1,4,5,1,-1,1,5,6,-1,1,6,2,-1,0,2,7,-1,7,2,8,-1,7,8,9,-1,10,11,12,-1,10,12,13,-1,14,12,15,-1,15,12,16,-1,8,17,9,-1,9,17,18,-1,9,18,19,-1,19,18,20,-1,19,20,12,-1,12,20,21,-1,12,21,13,-1,11,22,12,-1,12,22,23,-1,12,23,16,-1,
        ]
    }
}
Shape{
    appearance Appearance {
        material  Material {
            diffuseColor 0.0 0.0 0.0
            specularColor 0.0 0.0 0.0
            ambientIntensity 0.0
            transparency 0.0
            shininess 0.5
        }
    }
    geometry IndexedFaceSet {
        ccw TRUE
        solid FALSE
        coord DEF co Coordinate {
            point [
                0.1982 -0.7854 0.1151, 0.1982 -0.7894 0.1151, 0.2021 -0.7894 0.1127, 0.2147 -0.7894 0.1096, 0.2147 -0.7854 0.1096, 0.2084 -0.7854 0.1103, 0.2084 -0.7894 0.1103, 0.2028 -0.7854 0.1124, 0.2021 -0.7854 0.1127, 0.1982 -0.7894 0.1047, 0.1982 -0.7854 0.1047, 0.2028 -0.7854 0.103, 0.2044 -0.7894 0.1025, 0.2137 -0.7854 0.1014, 0.2137 -0.7894 0.1014, 0.2079 -0.7854 0.1021, 0.2044 -0.7854 0.1025, 0.2206 -0.7854 0.1021, 0.2214 -0.7894 0.1021, 0.2214 -0.7854 0.1021, 0.227 -0.7854 0.104, 0.227 -0.7894 0.104, 0.2304 -0.7854 0.1059, 0.2304 -0.7894 0.1059, 0.2332 -0.7854 0.1084, 0.2332 -0.7894 0.1084, 0.2351 -0.7854 0.1111, 0.2351 -0.7894 0.1111, 0.2363 -0.7854 0.1143, 0.2363 -0.7894 0.1143, 0.2368 -0.7854 0.1183, 0.2368 -0.7894 0.1183, 0.2364 -0.7854 0.122, 0.2364 -0.7894 0.122, 0.2353 -0.7854 0.125, 0.2353 -0.7894 0.125, 0.2335 -0.7854 0.1277, 0.2335 -0.7894 0.1277, 0.2311 -0.7854 0.1299, 0.2311 -0.7894 0.1299, 0.2244 -0.7854 0.1336, 0.2244 -0.7894 0.1336, 0.2205 -0.7854 0.1352, 0.2205 -0.7894 0.1352, 0.2143 -0.7854 0.1379, 0.2143 -0.7894 0.1379, 0.2108 -0.7854 0.1401, 0.2108 -0.7894 0.1401, 0.2098 -0.7854 0.1411, 0.2098 -0.7894 0.1411, 0.2091 -0.7854 0.1425, 0.2091 -0.7894 0.1425, 0.2087 -0.7854 0.1441, 0.2087 -0.7894 0.1441, 0.2086 -0.7854 0.1454, 0.2086 -0.7894 0.1454, 0.2088 -0.7854 0.147, 0.2088 -0.7894 0.147, 0.2093 -0.7854 0.1483, 0.2093 -0.7894 0.1483, 0.2101 -0.7854 0.1496, 0.2101 -0.7894 0.1496, 0.2116 -0.7854 0.151, 0.2116 -0.7894 0.151, 0.2139 -0.7854 0.1521, 0.2139 -0.7894 0.1521, 0.2166 -0.7854 0.1529, 0.2166 -0.7894 0.1529, 0.2195 -0.7854 0.1531, 0.2195 -0.7894 0.1531, 0.2261 -0.7854 0.1523, 0.2261 -0.7894 0.1523, 0.2317 -0.7854 0.1503, 0.2317 -0.7894 0.1503, 0.2341 -0.7854 0.1489, 0.2341 -0.7894 0.1489, 0.2341 -0.7894 0.1587, 0.2341 -0.7854 0.1587, 0.2275 -0.7854 0.1606, 0.2275 -0.7894 0.1606, 0.2205 -0.7854 0.1612, 0.2205 -0.7894 0.1612, 0.2134 -0.7854 0.1605, 0.2134 -0.7894 0.1605, 0.2078 -0.7854 0.1586, 0.2078 -0.7894 0.1586, 0.2047 -0.7854 0.1567, 0.2047 -0.7894 0.1567, 0.2028 -0.7854 0.155, 0.2017 -0.7894 0.154, 0.2017 -0.7854 0.154, 0.1998 -0.7854 0.1513, 0.1998 -0.7894 0.1513, 0.1986 -0.7854 0.1481, 0.1986 -0.7894 0.1481, 0.1983 -0.7854 0.1445, 0.1983 -0.7894 0.1445, 0.1987 -0.7854 0.1406, 0.1987 -0.7894 0.1406, 0.1998 -0.7854 0.1375, 0.1998 -0.7894 0.1375, 0.2011 -0.7854 0.1354, 0.2011 -0.7894 0.1354, 0.2134 -0.7854 0.1279, 0.2134 -0.7894 0.1279, 0.2075 -0.7894 0.1306, 0.2027 -0.7854 0.1337, 0.2027 -0.7894 0.1337, 0.2028 -0.7854 0.1337, 0.2075 -0.7854 0.1306, 0.22 -0.7854 0.1251, 0.22 -0.7894 0.1251, 0.2239 -0.7854 0.1227, 0.2239 -0.7894 0.1227, 0.2252 -0.7854 0.1214, 0.2252 -0.7894 0.1214, 0.226 -0.7854 0.1201, 0.226 -0.7894 0.1201, 0.2264 -0.7854 0.1186, 0.2264 -0.7894 0.1186, 0.2265 -0.7854 0.1173, 0.2265 -0.7894 0.1173, 0.2263 -0.7854 0.1154, 0.2263 -0.7894 0.1154, 0.2258 -0.7854 0.114, 0.2258 -0.7894 0.114, 0.2249 -0.7854 0.1127, 0.2249 -0.7894 0.1127, 0.2238 -0.7854 0.1116, 0.2238 -0.7894 0.1116, 0.2229 -0.7854 0.1111, 0.2229 -0.7894 0.1111, 0.2203 -0.7854 0.1101, 0.2203 -0.7894 0.1101, 0.2151 -0.7854 0.1096, 0.2151 -0.7894 0.1096, 0.2865 -0.7894 0.1599, 0.2969 -0.7894 0.1599, 0.2865 -0.7854 0.1599, 0.2969 -0.7854 0.1599, 0.2709 -0.7894 0.1169, 0.2709 -0.7854 0.1169, 0.2701 -0.7854 0.1142, 0.2701 -0.7894 0.1142, 0.2697 -0.7854 0.1122, 0.2697 -0.7894 0.1122, 0.2694 -0.7894 0.1122, 0.2694 -0.7854 0.1122, 0.2682 -0.7894 0.1169, 0.2682 -0.7854 0.1169, 0.2532 -0.7854 0.1599, 0.2532 -0.7894 0.1599, 0.2581 -0.7854 0.146, 0.242 -0.7894 0.1599, 0.242 -0.7854 0.1599, 0.2645 -0.7854 0.1029, 0.2645 -0.7894 0.1029, 0.2581 -0.7854 0.1191, 0.2601 -0.7854 0.0925, 0.2601 -0.7894 0.0925, 0.2641 -0.7854 0.1021, 0.2581 -0.7854 0.0888, 0.2581 -0.7894 0.0888, 0.2581 -0.7854 0.0888, 0.2562 -0.7854 0.0867, 0.2562 -0.7894 0.0867, 0.2545 -0.7854 0.0855, 0.2545 -0.7894 0.0855, 0.2523 -0.7854 0.0847, 0.2523 -0.7894 0.0847, 0.2498 -0.7854 0.0844, 0.2498 -0.7894 0.0844, 0.2462 -0.7854 0.0849, 0.2462 -0.7894 0.0849, 0.2441 -0.7854 0.0855, 0.2441 -0.7894 0.0855, 0.2441 -0.7894 0.0766, 0.2441 -0.7854 0.0766, 0.2484 -0.7854 0.0759, 0.2484 -0.7894 0.0759, 0.2506 -0.7854 0.0758, 0.2506 -0.7894 0.0758, 0.2546 -0.7854 0.0763, 0.2546 -0.7894 0.0763, 0.2581 -0.7854 0.0776, 0.2586 -0.7894 0.0778, 0.2586 -0.7854 0.0778, 0.2621 -0.7854 0.0802, 0.2621 -0.7894 0.0802, 0.2628 -0.7854 0.0808, 0.2628 -0.7894 0.0808, 0.2664 -0.7854 0.0853, 0.2664 -0.7894 0.0853, 0.271 -0.7854 0.0941, 0.271 -0.7894 0.0941, 0.2741 -0.7854 0.1021, 0.3508 -0.7894 0.1119, 0.3508 -0.7894 0.1027, 0.3508 -0.7854 0.1119, 0.3508 -0.7854 0.1027, 0.3181 -0.7854 0.1119, 0.3181 -0.7894 0.1119, 0.3331 -0.7854 0.1119, 0.3181 -0.7894 0.1388, 0.3181 -0.7854 0.1388, 0.3467 -0.7854 0.1388, 0.3467 -0.7894 0.1388, 0.3331 -0.7854 0.1388, 0.3467 -0.7894 0.148, 0.3467 -0.7854 0.148, 0.3181 -0.7854 0.148, 0.3181 -0.7894 0.148, 0.3331 -0.7854 0.148, 0.3181 -0.7894 0.1736, 0.3181 -0.7854 0.1736, 0.349 -0.7854 0.1736, 0.349 -0.7894 0.1736, 0.3331 -0.7854 0.1736, 0.349 -0.7894 0.1828, 0.349 -0.7854 0.1828, 0.3077 -0.7854 0.1828, 0.3077 -0.7894 0.1828, 0.3331 -0.7854 0.1828, 0.3077 -0.7894 0.1027, 0.3077 -0.7854 0.1027, 0.3331 -0.7854 0.1027, 0.419 -0.7894 0.1139, 0.4107 -0.7894 0.1193, 0.4106 -0.7894 0.1079, 0.4056 -0.7894 0.1157, 0.4015 -0.7894 0.1044, 0.3989 -0.7894 0.1132, 0.3879 -0.7894 0.1027, 0.3879 -0.7894 0.1119, 0.3659 -0.7894 0.1027, 0.3763 -0.7894 0.1119, 0.3659 -0.7894 0.1828, 0.3763 -0.7894 0.1736, 0.3888 -0.7894 0.1828, 0.3884 -0.7894 0.1736, 0.389 -0.7894 0.1736, 0.401 -0.7894 0.1814, 0.3993 -0.7894 0.1723, 0.4107 -0.7894 0.1779, 0.4061 -0.7894 0.1697, 0.419 -0.7894 0.1722, 0.4115 -0.7894 0.1661, 0.4219 -0.7894 0.1694, 0.4137 -0.7894 0.1638, 0.4268 -0.7894 0.1624, 0.4168 -0.7894 0.1593, 0.4298 -0.7894 0.1548, 0.4191 -0.7894 0.1535, 0.4311 -0.7894 0.1438, 0.4202 -0.7894 0.1435, 0.4309 -0.7894 0.1387, 0.4199 -0.7894 0.1381, 0.4289 -0.7894 0.1293, 0.4184 -0.7894 0.1309, 0.425 -0.7894 0.121, 0.4156 -0.7894 0.125, 0.4117 -0.7894 0.1202, 0.3879 -0.7854 0.1027, 0.3659 -0.7854 0.1027, 0.4015 -0.7854 0.1044, 0.4106 -0.7854 0.1079, 0.419 -0.7854 0.1139, 0.425 -0.7854 0.121, 0.4289 -0.7854 0.1293, 0.4309 -0.7854 0.1387, 0.4311 -0.7854 0.1438, 0.4298 -0.7854 0.1548, 0.4268 -0.7854 0.1624, 0.4219 -0.7854 0.1694, 0.419 -0.7854 0.1722, 0.4107 -0.7854 0.1779, 0.401 -0.7854 0.1814, 0.3888 -0.7854 0.1828, 0.3659 -0.7854 0.1828, 0.3884 -0.7854 0.1736, 0.3763 -0.7854 0.1736, 0.3763 -0.7854 0.1119, 0.3879 -0.7854 0.1119, 0.4117 -0.7854 0.1202, 0.4107 -0.7854 0.1193, 0.4056 -0.7854 0.1157, 0.3989 -0.7854 0.1132, 0.4202 -0.7854 0.1435, 0.4199 -0.7854 0.1381, 0.4184 -0.7854 0.1309, 0.4156 -0.7854 0.125, 0.4115 -0.7854 0.1661, 0.4137 -0.7854 0.1638, 0.4168 -0.7854 0.1593, 0.4191 -0.7854 0.1535, 0.389 -0.7854 0.1736, 0.3993 -0.7854 0.1723, 0.4061 -0.7854 0.1697
            ]
        }
        coordIndex [
            0,1,2,-1,3,4,5,-1,3,5,6,-1,6,5,7,-1,6,7,2,-1,2,7,8,-1,2,8,0,-1,9,1,10,-1,10,1,0,-1,10,11,9,-1,9,11,12,-1,13,14,15,-1,15,14,12,-1,15,12,16,-1,16,12,11,-1,13,17,14,-1,14,17,18,-1,17,19,18,-1,18,19,20,-1,18,20,21,-1,21,20,22,-1,21,22,23,-1,23,22,24,-1,23,24,25,-1,25,24,26,-1,25,26,27,-1,27,26,28,-1,27,28,29,-1,29,28,30,-1,29,30,31,-1,31,30,32,-1,31,32,33,-1,33,32,34,-1,33,34,35,-1,35,34,36,-1,35,36,37,-1,37,36,38,-1,37,38,39,-1,39,38,40,-1,39,40,41,-1,41,40,42,-1,41,42,43,-1,43,42,44,-1,43,44,45,-1,45,44,46,-1,45,46,47,-1,47,46,48,-1,47,48,49,-1,49,48,50,-1,49,50,51,-1,51,50,52,-1,51,52,53,-1,53,52,54,-1,53,54,55,-1,55,54,56,-1,55,56,57,-1,57,56,58,-1,57,58,59,-1,59,58,60,-1,59,60,61,-1,61,60,62,-1,61,62,63,-1,63,62,64,-1,63,64,65,-1,65,64,66,-1,65,66,67,-1,67,66,68,-1,67,68,69,-1,69,68,70,-1,69,70,71,-1,71,70,72,-1,71,72,73,-1,73,72,74,-1,73,74,75,-1,76,75,77,-1,77,75,74,-1,76,77,78,-1,76,78,79,-1,79,78,80,-1,79,80,81,-1,81,80,82,-1,81,82,83,-1,83,82,84,-1,83,84,85,-1,85,84,86,-1,85,86,87,-1,86,88,87,-1,87,88,89,-1,88,90,89,-1,89,90,91,-1,89,91,92,-1,92,91,93,-1,92,93,94,-1,94,93,95,-1,94,95,96,-1,96,95,97,-1,96,97,98,-1,98,97,99,-1,98,99,100,-1,100,99,101,-1,100,101,102,-1,103,104,105,-1,102,101,106,-1,102,106,107,-1,107,106,108,-1,107,108,105,-1,105,108,109,-1,105,109,103,-1,104,103,110,-1,104,110,111,-1,111,110,112,-1,111,112,113,-1,113,112,114,-1,113,114,115,-1,115,114,116,-1,115,116,117,-1,117,116,118,-1,117,118,119,-1,119,118,120,-1,119,120,121,-1,121,120,122,-1,121,122,123,-1,123,122,124,-1,123,124,125,-1,125,124,126,-1,125,126,127,-1,127,126,128,-1,127,128,129,-1,129,128,130,-1,129,130,131,-1,131,130,132,-1,131,132,133,-1,133,132,134,-1,133,134,135,-1,135,134,4,-1,135,4,3,-1,61,63,85,-1,85,63,83,-1,45,104,43,-1,43,104,111,-1,43,111,41,-1,14,3,12,-1,12,3,6,-1,12,6,9,-1,9,6,2,-1,9,2,1,-1,63,65,83,-1,83,65,67,-1,83,67,81,-1,81,67,69,-1,81,69,79,-1,79,69,71,-1,79,71,76,-1,76,71,73,-1,76,73,75,-1,41,111,39,-1,39,111,113,-1,39,113,37,-1,37,113,115,-1,37,115,35,-1,35,115,117,-1,35,117,33,-1,33,117,119,-1,33,119,31,-1,31,119,121,-1,31,121,29,-1,29,121,123,-1,29,123,27,-1,27,123,125,-1,27,125,25,-1,25,125,127,-1,25,127,23,-1,23,127,129,-1,23,129,21,-1,21,129,131,-1,21,131,18,-1,18,131,133,-1,18,133,14,-1,14,133,135,-1,14,135,3,-1,85,87,61,-1,61,87,89,-1,61,89,59,-1,59,89,92,-1,59,92,57,-1,57,92,94,-1,57,94,55,-1,55,94,96,-1,55,96,53,-1,53,96,98,-1,53,98,51,-1,51,98,100,-1,51,100,49,-1,49,100,102,-1,49,102,47,-1,47,102,107,-1,47,107,45,-1,45,107,105,-1,45,105,104,-1,136,137,138,-1,138,137,139,-1,140,136,141,-1,141,136,138,-1,140,141,142,-1,140,142,143,-1,143,142,144,-1,143,144,145,-1,146,145,147,-1,147,145,144,-1,148,146,149,-1,149,146,147,-1,150,151,152,-1,152,151,148,-1,152,148,149,-1,153,151,154,-1,154,151,150,-1,155,156,157,-1,157,156,153,-1,157,153,154,-1,158,159,160,-1,160,159,156,-1,160,156,155,-1,158,161,159,-1,159,161,162,-1,161,163,162,-1,162,163,164,-1,162,164,165,-1,165,164,166,-1,165,166,167,-1,167,166,168,-1,167,168,169,-1,169,168,170,-1,169,170,171,-1,171,170,172,-1,171,172,173,-1,173,172,174,-1,173,174,175,-1,176,175,177,-1,177,175,174,-1,176,177,178,-1,176,178,179,-1,179,178,180,-1,179,180,181,-1,181,180,182,-1,181,182,183,-1,183,182,184,-1,183,184,185,-1,184,186,185,-1,185,186,187,-1,185,187,188,-1,188,187,189,-1,188,189,190,-1,190,189,191,-1,190,191,192,-1,192,191,193,-1,192,193,194,-1,139,137,195,-1,195,137,194,-1,195,194,193,-1,143,145,194,-1,137,136,194,-1,194,136,140,-1,194,140,143,-1,151,153,148,-1,148,153,156,-1,148,156,146,-1,175,176,173,-1,173,176,179,-1,173,179,171,-1,171,179,181,-1,171,181,169,-1,169,181,183,-1,169,183,167,-1,167,183,185,-1,167,185,165,-1,145,146,194,-1,194,146,156,-1,194,156,192,-1,156,159,192,-1,192,159,162,-1,192,162,190,-1,190,162,165,-1,190,165,188,-1,188,165,185,-1,196,197,198,-1,198,197,199,-1,200,201,202,-1,202,201,196,-1,202,196,198,-1,203,201,204,-1,204,201,200,-1,205,206,207,-1,207,206,203,-1,207,203,204,-1,208,206,209,-1,209,206,205,-1,210,211,212,-1,212,211,208,-1,212,208,209,-1,213,211,214,-1,214,211,210,-1,215,216,217,-1,217,216,213,-1,217,213,214,-1,218,216,219,-1,219,216,215,-1,220,221,222,-1,222,221,218,-1,222,218,219,-1,223,221,224,-1,224,221,220,-1,199,197,225,-1,225,197,223,-1,225,223,224,-1,223,197,196,-1,196,201,223,-1,223,201,203,-1,223,203,221,-1,216,218,213,-1,213,218,221,-1,213,221,211,-1,211,221,203,-1,211,203,208,-1,208,203,206,-1,226,227,228,-1,228,227,229,-1,228,229,230,-1,230,229,231,-1,230,231,232,-1,232,231,233,-1,232,233,234,-1,234,233,235,-1,234,235,236,-1,236,235,237,-1,236,237,238,-1,237,239,238,-1,238,239,240,-1,238,240,241,-1,241,240,242,-1,241,242,243,-1,243,242,244,-1,243,244,245,-1,245,244,246,-1,245,246,247,-1,247,246,248,-1,247,248,249,-1,249,248,250,-1,249,250,251,-1,251,250,252,-1,251,252,253,-1,253,252,254,-1,253,254,255,-1,255,254,256,-1,255,256,257,-1,257,256,258,-1,257,258,259,-1,259,258,260,-1,259,260,226,-1,226,260,261,-1,226,261,227,-1,232,234,262,-1,262,234,263,-1,232,262,264,-1,232,264,230,-1,230,264,265,-1,230,265,228,-1,228,265,266,-1,228,266,226,-1,226,266,267,-1,226,267,259,-1,259,267,268,-1,259,268,257,-1,257,268,269,-1,257,269,255,-1,255,269,270,-1,255,270,253,-1,253,270,271,-1,253,271,251,-1,251,271,272,-1,251,272,249,-1,249,272,273,-1,249,273,247,-1,247,273,274,-1,247,274,245,-1,245,274,275,-1,245,275,243,-1,243,275,276,-1,243,276,241,-1,241,276,277,-1,241,277,238,-1,236,238,278,-1,278,238,277,-1,234,236,263,-1,263,236,278,-1,239,237,279,-1,279,237,280,-1,237,235,280,-1,280,235,281,-1,235,233,281,-1,281,233,282,-1,261,283,284,-1,261,284,227,-1,227,284,285,-1,227,285,229,-1,229,285,286,-1,229,286,231,-1,231,286,282,-1,231,282,233,-1,254,287,288,-1,254,288,256,-1,256,288,289,-1,256,289,258,-1,258,289,290,-1,258,290,260,-1,260,290,283,-1,260,283,261,-1,246,291,292,-1,246,292,248,-1,248,292,293,-1,248,293,250,-1,250,293,294,-1,250,294,252,-1,252,294,287,-1,252,287,254,-1,239,279,295,-1,239,295,240,-1,240,295,296,-1,240,296,242,-1,242,296,297,-1,242,297,244,-1,244,297,291,-1,244,291,246,-1,
        ]
    }
}
Shape{
    appearance Appearance {
        material  Material {
            diffuseColor 1.0 1.0 1.0
            specularColor 0.5019607843137255 0.5019607843137255 0.5019607843137255
            ambientIntensity 1.0
            transparency 0.0
            shininess 0.5
        }
    }
    geometry IndexedFaceSet {
        ccw TRUE
        solid FALSE
        coord DEF co Coordinate {
            point [
                0.4056 -0.7854 0.1157, 0.4107 -0.7854 0.1193, 0.389 -0.7854 0.1736, 0.3763 -0.7854 0.1736, 0.3763 -0.7854 0.1119, 0.3884 -0.7854 0.1736, 0.3879 -0.7854 0.1119, 0.3989 -0.7854 0.1132, 0.4117 -0.7854 0.1202, 0.4156 -0.7854 0.125, 0.4184 -0.7854 0.1309, 0.4202 -0.7854 0.1435, 0.4115 -0.7854 0.1661, 0.4061 -0.7854 0.1697, 0.4191 -0.7854 0.1535, 0.4168 -0.7854 0.1593, 0.4137 -0.7854 0.1638, 0.4199 -0.7854 0.1381, 0.3993 -0.7854 0.1723
            ]
        }
        coordIndex [
            0,1,2,-1,3,4,5,-1,5,4,6,-1,5,6,2,-1,2,6,7,-1,2,7,0,-1,1,8,2,-1,2,8,9,-1,2,9,10,-1,11,12,13,-1,14,15,11,-1,11,15,16,-1,11,16,12,-1,10,17,2,-1,2,17,11,-1,2,11,18,-1,18,11,13,-1,
        ]
    }
}
Shape{
    appearance Appearance {
        material  Material {
            diffuseColor 0.0 0.0 0.0
            specularColor 0.0 0.0 0.0
            ambientIntensity 0.0
            transparency 0.0
            shininess 0.5
        }
    }
    geometry IndexedFaceSet {
        ccw TRUE
        solid FALSE
        coord DEF co Coordinate {
            point [
                0.4579 -0.7894 0.1337, 0.4547 -0.7894 0.1246, 0.4848 -0.7894 0.1337, 0.488 -0.7894 0.1246, 0.4699 -0.7894 0.167, 0.4661 -0.7894 0.1828, 0.4356 -0.7894 0.1027, 0.447 -0.7894 0.1027, 0.4706 -0.7894 0.1693, 0.4712 -0.7894 0.1726, 0.4771 -0.7894 0.1828, 0.4715 -0.7894 0.1726, 0.4721 -0.7894 0.1692, 0.4727 -0.7894 0.167, 0.5076 -0.7894 0.1027, 0.4962 -0.7894 0.1027, 0.4771 -0.7854 0.1828, 0.5076 -0.7854 0.1027, 0.4661 -0.7854 0.1828, 0.4356 -0.7854 0.1027, 0.447 -0.7854 0.1027, 0.4547 -0.7854 0.1246, 0.488 -0.7854 0.1246, 0.4962 -0.7854 0.1027, 0.4579 -0.7854 0.1337, 0.4848 -0.7854 0.1337, 0.4727 -0.7854 0.167, 0.4715 -0.7854 0.1726, 0.4721 -0.7854 0.1692, 0.4712 -0.7854 0.1726, 0.4699 -0.7854 0.167, 0.4706 -0.7854 0.1693
            ]
        }
        coordIndex [
            0,1,2,-1,2,1,3,-1,4,5,0,-1,0,5,6,-1,0,6,1,-1,1,6,7,-1,4,8,5,-1,5,8,9,-1,5,9,10,-1,10,9,11,-1,10,11,12,-1,12,13,10,-1,10,13,2,-1,10,2,14,-1,14,2,3,-1,14,3,15,-1,10,14,16,-1,16,14,17,-1,5,10,18,-1,18,10,16,-1,6,5,19,-1,19,5,18,-1,7,6,20,-1,20,6,19,-1,1,7,21,-1,21,7,20,-1,3,1,22,-1,22,1,21,-1,15,3,23,-1,23,3,22,-1,14,15,17,-1,17,15,23,-1,0,2,24,-1,24,2,25,-1,2,13,25,-1,25,13,26,-1,11,27,28,-1,11,28,12,-1,12,28,26,-1,12,26,13,-1,11,9,27,-1,27,9,29,-1,4,30,31,-1,4,31,8,-1,8,31,29,-1,8,29,9,-1,4,0,30,-1,30,0,24,-1,
        ]
    }
}
Shape{
    appearance Appearance {
        material  Material {
            diffuseColor 1.0 1.0 1.0
            specularColor 0.5019607843137255 0.5019607843137255 0.5019607843137255
            ambientIntensity 1.0
            transparency 0.0
            shininess 0.5
        }
    }
    geometry IndexedFaceSet {
        ccw TRUE
        solid FALSE
        coord DEF co Coordinate {
            point [
                0.4715 -0.7854 0.1726, 0.4712 -0.7854 0.1726, 0.4721 -0.7854 0.1692, 0.4706 -0.7854 0.1693, 0.4727 -0.7854 0.167, 0.4699 -0.7854 0.167, 0.4848 -0.7854 0.1337, 0.4579 -0.7854 0.1337
            ]
        }
        coordIndex [
            0,1,2,-1,2,1,3,-1,2,3,4,-1,4,3,5,-1,4,5,6,-1,6,5,7,-1,
        ]
    }
}
Shape{
    appearance Appearance {
        material  Material {
            diffuseColor 0.0 0.0 0.0
            specularColor 0.0 0.0 0.0
            ambientIntensity 0.0
            transparency 0.0
            shininess 0.5
        }
    }
    geometry IndexedFaceSet {
        ccw TRUE
        solid FALSE
        coord DEF co Coordinate {
            point [
                -0.2827 -0.7894 0.2407, -0.27 -0.7894 0.2474, -0.273 -0.7894 0.2824, -0.1727 -0.7894 0.0891, -0.166 -0.7894 0.1018, -0.1626 -0.7894 0.1159, -0.2375 -0.7894 0.2841, -0.2198 -0.7894 0.2425, -0.2111 -0.7894 0.2605, -0.2408 -0.7894 0.114, -0.2419 -0.7894 0.1193, -0.2728 -0.7894 0.1417, -0.2733 -0.7894 0.1036, -0.2805 -0.7894 0.1057, -0.2852 -0.7894 0.1494, -0.2506 -0.7894 0.2852, -0.0826 -0.7894 0.1696, -0.1003 -0.7894 0.1998, -0.1623 -0.7894 0.1275, -0.1766 -0.7894 0.16, -0.1623 -0.7894 0.1218, -0.1928 -0.7894 0.0715, -0.1814 -0.7894 0.0793, -0.1994 -0.7894 0.1299, -0.1979 -0.7894 0.1248, -0.1977 -0.7894 0.1192, -0.1989 -0.7894 0.1137, -0.2015 -0.7894 0.1088, -0.2385 -0.7894 0.1093, -0.2592 -0.7894 0.0809, -0.2676 -0.7894 0.0914, -0.0638 -0.7894 0.226, -0.0593 -0.7894 0.226, -0.0359 -0.7894 0.2567, -0.0485 -0.7894 0.2247, -0.0331 -0.7894 0.2558, -0.0385 -0.7894 0.2208, -0.0162 -0.7894 0.2474, -0.0008 -0.7894 0.2343, -0.2258 -0.7894 0.2976, -0.1984 -0.7894 0.2758, -0.2124 -0.7894 0.3091, -0.1831 -0.7894 0.2869, -0.1966 -0.7894 0.3187, -0.2559 -0.7894 0.2507, -0.25 -0.7894 0.251, -0.244 -0.7894 0.2848, -0.2366 -0.7894 0.2494, -0.2239 -0.7894 0.2447, -0.205 -0.7894 0.1047, -0.2093 -0.7894 0.1017, -0.2055 -0.7894 0.0666, -0.2143 -0.7894 0.0997, -0.2193 -0.7894 0.0649, -0.2198 -0.7894 0.099, -0.2214 -0.7894 0.0649, -0.2208 -0.7894 0.0991, -0.2349 -0.7894 0.067, -0.2259 -0.7894 0.0999, -0.248 -0.7894 0.0725, -0.2311 -0.7894 0.1021, -0.2354 -0.7894 0.1054, -0.0007 -0.7894 0.1281, -0.0272 -0.7894 0.1507, -0.0161 -0.7894 0.115, -0.0356 -0.7894 0.1438, -0.0335 -0.7894 0.1065, -0.0457 -0.7894 0.1391, -0.0525 -0.7894 0.1025, -0.0559 -0.7894 0.1372, -0.086 -0.7894 0.1025, -0.0815 -0.7894 0.1372, -0.0893 -0.7894 0.103, -0.0297 -0.7894 0.2147, -0.0231 -0.7894 0.2073, 0.0109 -0.7894 0.2181, -0.0178 -0.7894 0.1975, 0.0178 -0.7894 0.2007, -0.0152 -0.7894 0.1866, 0.0204 -0.7894 0.1822, -0.0149 -0.7894 0.1816, 0.0178 -0.7894 0.1618, -0.0163 -0.7894 0.1705, 0.0106 -0.7894 0.1438, -0.0202 -0.7894 0.1604, -0.0264 -0.7894 0.1515, -0.0667 -0.7894 0.3017, -0.089 -0.7894 0.2755, -0.0472 -0.7894 0.279, -0.0761 -0.7894 0.2602, -0.0673 -0.7894 0.2418, -0.3052 -0.7894 0.2079, -0.3426 -0.7894 0.1984, -0.3069 -0.7894 0.1941, -0.3428 -0.7894 0.193, -0.3062 -0.7894 0.1853, -0.34 -0.7894 0.1707, -0.3022 -0.7894 0.1714, -0.3319 -0.7894 0.1495, -0.2954 -0.7894 0.1599, -0.3189 -0.7894 0.1309, -0.3011 -0.7894 0.1158, -0.2417 -0.7894 0.1249, -0.2401 -0.7894 0.1303, -0.2665 -0.7894 0.154, -0.2372 -0.7894 0.135, -0.2571 -0.7894 0.1647, -0.2348 -0.7894 0.1377, -0.2454 -0.7894 0.1728, -0.2303 -0.7894 0.1408, -0.2329 -0.7894 0.1776, -0.2253 -0.7894 0.1427, -0.2193 -0.7894 0.1793, -0.2198 -0.7894 0.1434, -0.2123 -0.7894 0.1789, -0.2159 -0.7894 0.1431, -0.1986 -0.7894 0.1755, -0.2106 -0.7894 0.1414, -0.1865 -0.7894 0.169, -0.2058 -0.7894 0.1385, -0.202 -0.7894 0.1345, -0.1703 -0.7894 0.3283, -0.1645 -0.7894 0.2944, -0.1441 -0.7894 0.3313, -0.1435 -0.7894 0.2971, -0.1176 -0.7894 0.3282, -0.1242 -0.7894 0.2948, -0.0893 -0.7894 0.3173, -0.1064 -0.7894 0.2879, -0.0904 -0.7894 0.2768, -0.2941 -0.7894 0.2742, -0.3122 -0.7894 0.2615, -0.2925 -0.7894 0.2319, -0.316 -0.7894 0.2579, -0.3004 -0.7894 0.2206, -0.3297 -0.7894 0.2403, -0.3388 -0.7894 0.2198, -0.0844 -0.7894 0.1377, -0.098 -0.7894 0.1084, -0.0967 -0.7894 0.1071, -0.0826 -0.7894 0.1373, -0.093 -0.7894 0.1045, -0.1026 -0.7894 0.1201, -0.102 -0.7894 0.1159, -0.1005 -0.7894 0.112, -0.0893 -0.7894 0.1372, -0.0932 -0.7894 0.1356, -0.1024 -0.7894 0.1223, -0.0967 -0.7894 0.1332, -0.0991 -0.7894 0.1306, -0.1013 -0.7894 0.1267, -0.0849 -0.7894 0.1377, 0.003 -0.7854 0.2291, 0.0109 -0.7854 0.2181, 0.0159 -0.7854 0.2056, 0.0178 -0.7854 0.2007, 0.0204 -0.7854 0.1822, -0.0008 -0.7854 0.2343, -0.0162 -0.7854 0.2474, -0.0331 -0.7854 0.2558, -0.0359 -0.7854 0.2567, -0.0472 -0.7854 0.279, -0.0667 -0.7854 0.3017, -0.0794 -0.7854 0.3105, -0.0893 -0.7854 0.3173, -0.1176 -0.7854 0.3282, -0.1441 -0.7854 0.3313, -0.1703 -0.7854 0.3283, -0.1966 -0.7854 0.3187, -0.2101 -0.7854 0.3105, -0.2124 -0.7854 0.3091, -0.2258 -0.7854 0.2976, -0.2375 -0.7854 0.2841, -0.244 -0.7854 0.2848, -0.2506 -0.7854 0.2852, -0.273 -0.7854 0.2824, -0.2941 -0.7854 0.2742, -0.3122 -0.7854 0.2615, -0.316 -0.7854 0.2579, -0.3297 -0.7854 0.2403, -0.3347 -0.7854 0.2291, -0.3388 -0.7854 0.2198, -0.3414 -0.7854 0.2056, -0.3426 -0.7854 0.1984, -0.3428 -0.7854 0.193, -0.34 -0.7854 0.1707, -0.3319 -0.7854 0.1495, -0.3189 -0.7854 0.1309, -0.3011 -0.7854 0.1158, -0.2805 -0.7854 0.1057, -0.2733 -0.7854 0.1036, -0.2726 -0.7854 0.1021, -0.2676 -0.7854 0.0914, -0.2592 -0.7854 0.0809, -0.248 -0.7854 0.0725, -0.2428 -0.7854 0.0703, -0.2349 -0.7854 0.067, -0.2214 -0.7854 0.0649, -0.2193 -0.7854 0.0649, -0.1623 -0.7854 0.1218, -0.2055 -0.7854 0.0666, -0.1957 -0.7854 0.0703, -0.1928 -0.7854 0.0715, -0.1814 -0.7854 0.0793, -0.1727 -0.7854 0.0891, -0.166 -0.7854 0.1018, -0.1659 -0.7854 0.1021, -0.1626 -0.7854 0.1159, -0.1623 -0.7854 0.1275, -0.0826 -0.7854 0.1696, -0.1003 -0.7854 0.1998, -0.1766 -0.7854 0.16, -0.1865 -0.7854 0.169, -0.1986 -0.7854 0.1755, -0.2123 -0.7854 0.1789, -0.2193 -0.7854 0.1793, -0.2329 -0.7854 0.1776, -0.2454 -0.7854 0.1728, -0.2571 -0.7854 0.1647, -0.2665 -0.7854 0.154, -0.2728 -0.7854 0.1417, -0.2852 -0.7854 0.1494, -0.2954 -0.7854 0.1599, -0.3022 -0.7854 0.1714, -0.3062 -0.7854 0.1853, -0.3069 -0.7854 0.1941, -0.3055 -0.7854 0.2056, -0.3052 -0.7854 0.2079, -0.3004 -0.7854 0.2206, -0.2944 -0.7854 0.2291, -0.2925 -0.7854 0.2319, -0.2827 -0.7854 0.2407, -0.27 -0.7854 0.2474, -0.2559 -0.7854 0.2507, -0.25 -0.7854 0.251, -0.2366 -0.7854 0.2494, -0.2239 -0.7854 0.2447, -0.2198 -0.7854 0.2425, -0.2111 -0.7854 0.2605, -0.1984 -0.7854 0.2758, -0.1831 -0.7854 0.2869, -0.1645 -0.7854 0.2944, -0.1435 -0.7854 0.2971, -0.1242 -0.7854 0.2948, -0.1064 -0.7854 0.2879, -0.0904 -0.7854 0.2768, -0.089 -0.7854 0.2755, -0.0761 -0.7854 0.2602, -0.0673 -0.7854 0.2418, -0.0645 -0.7854 0.2291, -0.0638 -0.7854 0.226, -0.0593 -0.7854 0.226, -0.0485 -0.7854 0.2247, -0.0385 -0.7854 0.2208, -0.0297 -0.7854 0.2147, -0.0231 -0.7854 0.2073, -0.0222 -0.7854 0.2056, -0.0178 -0.7854 0.1975, -0.0152 -0.7854 0.1866, -0.0149 -0.7854 0.1816, -0.0163 -0.7854 0.1705, -0.0202 -0.7854 0.1604, -0.0264 -0.7854 0.1515, -0.0272 -0.7854 0.1507, -0.0356 -0.7854 0.1438, -0.0457 -0.7854 0.1391, -0.0559 -0.7854 0.1372, -0.0815 -0.7854 0.1372, -0.0826 -0.7854 0.1373, -0.0844 -0.7854 0.1377, -0.0849 -0.7854 0.1377, -0.0893 -0.7854 0.1372, -0.0932 -0.7854 0.1356, -0.0967 -0.7854 0.1332, -0.0991 -0.7854 0.1306, -0.1013 -0.7854 0.1267, -0.1024 -0.7854 0.1223, -0.1026 -0.7854 0.1201, -0.102 -0.7854 0.1159, -0.1005 -0.7854 0.112, -0.098 -0.7854 0.1084, -0.0967 -0.7854 0.1071, -0.093 -0.7854 0.1045, -0.0893 -0.7854 0.103, -0.086 -0.7854 0.1025, -0.0525 -0.7854 0.1025, -0.0335 -0.7854 0.1065, -0.0161 -0.7854 0.115, -0.0007 -0.7854 0.1281, 0.0106 -0.7854 0.1438, 0.0178 -0.7854 0.1618, -0.2198 -0.7854 0.1434, -0.2159 -0.7854 0.1431, -0.2106 -0.7854 0.1414, -0.2058 -0.7854 0.1385, -0.202 -0.7854 0.1345, -0.1994 -0.7854 0.1299, -0.1979 -0.7854 0.1248, -0.1977 -0.7854 0.1192, -0.1989 -0.7854 0.1137, -0.2015 -0.7854 0.1088, -0.205 -0.7854 0.1047, -0.2093 -0.7854 0.1017, -0.2143 -0.7854 0.0997, -0.2198 -0.7854 0.099, -0.2208 -0.7854 0.0991, -0.2259 -0.7854 0.0999, -0.2311 -0.7854 0.1021, -0.2354 -0.7854 0.1054, -0.2385 -0.7854 0.1093, -0.2408 -0.7854 0.114, -0.2419 -0.7854 0.1193, -0.2417 -0.7854 0.1249, -0.2401 -0.7854 0.1303, -0.2372 -0.7854 0.135, -0.2348 -0.7854 0.1377, -0.2303 -0.7854 0.1408, -0.2253 -0.7854 0.1427
            ]
        }
        coordIndex [
            0,1,2,-1,3,4,5,-1,6,7,8,-1,9,10,11,-1,12,11,13,-1,13,11,14,-1,2,1,15,-1,16,17,18,-1,18,17,19,-1,18,19,20,-1,20,19,21,-1,20,21,5,-1,5,21,22,-1,5,22,3,-1,23,24,19,-1,19,24,25,-1,19,25,21,-1,21,25,26,-1,21,26,27,-1,28,9,29,-1,29,9,11,-1,29,11,30,-1,30,11,12,-1,31,32,33,-1,33,32,34,-1,33,34,35,-1,35,34,36,-1,35,36,37,-1,37,36,38,-1,6,8,39,-1,39,8,40,-1,39,40,41,-1,41,40,42,-1,41,42,43,-1,1,44,15,-1,15,44,45,-1,15,45,46,-1,46,45,47,-1,46,47,6,-1,6,47,48,-1,6,48,7,-1,27,49,21,-1,21,49,50,-1,21,50,51,-1,51,50,52,-1,51,52,53,-1,53,52,54,-1,53,54,55,-1,55,54,56,-1,55,56,57,-1,57,56,58,-1,57,58,59,-1,59,58,60,-1,59,60,29,-1,29,60,61,-1,29,61,28,-1,62,63,64,-1,64,63,65,-1,64,65,66,-1,66,65,67,-1,66,67,68,-1,68,67,69,-1,68,69,70,-1,70,69,71,-1,70,71,72,-1,36,73,38,-1,38,73,74,-1,38,74,75,-1,75,74,76,-1,75,76,77,-1,77,76,78,-1,77,78,79,-1,79,78,80,-1,79,80,81,-1,81,80,82,-1,81,82,83,-1,83,82,84,-1,83,84,62,-1,62,84,85,-1,62,85,63,-1,86,87,88,-1,88,87,89,-1,88,89,33,-1,33,89,90,-1,33,90,31,-1,91,92,93,-1,93,92,94,-1,93,94,95,-1,95,94,96,-1,95,96,97,-1,97,96,98,-1,97,98,99,-1,99,98,100,-1,99,100,14,-1,14,100,101,-1,14,101,13,-1,10,102,11,-1,11,102,103,-1,11,103,104,-1,104,103,105,-1,104,105,106,-1,106,105,107,-1,106,107,108,-1,108,107,109,-1,108,109,110,-1,110,109,111,-1,110,111,112,-1,112,111,113,-1,112,113,114,-1,114,113,115,-1,114,115,116,-1,116,115,117,-1,116,117,118,-1,118,117,119,-1,118,119,19,-1,19,119,120,-1,19,120,23,-1,43,42,121,-1,121,42,122,-1,121,122,123,-1,123,122,124,-1,123,124,125,-1,125,124,126,-1,125,126,127,-1,127,126,128,-1,127,128,86,-1,86,128,129,-1,86,129,87,-1,2,130,0,-1,0,130,131,-1,0,131,132,-1,132,131,133,-1,132,133,134,-1,134,133,135,-1,134,135,91,-1,91,135,136,-1,91,136,92,-1,137,138,139,-1,71,140,72,-1,72,140,137,-1,72,137,141,-1,141,137,139,-1,142,143,137,-1,137,143,144,-1,137,144,138,-1,145,146,147,-1,146,148,147,-1,147,148,149,-1,147,149,150,-1,142,137,147,-1,147,137,151,-1,147,151,145,-1,152,38,153,-1,153,38,75,-1,153,75,154,-1,154,75,77,-1,154,77,155,-1,155,77,79,-1,155,79,156,-1,152,157,38,-1,38,157,158,-1,38,158,37,-1,37,158,159,-1,37,159,35,-1,35,159,160,-1,35,160,33,-1,33,160,161,-1,33,161,88,-1,88,161,162,-1,88,162,86,-1,86,162,127,-1,127,162,163,-1,163,164,127,-1,127,164,165,-1,127,165,125,-1,125,165,166,-1,125,166,123,-1,123,166,167,-1,123,167,121,-1,121,167,168,-1,121,168,43,-1,43,168,41,-1,41,168,169,-1,41,169,170,-1,41,170,171,-1,41,171,39,-1,39,171,172,-1,39,172,6,-1,6,172,173,-1,6,173,46,-1,46,173,174,-1,46,174,15,-1,15,174,175,-1,15,175,2,-1,2,175,176,-1,2,176,130,-1,130,176,177,-1,130,177,131,-1,131,177,178,-1,131,178,133,-1,136,135,179,-1,179,135,133,-1,179,133,178,-1,179,180,136,-1,136,180,181,-1,136,181,92,-1,92,181,182,-1,182,183,92,-1,92,183,184,-1,92,184,94,-1,94,184,185,-1,94,185,96,-1,96,185,186,-1,96,186,98,-1,98,186,187,-1,98,187,100,-1,100,187,188,-1,100,188,101,-1,101,188,189,-1,101,189,13,-1,13,189,190,-1,13,190,12,-1,12,190,191,-1,12,191,30,-1,191,192,30,-1,30,192,193,-1,30,193,29,-1,29,193,194,-1,29,194,59,-1,59,194,195,-1,59,195,57,-1,195,196,57,-1,57,196,197,-1,57,197,55,-1,55,197,198,-1,55,198,53,-1,199,20,5,-1,53,198,200,-1,201,21,200,-1,200,21,51,-1,200,51,53,-1,201,202,21,-1,21,202,203,-1,21,203,22,-1,22,203,204,-1,22,204,3,-1,3,204,205,-1,3,205,4,-1,4,205,206,-1,4,206,5,-1,5,206,207,-1,5,207,199,-1,18,20,208,-1,208,20,199,-1,16,18,209,-1,209,18,208,-1,17,16,210,-1,210,16,209,-1,19,17,211,-1,211,17,210,-1,19,211,212,-1,19,212,118,-1,118,212,213,-1,118,213,116,-1,116,213,214,-1,116,214,114,-1,114,214,215,-1,114,215,112,-1,112,215,216,-1,112,216,110,-1,110,216,217,-1,110,217,108,-1,108,217,218,-1,108,218,106,-1,106,218,219,-1,106,219,104,-1,104,219,220,-1,104,220,11,-1,11,220,221,-1,11,221,14,-1,14,221,222,-1,14,222,99,-1,99,222,223,-1,99,223,97,-1,97,223,224,-1,97,224,95,-1,95,224,225,-1,95,225,93,-1,91,93,225,-1,225,226,91,-1,91,226,227,-1,91,227,228,-1,229,132,228,-1,228,132,134,-1,228,134,91,-1,229,230,132,-1,132,230,231,-1,132,231,0,-1,0,231,232,-1,0,232,1,-1,1,232,233,-1,1,233,44,-1,44,233,234,-1,44,234,45,-1,45,234,235,-1,45,235,47,-1,47,235,236,-1,47,236,48,-1,48,236,237,-1,48,237,7,-1,7,237,238,-1,7,238,8,-1,8,238,239,-1,8,239,40,-1,40,239,240,-1,40,240,42,-1,42,240,241,-1,42,241,122,-1,122,241,242,-1,122,242,124,-1,124,242,243,-1,124,243,126,-1,126,243,244,-1,126,244,128,-1,128,244,245,-1,128,245,129,-1,129,245,246,-1,129,246,87,-1,87,246,247,-1,87,247,89,-1,89,247,248,-1,89,248,90,-1,90,248,31,-1,31,248,249,-1,31,249,250,-1,32,31,251,-1,251,31,250,-1,32,251,252,-1,32,252,34,-1,34,252,253,-1,34,253,36,-1,36,253,254,-1,36,254,73,-1,73,254,255,-1,73,255,74,-1,74,255,256,-1,74,256,76,-1,256,257,76,-1,76,257,258,-1,76,258,78,-1,78,258,259,-1,78,259,80,-1,80,259,260,-1,80,260,82,-1,82,260,261,-1,82,261,84,-1,84,261,262,-1,84,262,85,-1,85,262,263,-1,85,263,63,-1,63,263,264,-1,63,264,65,-1,65,264,265,-1,65,265,67,-1,67,265,266,-1,67,266,69,-1,71,69,267,-1,267,69,266,-1,71,267,268,-1,71,268,140,-1,140,268,269,-1,140,269,137,-1,137,269,270,-1,137,270,151,-1,151,270,271,-1,151,271,145,-1,145,271,272,-1,145,272,146,-1,146,272,273,-1,146,273,148,-1,148,273,274,-1,148,274,149,-1,149,274,275,-1,149,275,150,-1,150,275,276,-1,150,276,147,-1,147,276,277,-1,147,277,142,-1,142,277,278,-1,142,278,143,-1,143,278,279,-1,143,279,144,-1,144,279,280,-1,144,280,138,-1,138,280,281,-1,138,281,139,-1,139,281,282,-1,139,282,141,-1,141,282,283,-1,141,283,72,-1,72,283,284,-1,72,284,70,-1,68,70,285,-1,285,70,284,-1,68,285,286,-1,68,286,66,-1,66,286,287,-1,66,287,64,-1,64,287,288,-1,64,288,62,-1,62,288,289,-1,62,289,83,-1,83,289,290,-1,83,290,81,-1,81,290,156,-1,81,156,79,-1,113,291,292,-1,113,292,115,-1,115,292,293,-1,115,293,117,-1,117,293,294,-1,117,294,119,-1,119,294,295,-1,119,295,120,-1,120,295,296,-1,120,296,23,-1,23,296,297,-1,23,297,24,-1,24,297,298,-1,24,298,25,-1,25,298,299,-1,25,299,26,-1,26,299,300,-1,26,300,27,-1,27,300,301,-1,27,301,49,-1,49,301,302,-1,49,302,50,-1,50,302,303,-1,50,303,52,-1,52,303,304,-1,52,304,54,-1,54,304,305,-1,54,305,56,-1,56,305,306,-1,56,306,58,-1,58,306,307,-1,58,307,60,-1,60,307,308,-1,60,308,61,-1,61,308,309,-1,61,309,28,-1,28,309,310,-1,28,310,9,-1,9,310,311,-1,9,311,10,-1,10,311,312,-1,10,312,102,-1,102,312,313,-1,102,313,103,-1,103,313,314,-1,103,314,105,-1,105,314,315,-1,105,315,107,-1,107,315,316,-1,107,316,109,-1,109,316,317,-1,109,317,111,-1,111,317,291,-1,111,291,113,-1,
        ]
    }
}
Shape{
    appearance Appearance {
        material  Material {
            diffuseColor 1.0 1.0 1.0
            specularColor 0.5019607843137255 0.5019607843137255 0.5019607843137255
            ambientIntensity 1.0
            transparency 0.0
            shininess 0.5
        }
    }
    geometry IndexedFaceSet {
        ccw TRUE
        solid FALSE
        coord DEF co Coordinate {
            point [
                -0.2208 -0.7854 0.0991, -0.2348 -0.7854 0.1377, -0.2372 -0.7854 0.135, -0.2198 -0.7854 0.1434, -0.2253 -0.7854 0.1427, -0.2303 -0.7854 0.1408, -0.2408 -0.7854 0.114, -0.2385 -0.7854 0.1093, -0.2354 -0.7854 0.1054, -0.2159 -0.7854 0.1431, -0.2198 -0.7854 0.099, -0.2143 -0.7854 0.0997, -0.2015 -0.7854 0.1088, -0.1994 -0.7854 0.1299, -0.205 -0.7854 0.1047, -0.202 -0.7854 0.1345, -0.2058 -0.7854 0.1385, -0.2093 -0.7854 0.1017, -0.2106 -0.7854 0.1414, -0.2401 -0.7854 0.1303, -0.2417 -0.7854 0.1249, -0.2419 -0.7854 0.1193, -0.2311 -0.7854 0.1021, -0.2259 -0.7854 0.0999, -0.1989 -0.7854 0.1137, -0.1977 -0.7854 0.1192, -0.1979 -0.7854 0.1248, 2.3622 0.7854 0.0039, -2.3622 0.7854 0.0039, -2.3622 0.7865 0.0041, 2.3622 0.7865 0.0041, -2.3622 0.7874 0.0045, 2.3622 0.7874 0.0045, -2.3622 0.7882 0.0051, 2.3622 0.7882 0.0051, -2.3622 0.7888 0.0059, 2.3622 0.7888 0.0059, -2.3622 0.7892 0.0069, 2.3622 0.7892 0.0069, -2.3622 0.7894 0.0079, 2.3622 0.7894 0.0079, -2.3622 -0.7815 0.0039, 2.3622 -0.7815 0.0039, 2.3622 -0.7825 0.0041, -2.3622 -0.7825 0.0041, 2.3622 -0.7835 0.0045, -2.3622 -0.7835 0.0045, 2.3622 -0.7843 0.0051, -2.3622 -0.7843 0.0051, 2.3622 -0.7849 0.0059, -2.3622 -0.7849 0.0059, 2.3622 -0.7853 0.0069, -2.3622 -0.7853 0.0069, 2.3622 -0.7854 0.0079, 0.3584 -0.7854 0.0079, 0.3331 -0.7854 0.0079, 0.3023 -0.7854 0.0079, 0.2581 -0.7854 0.0079, 0.2394 -0.7854 0.0079, 0.2028 -0.7854 0.0079, -1.3525 -0.7854 0.0079, -2.3622 -0.7854 0.0079, 0.1351 -0.7854 0.0079, 0.1303 -0.7854 0.0079, 0.0532 -0.7854 0.0079, -2.3622 0.7854 0.6339, 2.3622 0.7854 0.6339, 2.3622 0.7865 0.6337, -2.3622 0.7865 0.6337, 2.3622 0.7874 0.6333, -2.3622 0.7874 0.6333, 2.3622 0.7882 0.6327, -2.3622 0.7882 0.6327, 2.3622 0.7888 0.6319, -2.3622 0.7888 0.6319, 2.3622 0.7892 0.6309, -2.3622 0.7892 0.6309, 2.3622 0.7894 0.6299, -2.3622 0.7894 0.6299, 2.3622 -0.7815 0.6339, -2.3622 -0.7815 0.6339, -2.3622 -0.7825 0.6337, 2.3622 -0.7825 0.6337, -2.3622 -0.7835 0.6333, 2.3622 -0.7835 0.6333, -2.3622 -0.7843 0.6327, 2.3622 -0.7843 0.6327, -2.3622 -0.7849 0.6319, 2.3622 -0.7849 0.6319, -2.3622 -0.7853 0.6309, 2.3622 -0.7853 0.6309, 0.1351 -0.7854 0.6299, 0.2028 -0.7854 0.6299, -2.3622 -0.7854 0.6299, -1.3525 -0.7854 0.6299, 0.0532 -0.7854 0.6299, 0.1303 -0.7854 0.6299, 0.2394 -0.7854 0.6299, 0.2581 -0.7854 0.6299, 0.3023 -0.7854 0.6299, 0.3331 -0.7854 0.6299, 0.3584 -0.7854 0.6299, 2.3622 -0.7854 0.6299
            ]
        }
        coordIndex [
            0,1,2,-1,3,4,0,-1,0,4,5,-1,0,5,1,-1,6,7,2,-1,2,7,8,-1,3,0,9,-1,9,0,10,-1,9,10,11,-1,12,13,14,-1,14,13,15,-1,14,15,16,-1,11,17,9,-1,9,17,14,-1,9,14,18,-1,18,14,16,-1,19,20,2,-1,2,20,21,-1,2,21,6,-1,8,22,2,-1,2,22,23,-1,2,23,0,-1,24,25,12,-1,12,25,26,-1,12,26,13,-1,27,28,29,-1,27,29,30,-1,30,29,31,-1,30,31,32,-1,32,31,33,-1,32,33,34,-1,34,33,35,-1,34,35,36,-1,36,35,37,-1,36,37,38,-1,38,37,39,-1,38,39,40,-1,41,42,43,-1,41,43,44,-1,44,43,45,-1,44,45,46,-1,46,45,47,-1,46,47,48,-1,48,47,49,-1,48,49,50,-1,50,49,51,-1,50,51,52,-1,53,54,51,-1,51,54,55,-1,51,55,56,-1,56,57,51,-1,51,57,58,-1,51,58,59,-1,60,61,52,-1,59,62,51,-1,51,62,63,-1,51,63,52,-1,52,63,64,-1,52,64,60,-1,65,66,67,-1,65,67,68,-1,68,67,69,-1,68,69,70,-1,70,69,71,-1,70,71,72,-1,72,71,73,-1,72,73,74,-1,74,73,75,-1,74,75,76,-1,76,75,77,-1,76,77,78,-1,79,80,81,-1,79,81,82,-1,82,81,83,-1,82,83,84,-1,84,83,85,-1,84,85,86,-1,86,85,87,-1,86,87,88,-1,88,87,89,-1,88,89,90,-1,91,92,90,-1,93,94,89,-1,89,94,95,-1,89,95,90,-1,90,95,96,-1,90,96,91,-1,92,97,90,-1,90,97,98,-1,90,98,99,-1,99,100,90,-1,90,100,101,-1,90,101,102,-1,
        ]
    }
}
Shape{
    appearance Appearance {
        material  Material {
            diffuseColor 0.7529411764705882 0.0 0.0
            specularColor 0.3764705882352941 0.0 0.0
            ambientIntensity 0.2251
            transparency 0.0
            shininess 0.5
        }
    }
    geometry IndexedFaceSet {
        ccw TRUE
        solid FALSE
        coord DEF co Coordinate {
            point [
                -1.6545 -0.0769 0.6343, -1.6545 0.1336 0.6343, -1.6545 -0.0769 0.6339, -1.6545 0.1336 0.6339, -1.4492 -0.0769 0.6343, -1.4492 -0.0769 0.6339, -1.4492 0.1336 0.6343, -1.4492 0.1336 0.6339
            ]
        }
        coordIndex [
            0,1,2,-1,2,1,3,-1,4,0,5,-1,5,0,2,-1,6,4,7,-1,7,4,5,-1,1,6,3,-1,3,6,7,-1,4,6,0,-1,0,6,1,-1,7,5,3,-1,3,5,2,-1,
        ]
    }
}
Shape{
    appearance Appearance {
        material  Material {
            diffuseColor 0.7529411764705882 0.7529411764705882 0.7529411764705882
            specularColor 0.3764705882352941 0.3764705882352941 0.3764705882352941
            ambientIntensity 0.7529
            transparency 0.0
            shininess 0.5
        }
    }
    geometry IndexedFaceSet {
        ccw TRUE
        solid FALSE
        coord DEF co Coordinate {
            point [
                -2.3622 -0.7854 0.6339, -2.3622 -0.7854 0.0039, -2.3622 0.7894 0.6339, -2.3622 0.7894 0.0039, -2.1063 0.7894 0.0, -2.1063 0.7894 0.0039, -2.0753 0.616 0.0039, -2.0753 0.616 0.0, -2.0519 0.4414 0.0039, -2.0519 0.4414 0.0, -2.0363 0.266 0.0039, -2.0363 0.266 0.0, -2.0285 0.09 0.0039, -2.0285 0.09 0.0, -2.0285 -0.0861 0.0039, -2.0285 -0.0861 0.0, -2.0363 -0.2621 0.0039, -2.0363 -0.2621 0.0, -2.0519 -0.4375 0.0039, -2.0519 -0.4375 0.0, -2.0753 -0.6121 0.0039, -2.0753 -0.6121 0.0, -2.1063 -0.7854 0.0039, -2.1063 -0.7854 0.0, -2.1063 -0.7854 0.6339, -2.1063 -0.7854 0.6378, -2.3661 -0.7854 0.6378, -2.3661 -0.7854 0.0, -2.3661 0.7894 0.0, -2.3661 0.7894 0.6378, -2.1063 0.7894 0.6339, -2.1063 0.7894 0.6378, -2.0519 -0.4375 0.6378, -2.0753 -0.6121 0.6378, -2.0363 0.266 0.6378, -2.0519 0.4414 0.6378, -2.0753 0.616 0.6378, -2.0363 -0.2621 0.6378, -2.0285 -0.0861 0.6378, -2.0285 0.09 0.6378, -2.0753 -0.6121 0.6339, -2.0519 -0.4375 0.6339, -2.0363 -0.2621 0.6339, -2.0285 -0.0861 0.6339, -2.0285 0.09 0.6339, -2.0363 0.266 0.6339, -2.0519 0.4414 0.6339, -2.0753 0.616 0.6339, 2.3622 -0.7854 0.0039, 2.3622 -0.7854 0.6339, 2.3622 0.7894 0.0039, 2.3622 0.7894 0.6339, 2.1063 -0.7854 0.0, 2.1063 -0.7854 0.0039, 2.0753 -0.6121 0.0039, 2.0753 -0.6121 0.0, 2.0519 -0.4375 0.0039, 2.0519 -0.4375 0.0, 2.0363 -0.2621 0.0039, 2.0363 -0.2621 0.0, 2.0285 -0.0861 0.0039, 2.0285 -0.0861 0.0, 2.0285 0.09 0.0039, 2.0285 0.09 0.0, 2.0363 0.266 0.0039, 2.0363 0.266 0.0, 2.0519 0.4414 0.0039, 2.0519 0.4414 0.0, 2.0753 0.616 0.0039, 2.0753 0.616 0.0, 2.1063 0.7894 0.0039, 2.1063 0.7894 0.0, 2.3661 -0.7854 0.0, 2.3661 -0.7854 0.6378, 2.1063 -0.7854 0.6339, 2.1063 -0.7854 0.6378, 2.1063 0.7894 0.6339, 2.1063 0.7894 0.6378, 2.3661 0.7894 0.6378, 2.3661 0.7894 0.0, 2.0519 0.4414 0.6378, 2.0753 0.616 0.6378, 2.0363 -0.2621 0.6378, 2.0519 -0.4375 0.6378, 2.0753 -0.6121 0.6378, 2.0363 0.266 0.6378, 2.0285 0.09 0.6378, 2.0285 -0.0861 0.6378, 2.0753 0.616 0.6339, 2.0519 0.4414 0.6339, 2.0363 0.266 0.6339, 2.0285 0.09 0.6339, 2.0285 -0.0861 0.6339, 2.0363 -0.2621 0.6339, 2.0519 -0.4375 0.6339, 2.0753 -0.6121 0.6339
            ]
        }
        coordIndex [
            0,1,2,-1,2,1,3,-1,4,5,6,-1,4,6,7,-1,7,6,8,-1,7,8,9,-1,9,8,10,-1,9,10,11,-1,11,10,12,-1,11,12,13,-1,13,12,14,-1,13,14,15,-1,15,14,16,-1,15,16,17,-1,17,16,18,-1,17,18,19,-1,19,18,20,-1,19,20,21,-1,21,20,22,-1,21,22,23,-1,24,25,0,-1,0,25,26,-1,0,26,1,-1,1,26,27,-1,1,27,22,-1,22,27,23,-1,5,4,3,-1,3,4,28,-1,3,28,2,-1,2,28,29,-1,2,29,30,-1,30,29,31,-1,4,7,28,-1,28,7,9,-1,17,19,27,-1,27,19,21,-1,27,21,23,-1,9,11,28,-1,28,11,13,-1,28,13,27,-1,27,13,15,-1,27,15,17,-1,22,20,1,-1,1,20,18,-1,10,8,3,-1,3,8,6,-1,3,6,5,-1,18,16,1,-1,1,16,14,-1,1,14,3,-1,3,14,12,-1,3,12,10,-1,32,26,33,-1,33,26,25,-1,34,35,29,-1,29,35,36,-1,29,36,31,-1,32,37,26,-1,26,37,38,-1,26,38,29,-1,29,38,39,-1,29,39,34,-1,28,27,29,-1,29,27,26,-1,25,24,40,-1,25,40,33,-1,33,40,41,-1,33,41,32,-1,32,41,42,-1,32,42,37,-1,37,42,43,-1,37,43,38,-1,38,43,44,-1,38,44,39,-1,39,44,45,-1,39,45,34,-1,34,45,46,-1,34,46,35,-1,35,46,47,-1,35,47,36,-1,36,47,30,-1,36,30,31,-1,46,2,47,-1,47,2,30,-1,42,41,0,-1,0,41,40,-1,0,40,24,-1,46,45,2,-1,2,45,44,-1,2,44,0,-1,0,44,43,-1,0,43,42,-1,48,49,50,-1,50,49,51,-1,52,53,54,-1,52,54,55,-1,55,54,56,-1,55,56,57,-1,57,56,58,-1,57,58,59,-1,59,58,60,-1,59,60,61,-1,61,60,62,-1,61,62,63,-1,63,62,64,-1,63,64,65,-1,65,64,66,-1,65,66,67,-1,67,66,68,-1,67,68,69,-1,69,68,70,-1,69,70,71,-1,53,52,48,-1,48,52,72,-1,48,72,49,-1,49,72,73,-1,49,73,74,-1,74,73,75,-1,76,77,51,-1,51,77,78,-1,51,78,50,-1,50,78,79,-1,50,79,70,-1,70,79,71,-1,57,72,55,-1,55,72,52,-1,65,67,79,-1,79,67,69,-1,79,69,71,-1,57,59,72,-1,72,59,61,-1,72,61,79,-1,79,61,63,-1,79,63,65,-1,58,56,48,-1,48,56,54,-1,48,54,53,-1,70,68,50,-1,50,68,66,-1,66,64,50,-1,50,64,62,-1,50,62,48,-1,48,62,60,-1,48,60,58,-1,80,78,81,-1,81,78,77,-1,82,83,73,-1,73,83,84,-1,73,84,75,-1,80,85,78,-1,78,85,86,-1,78,86,73,-1,73,86,87,-1,73,87,82,-1,72,79,73,-1,73,79,78,-1,77,76,88,-1,77,88,81,-1,81,88,89,-1,81,89,80,-1,80,89,90,-1,80,90,85,-1,85,90,91,-1,85,91,86,-1,86,91,92,-1,86,92,87,-1,87,92,93,-1,87,93,82,-1,82,93,94,-1,82,94,83,-1,83,94,95,-1,83,95,84,-1,84,95,74,-1,84,74,75,-1,94,49,95,-1,95,49,74,-1,94,93,49,-1,49,93,92,-1,49,92,51,-1,51,92,91,-1,51,91,90,-1,90,89,51,-1,51,89,88,-1,51,88,76,-1,
        ]
    }
}