#VRML V2.0 utf8
# 3D model generated by kicad-lcsc-manager
# Based on easyeda2kicad.py v1.0.1

Shape{
    appearance Appearance {
        material  Material {
            diffuseColor 0.25098039215686274 0.25098039215686274 0.25098039215686274
            specularColor 0.7529411764705882 0.7529411764705882 0.7529411764705882
            ambientIntensity 1.0
            transparency 1.0
            shininess 0.5
        }
    }
    geometry IndexedFaceSet {
        ccw TRUE
        solid FALSE
        coord DEF co Coordinate {
            point [
                -0.1988 -0.6969 3.3661, -0.1988 -0.3031 3.4252, -0.1988 -0.6969 3.4252, -0.1988 -0.3031 3.3661, 0.1949 -0.3031 3.4252, 0.1949 -0.3031 3.3661, 0.1949 -0.6969 3.4252, 0.1949 -0.6969 3.3661, -1.1988 -0.6969 3.3661, -1.1988 -0.3031 3.4252, -1.1988 -0.6969 3.4252, -1.1988 -0.3031 3.3661, -0.8051 -0.3031 3.4252, -0.8051 -0.3031 3.3661, -0.8051 -0.6969 3.4252, -0.8051 -0.6969 3.3661, 0.8012 -0.6969 3.3661, 0.8012 -0.3031 3.4252, 0.8012 -0.6969 3.4252, 0.8012 -0.3031 3.3661, 1.1949 -0.3031 3.4252, 1.1949 -0.3031 3.3661, 1.1949 -0.6969 3.4252, 1.1949 -0.6969 3.3661, -1.6004 -0.8858 0.2165, -1.6004 0.8858 0.2165, -1.2776 0.2244 0.2165, -1.2776 -0.7756 0.2165, -1.2776 -0.2244 0.2165, -1.1083 -0.7769 0.2165, -0.8957 -0.7769 0.2165, -0.8957 -0.7756 0.2165, -0.7264 -0.7756 0.2165, -0.2776 -0.7756 0.2165, -0.1083 -0.7769 0.2165, 1.5965 0.8858 0.2165, 1.1043 0.7769 0.2165, 0.8917 0.7769 0.2165, -0.1083 0.7769 0.2165, -1.2776 0.7756 0.2165, -1.1083 0.7769 0.2165, -1.1083 0.7756 0.2165, -1.1083 -0.7756 0.2165, 0.7224 0.7756 0.2165, 1.2736 0.7756 0.2165, 1.1043 0.7756 0.2165, 0.8917 0.7756 0.2165, -0.7264 -0.2244 0.2165, -0.7264 0.2244 0.2165, 0.1043 0.7769 0.2165, -0.2776 -0.2244 0.2165, 1.5965 -0.8858 0.2165, 1.2736 -0.2244 0.2165, 0.7224 -0.2244 0.2165, 0.2736 -0.7756 0.2165, 0.2736 -0.2244 0.2165, 1.2736 0.2244 0.2165, -0.2776 0.7756 0.2165, -0.2776 0.2244 0.2165, -0.7264 0.7756 0.2165, -0.8957 0.7756 0.2165, -0.8957 0.7769 0.2165, 0.2736 0.2244 0.2165, 0.1043 -0.7769 0.2165, 0.1043 -0.7756 0.2165, 0.7224 -0.7756 0.2165, -0.1083 -0.7756 0.2165, 0.7224 0.2244 0.2165, 0.2736 0.7756 0.2165, 0.1043 0.7756 0.2165, -0.1083 0.7756 0.2165, 0.8917 -0.7769 0.2165, 1.1043 -0.7769 0.2165, 1.1043 -0.7756 0.2165, 1.2736 -0.7756 0.2165, 0.8917 -0.7756 0.2165, -1.6004 0.9843 0.1575, 1.5965 0.8858 0.1575, -1.6004 0.8858 0.1575, 1.5965 0.9843 0.1575, 0.7224 -0.7756 3.5039, 1.5965 -0.9843 3.5039, 1.2736 -0.7756 3.5039, -0.7264 -0.7756 3.5039, -1.6004 -0.9843 3.5039, -0.2776 -0.7756 3.5039, -0.7264 -0.2244 3.5039, -0.2776 -0.2244 3.5039, -0.7264 0.2244 3.5039, -1.2776 -0.7756 3.5039, 1.5965 0.9843 3.5039, 1.2736 0.2244 3.5039, 1.2736 -0.2244 3.5039, -1.2776 -0.2244 3.5039, -1.2776 0.2244 3.5039, -1.6004 0.9843 3.5039, 0.7224 -0.2244 3.5039, 0.7224 0.2244 3.5039, 0.2736 -0.7756 3.5039, 1.2736 0.7756 3.5039, -0.2776 0.2244 3.5039, -0.7264 0.7756 3.5039, 0.2736 0.7756 3.5039, 0.2736 -0.2244 3.5039, 0.7224 0.7756 3.5039, -1.2776 0.7756 3.5039, -0.2776 0.7756 3.5039, 0.2736 0.2244 3.5039, 1.5965 -0.9843 0.1575, 1.5965 -0.8858 0.1575, -1.6004 -0.9843 0.1575, -1.6004 -0.8858 0.1575, 0.1949 0.6969 3.4252, 0.1949 0.6969 3.3661, 0.1949 0.3031 3.3661, 0.1949 0.3031 3.4252, -0.1988 0.3031 3.3661, -0.1988 0.3031 3.4252, -0.1988 0.6969 3.3661, -0.1988 0.6969 3.4252, -0.8051 0.3031 3.4252, -0.8051 0.3031 3.3661, -1.1988 0.3031 3.3661, -1.1988 0.3031 3.4252, -0.8051 0.6969 3.4252, -0.8051 0.6969 3.3661, -1.1988 0.6969 3.3661, -1.1988 0.6969 3.4252, 1.1949 0.3031 3.4252, 1.1949 0.3031 3.3661, 0.8012 0.3031 3.3661, 0.8012 0.3031 3.4252, 1.1949 0.6969 3.4252, 1.1949 0.6969 3.3661, 0.8012 0.6969 3.3661, 0.8012 0.6969 3.4252, 0.7224 -0.7756 3.3661, 1.2736 -0.7756 3.3661, 0.7224 -0.2244 3.3661, 1.2736 -0.2244 3.3661, 1.1043 -0.6785 0.2165, 0.8917 -0.6785 0.2165, -1.2776 -0.7756 3.3661, -0.7264 -0.7756 3.3661, -1.2776 -0.2244 3.3661, -0.7264 -0.2244 3.3661, -0.8957 -0.6785 0.2165, -1.1083 -0.6785 0.2165, 1.2736 0.2244 3.3661, 0.7224 0.2244 3.3661, 0.7224 0.7756 3.3661, 1.2736 0.7756 3.3661, 1.1043 0.6785 0.2165, 0.8917 0.6785 0.2165, -0.7264 0.2244 3.3661, -1.2776 0.2244 3.3661, -1.2776 0.7756 3.3661, -0.7264 0.7756 3.3661, -0.8957 0.6785 0.2165, -1.1083 0.6785 0.2165, 0.2736 0.2244 3.3661, -0.2776 0.2244 3.3661, 0.2736 0.7756 3.3661, -0.2776 0.7756 3.3661, 0.1043 0.6785 0.2165, -0.1083 0.6785 0.2165, -0.2776 -0.7756 3.3661, 0.2736 -0.7756 3.3661, -0.2776 -0.2244 3.3661, 0.2736 -0.2244 3.3661, 0.1043 -0.6785 0.2165, -0.1083 -0.6785 0.2165
            ]
        }
        coordIndex [
            0,1,2,-1,0,3,1,-1,3,4,1,-1,3,5,4,-1,5,6,4,-1,5,7,6,-1,7,2,6,-1,7,0,2,-1,8,9,10,-1,8,11,9,-1,11,12,9,-1,11,13,12,-1,13,14,12,-1,13,15,14,-1,15,10,14,-1,15,8,10,-1,16,17,18,-1,16,19,17,-1,19,20,17,-1,19,21,20,-1,21,22,20,-1,21,23,22,-1,23,18,22,-1,23,16,18,-1,24,25,26,-1,27,24,28,-1,24,27,29,-1,24,29,30,-1,30,31,32,-1,32,24,30,-1,24,33,34,-1,35,36,37,-1,25,35,38,-1,39,40,41,-1,29,27,42,-1,37,43,35,-1,44,36,35,-1,45,36,44,-1,37,46,43,-1,47,28,48,-1,38,35,49,-1,50,32,47,-1,51,52,35,-1,53,54,55,-1,35,56,44,-1,48,57,58,-1,48,28,26,-1,59,60,61,-1,61,40,25,-1,25,39,26,-1,40,39,25,-1,24,26,28,-1,62,50,58,-1,25,57,59,-1,25,59,61,-1,50,33,32,-1,33,24,32,-1,24,34,63,-1,63,64,54,-1,63,51,24,-1,47,48,58,-1,53,65,54,-1,63,54,51,-1,53,56,52,-1,50,47,58,-1,66,34,33,-1,62,43,67,-1,68,69,49,-1,68,35,43,-1,48,59,57,-1,25,38,57,-1,38,70,57,-1,50,62,55,-1,67,55,62,-1,43,62,68,-1,35,68,49,-1,51,65,71,-1,54,65,51,-1,72,73,74,-1,71,72,51,-1,53,55,67,-1,72,74,51,-1,35,52,56,-1,51,74,52,-1,56,53,67,-1,75,71,65,-1,76,77,78,-1,76,79,77,-1,80,81,82,-1,83,84,85,-1,86,87,88,-1,83,89,84,-1,90,91,81,-1,91,92,81,-1,81,92,82,-1,84,89,93,-1,94,86,88,-1,84,93,95,-1,96,92,97,-1,86,85,87,-1,85,86,83,-1,85,81,98,-1,92,91,97,-1,99,91,90,-1,88,100,101,-1,95,102,90,-1,100,87,103,-1,90,104,99,-1,95,94,105,-1,86,94,93,-1,95,93,94,-1,101,95,105,-1,106,95,101,-1,100,106,101,-1,90,102,104,-1,97,104,102,-1,97,102,107,-1,96,97,107,-1,100,88,87,-1,102,95,106,-1,103,80,96,-1,81,80,98,-1,81,85,84,-1,100,103,107,-1,96,107,103,-1,80,103,98,-1,51,108,109,-1,35,90,81,-1,35,77,79,-1,108,51,81,-1,35,79,90,-1,81,51,35,-1,90,76,95,-1,90,79,76,-1,110,24,111,-1,24,110,84,-1,95,24,84,-1,76,25,95,-1,95,25,24,-1,76,78,25,-1,108,81,84,-1,84,110,108,-1,111,109,108,-1,108,110,111,-1,112,113,114,-1,114,115,112,-1,115,114,116,-1,116,117,115,-1,117,118,119,-1,117,116,118,-1,112,118,113,-1,112,119,118,-1,4,103,87,-1,4,87,1,-1,1,87,85,-1,1,85,2,-1,103,4,6,-1,6,98,103,-1,2,85,98,-1,2,98,6,-1,119,106,100,-1,119,100,117,-1,117,100,107,-1,117,107,115,-1,106,119,112,-1,112,102,106,-1,115,107,102,-1,115,102,112,-1,120,121,122,-1,122,123,120,-1,124,125,121,-1,121,120,124,-1,124,126,125,-1,124,127,126,-1,123,126,127,-1,123,122,126,-1,123,94,88,-1,123,88,120,-1,127,105,94,-1,127,94,123,-1,105,127,124,-1,124,101,105,-1,120,88,101,-1,120,101,124,-1,128,129,130,-1,130,131,128,-1,132,133,129,-1,129,128,132,-1,132,134,133,-1,132,135,134,-1,131,134,135,-1,131,130,134,-1,131,97,91,-1,131,91,128,-1,135,104,97,-1,135,97,131,-1,104,135,132,-1,132,99,104,-1,128,91,99,-1,128,99,132,-1,9,93,89,-1,9,89,10,-1,12,86,93,-1,12,93,9,-1,86,12,14,-1,14,83,86,-1,10,89,83,-1,10,83,14,-1,17,96,80,-1,17,80,18,-1,20,92,96,-1,20,96,17,-1,92,20,22,-1,22,82,92,-1,18,80,82,-1,18,82,22,-1,77,35,25,-1,25,78,77,-1,51,111,24,-1,51,109,111,-1,136,16,23,-1,136,23,137,-1,138,19,136,-1,139,23,21,-1,139,137,23,-1,136,19,16,-1,139,21,19,-1,139,19,138,-1,140,141,75,-1,75,73,140,-1,53,139,138,-1,53,52,139,-1,65,138,136,-1,65,53,138,-1,136,73,75,-1,75,65,136,-1,136,137,73,-1,74,73,137,-1,139,74,137,-1,139,52,74,-1,142,8,15,-1,142,15,143,-1,144,11,142,-1,145,15,13,-1,145,143,15,-1,142,11,8,-1,145,13,11,-1,145,11,144,-1,146,147,42,-1,42,31,146,-1,28,145,144,-1,28,47,145,-1,27,144,142,-1,27,28,144,-1,142,31,42,-1,42,27,142,-1,142,143,31,-1,32,31,143,-1,47,143,145,-1,47,32,143,-1,130,148,149,-1,129,148,130,-1,150,130,149,-1,150,133,134,-1,150,134,130,-1,148,133,151,-1,150,151,133,-1,148,129,133,-1,152,45,46,-1,152,46,153,-1,151,56,148,-1,151,44,56,-1,151,46,45,-1,45,44,151,-1,151,150,46,-1,43,46,150,-1,67,150,149,-1,67,43,150,-1,56,149,148,-1,56,67,149,-1,122,154,155,-1,121,154,122,-1,156,122,155,-1,156,125,126,-1,156,126,122,-1,154,125,157,-1,156,157,125,-1,154,121,125,-1,158,60,41,-1,158,41,159,-1,59,154,157,-1,59,48,154,-1,157,41,60,-1,60,59,157,-1,157,156,41,-1,39,41,156,-1,26,156,155,-1,26,39,156,-1,48,155,154,-1,48,26,155,-1,160,116,114,-1,160,161,116,-1,162,160,113,-1,163,118,116,-1,163,116,161,-1,160,114,113,-1,163,113,118,-1,163,162,113,-1,164,69,70,-1,164,70,165,-1,68,160,162,-1,68,62,160,-1,162,70,69,-1,69,68,162,-1,162,163,70,-1,57,70,163,-1,58,163,161,-1,58,57,163,-1,62,161,160,-1,62,58,161,-1,166,0,7,-1,166,7,167,-1,168,3,166,-1,169,7,5,-1,169,167,7,-1,166,3,0,-1,169,5,3,-1,169,3,168,-1,170,171,66,-1,66,64,170,-1,50,169,168,-1,50,55,169,-1,33,168,166,-1,33,50,168,-1,166,64,66,-1,66,33,166,-1,166,167,64,-1,54,64,167,-1,55,167,169,-1,55,54,167,-1,
        ]
    }
}
Shape{
    appearance Appearance {
        material  Material {
            diffuseColor 0.984313725490196 0.7333333333333333 0.5137254901960784
            specularColor 0.7529411764705882 0.7529411764705882 0.7529411764705882
            ambientIntensity 1.0
            transparency 1.0
            shininess 0.5
        }
    }
    geometry IndexedFaceSet {
        ccw TRUE
        solid FALSE
        coord DEF co Coordinate {
            point [
                0.1043 -1.2795 0.0984, 0.0845 -1.3451 0.0984, 0.0993 -1.3138 0.0984, 0.1043 -0.7966 0.0984, 0.0316 -1.3886 0.0984, 0.0613 -1.3707 0.0984, -0.002 -1.397 0.0984, -0.1083 -0.7966 0.0984, -0.1083 -1.2795 0.0984, -0.0355 -1.3886 0.0984, -0.0884 -1.3451 0.0984, -0.0652 -1.3707 0.0984, -0.1032 -1.3138 0.0984, 0.0845 -1.3451 0.0, 0.0613 -1.3707 0.0, 0.1043 -1.2795 0.0, 0.0993 -1.3138 0.0, 0.0316 -1.3886 0.0, 0.1043 -0.7966 0.0, -0.002 -1.397 0.0, -0.0884 -1.3451 0.0, -0.1083 -1.2795 0.0, -0.0652 -1.3707 0.0, -0.0355 -1.3886 0.0, -0.1083 -0.7966 0.0, -0.1032 -1.3138 0.0, -0.1083 -0.7131 0.0346, -0.1083 -0.6943 0.0591, 0.1043 -0.7131 0.0346, 0.1043 -0.6943 0.0591, -0.1083 -0.6825 0.0875, -0.1083 -0.6785 0.1181, 0.1043 -0.6825 0.0875, 0.1043 -0.6785 0.1181, 0.1043 -0.7375 0.0158, 0.1043 -0.766 0.004, -0.1083 -0.7375 0.0158, -0.1083 -0.766 0.004, -0.1083 -0.6785 0.2165, 0.1043 -0.6785 0.2165, 0.1043 -0.7769 0.1181, -0.1083 -0.7769 0.2165, -0.1083 -0.7769 0.1181, 0.1043 -0.7769 0.2165, 0.1043 -0.7795 0.1083, -0.1083 -0.7867 0.1011, 0.1043 -0.7867 0.1011, -0.1083 -0.7795 0.1083, 0.1043 -0.7756 0.2165, -0.1083 -0.7756 0.2165, 0.1043 1.2795 0.0984, 0.0993 1.3138 0.0984, 0.0845 1.3451 0.0984, 0.0613 1.3707 0.0984, 0.0316 1.3886 0.0984, 0.1043 0.7966 0.0984, -0.002 1.397 0.0984, -0.0355 1.3886 0.0984, -0.1083 0.7966 0.0984, -0.0884 1.3451 0.0984, -0.1032 1.3138 0.0984, -0.1083 1.2795 0.0984, -0.0652 1.3707 0.0984, 0.1043 0.7867 0.1011, 0.1043 0.7769 0.1181, -0.1083 0.7795 0.1083, -0.1083 0.7769 0.1181, 0.1043 0.7795 0.1083, -0.1083 0.7867 0.1011, -0.1083 0.7769 0.2165, 0.1043 0.7769 0.2165, 0.1043 0.6785 0.1181, -0.1083 0.6785 0.2165, -0.1083 0.6785 0.1181, 0.1043 0.6785 0.2165, -0.1083 0.7131 0.0346, -0.1083 0.7375 0.0158, 0.1043 0.7131 0.0346, 0.1043 0.7375 0.0158, -0.1083 0.766 0.004, -0.1083 0.7966 0.0, 0.1043 0.766 0.004, 0.1043 0.7966 0.0, 0.1043 0.6943 0.0591, 0.1043 0.6825 0.0875, -0.1083 0.6943 0.0591, -0.1083 0.6825 0.0875, 0.1043 1.2795 0.0, 0.0316 1.3886 0.0, 0.0613 1.3707 0.0, 0.0845 1.3451 0.0, 0.0993 1.3138 0.0, -0.002 1.397 0.0, -0.1083 1.2795 0.0, -0.0355 1.3886 0.0, -0.0884 1.3451 0.0, -0.0652 1.3707 0.0, -0.1032 1.3138 0.0, 0.1043 0.7756 0.2165, -0.1083 0.7756 0.2165, -0.8957 1.2795 0.0984, -0.9007 1.3138 0.0984, -0.9155 1.3451 0.0984, -0.9387 1.3707 0.0984, -0.9684 1.3886 0.0984, -0.8957 0.7966 0.0984, -1.002 1.397 0.0984, -1.0355 1.3886 0.0984, -1.1083 0.7966 0.0984, -1.0884 1.3451 0.0984, -1.1032 1.3138 0.0984, -1.1083 1.2795 0.0984, -1.0652 1.3707 0.0984, -0.8957 0.7867 0.1011, -0.8957 0.7769 0.1181, -1.1083 0.7795 0.1083, -1.1083 0.7769 0.1181, -0.8957 0.7795 0.1083, -1.1083 0.7867 0.1011, -1.1083 0.7769 0.2165, -0.8957 0.7769 0.2165, -0.8957 0.6785 0.1181, -1.1083 0.6785 0.2165, -1.1083 0.6785 0.1181, -0.8957 0.6785 0.2165, -1.1083 0.7131 0.0346, -1.1083 0.7375 0.0158, -0.8957 0.7131 0.0346, -0.8957 0.7375 0.0158, -1.1083 0.766 0.004, -1.1083 0.7966 0.0, -0.8957 0.766 0.004, -0.8957 0.7966 0.0, -0.8957 0.6943 0.0591, -0.8957 0.6825 0.0875, -1.1083 0.6943 0.0591, -1.1083 0.6825 0.0875, -0.8957 1.2795 0.0, -0.9684 1.3886 0.0, -0.9387 1.3707 0.0, -0.9155 1.3451 0.0, -0.9007 1.3138 0.0, -1.002 1.397 0.0, -1.1083 1.2795 0.0, -1.0355 1.3886 0.0, -1.0884 1.3451 0.0, -1.0652 1.3707 0.0, -1.1032 1.3138 0.0, -0.8957 0.7756 0.2165, -1.1083 0.7756 0.2165, 1.1043 1.2795 0.0984, 1.0993 1.3138 0.0984, 1.0845 1.3451 0.0984, 1.0613 1.3707 0.0984, 1.0316 1.3886 0.0984, 1.1043 0.7966 0.0984, 0.998 1.397 0.0984, 0.9645 1.3886 0.0984, 0.8917 0.7966 0.0984, 0.9116 1.3451 0.0984, 0.8968 1.3138 0.0984, 0.8917 1.2795 0.0984, 0.9348 1.3707 0.0984, 1.1043 0.7867 0.1011, 1.1043 0.7769 0.1181, 0.8917 0.7795 0.1083, 0.8917 0.7769 0.1181, 1.1043 0.7795 0.1083, 0.8917 0.7867 0.1011, 0.8917 0.7769 0.2165, 1.1043 0.7769 0.2165, 1.1043 0.6785 0.1181, 0.8917 0.6785 0.2165, 0.8917 0.6785 0.1181, 1.1043 0.6785 0.2165, 0.8917 0.7131 0.0346, 0.8917 0.7375 0.0158, 1.1043 0.7131 0.0346, 1.1043 0.7375 0.0158, 0.8917 0.766 0.004, 0.8917 0.7966 0.0, 1.1043 0.766 0.004, 1.1043 0.7966 0.0, 1.1043 0.6943 0.0591, 1.1043 0.6825 0.0875, 0.8917 0.6943 0.0591, 0.8917 0.6825 0.0875, 1.1043 1.2795 0.0, 1.0316 1.3886 0.0, 1.0613 1.3707 0.0, 1.0845 1.3451 0.0, 1.0993 1.3138 0.0, 0.998 1.397 0.0, 0.8917 1.2795 0.0, 0.9645 1.3886 0.0, 0.9116 1.3451 0.0, 0.9348 1.3707 0.0, 0.8968 1.3138 0.0, 1.1043 0.7756 0.2165, 0.8917 0.7756 0.2165, -0.8957 -1.2795 0.0984, -0.9155 -1.3451 0.0984, -0.9007 -1.3138 0.0984, -0.8957 -0.7966 0.0984, -0.9684 -1.3886 0.0984, -0.9387 -1.3707 0.0984, -1.002 -1.397 0.0984, -1.1083 -0.7966 0.0984, -1.1083 -1.2795 0.0984, -1.0355 -1.3886 0.0984, -1.0884 -1.3451 0.0984, -1.0652 -1.3707 0.0984, -1.1032 -1.3138 0.0984, -0.9155 -1.3451 0.0, -0.9387 -1.3707 0.0, -0.8957 -1.2795 0.0, -0.9007 -1.3138 0.0, -0.9684 -1.3886 0.0, -0.8957 -0.7966 0.0, -1.002 -1.397 0.0, -1.0884 -1.3451 0.0, -1.1083 -1.2795 0.0, -1.0652 -1.3707 0.0, -1.0355 -1.3886 0.0, -1.1083 -0.7966 0.0, -1.1032 -1.3138 0.0, -1.1083 -0.7131 0.0346, -1.1083 -0.6943 0.0591, -0.8957 -0.7131 0.0346, -0.8957 -0.6943 0.0591, -1.1083 -0.6825 0.0875, -1.1083 -0.6785 0.1181, -0.8957 -0.6825 0.0875, -0.8957 -0.6785 0.1181, -0.8957 -0.7375 0.0158, -0.8957 -0.766 0.004, -1.1083 -0.7375 0.0158, -1.1083 -0.766 0.004, -1.1083 -0.6785 0.2165, -0.8957 -0.6785 0.2165, -0.8957 -0.7769 0.1181, -1.1083 -0.7769 0.2165, -1.1083 -0.7769 0.1181, -0.8957 -0.7769 0.2165, -0.8957 -0.7795 0.1083, -1.1083 -0.7867 0.1011, -0.8957 -0.7867 0.1011, -1.1083 -0.7795 0.1083, -0.8957 -0.7756 0.2165, -1.1083 -0.7756 0.2165, 1.1043 -1.2795 0.0984, 1.0845 -1.3451 0.0984, 1.0993 -1.3138 0.0984, 1.1043 -0.7966 0.0984, 1.0316 -1.3886 0.0984, 1.0613 -1.3707 0.0984, 0.998 -1.397 0.0984, 0.8917 -0.7966 0.0984, 0.8917 -1.2795 0.0984, 0.9645 -1.3886 0.0984, 0.9116 -1.3451 0.0984, 0.9348 -1.3707 0.0984, 0.8968 -1.3138 0.0984, 1.0845 -1.3451 0.0, 1.0613 -1.3707 0.0, 1.1043 -1.2795 0.0, 1.0993 -1.3138 0.0, 1.0316 -1.3886 0.0, 1.1043 -0.7966 0.0, 0.998 -1.397 0.0, 0.9116 -1.3451 0.0, 0.8917 -1.2795 0.0, 0.9348 -1.3707 0.0, 0.9645 -1.3886 0.0, 0.8917 -0.7966 0.0, 0.8968 -1.3138 0.0, 0.8917 -0.7131 0.0346, 0.8917 -0.6943 0.0591, 1.1043 -0.7131 0.0346, 1.1043 -0.6943 0.0591, 0.8917 -0.6825 0.0875, 0.8917 -0.6785 0.1181, 1.1043 -0.6825 0.0875, 1.1043 -0.6785 0.1181, 1.1043 -0.7375 0.0158, 1.1043 -0.766 0.004, 0.8917 -0.7375 0.0158, 0.8917 -0.766 0.004, 0.8917 -0.6785 0.2165, 1.1043 -0.6785 0.2165, 1.1043 -0.7769 0.1181, 0.8917 -0.7769 0.2165, 0.8917 -0.7769 0.1181, 1.1043 -0.7769 0.2165, 1.1043 -0.7795 0.1083, 0.8917 -0.7867 0.1011, 1.1043 -0.7867 0.1011, 0.8917 -0.7795 0.1083, 1.1043 -0.7756 0.2165, 0.8917 -0.7756 0.2165, 1.2736 0.6391 3.3661, 1.2736 0.3031 3.3661, 1.2736 0.3031 0.2165, 1.2736 0.6391 0.2165, 1.1752 0.3031 3.3661, 1.1752 0.3031 0.2165, 1.1752 0.6391 3.3661, 1.1752 0.6391 0.2165, 1.1699 0.6588 0.2165, 1.1358 0.6785 0.2165, 1.1555 0.6732 3.3661, 1.1358 0.6785 3.3661, 1.1555 0.6732 0.2165, 1.1699 0.6588 3.3661, 0.8602 0.6785 0.2165, 0.8602 0.6785 3.3661, 0.8406 0.6732 0.2165, 0.8209 0.6391 0.2165, 0.8261 0.6588 3.3661, 0.8209 0.6391 3.3661, 0.8261 0.6588 0.2165, 0.8406 0.6732 3.3661, 0.8209 0.3031 3.3661, 0.8209 0.3031 0.2165, 0.7224 0.3031 3.3661, 0.7224 0.3031 0.2165, 0.7224 0.6391 3.3661, 0.7224 0.6391 0.2165, 0.7628 0.7365 3.3661, 0.7913 0.7584 3.3661, 0.7628 0.7365 0.2165, 0.7913 0.7584 0.2165, 0.8246 0.7722 3.3661, 0.8602 0.7769 3.3661, 0.8246 0.7722 0.2165, 0.8602 0.7769 0.2165, 0.7409 0.708 0.2165, 0.7271 0.6748 0.2165, 0.7409 0.708 3.3661, 0.7271 0.6748 3.3661, 1.1358 0.7769 3.3661, 1.1358 0.7769 0.2165, 1.2333 0.7365 3.3661, 1.2552 0.708 3.3661, 1.2333 0.7365 0.2165, 1.2552 0.708 0.2165, 1.2689 0.6748 3.3661, 1.2689 0.6748 0.2165, 1.2047 0.7584 0.2165, 1.1715 0.7722 0.2165, 1.2047 0.7584 3.3661, 1.1715 0.7722 3.3661, 0.2736 0.6391 3.3661, 0.2736 0.3031 3.3661, 0.2736 0.3031 0.2165, 0.2736 0.6391 0.2165, 0.1752 0.3031 3.3661, 0.1752 0.3031 0.2165, 0.1752 0.6391 3.3661, 0.1752 0.6391 0.2165, 0.1699 0.6588 0.2165, 0.1358 0.6785 0.2165, 0.1555 0.6732 3.3661, 0.1358 0.6785 3.3661, 0.1555 0.6732 0.2165, 0.1699 0.6588 3.3661, -0.1398 0.6785 0.2165, -0.1398 0.6785 3.3661, -0.1594 0.6732 0.2165, -0.1791 0.6391 0.2165, -0.1739 0.6588 3.3661, -0.1791 0.6391 3.3661, -0.1739 0.6588 0.2165, -0.1594 0.6732 3.3661, -0.1791 0.3031 3.3661, -0.1791 0.3031 0.2165, -0.2776 0.3031 3.3661, -0.2776 0.3031 0.2165, -0.2776 0.6391 3.3661, -0.2776 0.6391 0.2165, -0.2372 0.7365 3.3661, -0.2087 0.7584 3.3661, -0.2372 0.7365 0.2165, -0.2087 0.7584 0.2165, -0.1754 0.7722 3.3661, -0.1398 0.7769 3.3661, -0.1754 0.7722 0.2165, -0.1398 0.7769 0.2165, -0.2591 0.708 0.2165, -0.2729 0.6748 0.2165, -0.2591 0.708 3.3661, -0.2729 0.6748 3.3661, 0.1358 0.7769 3.3661, 0.1358 0.7769 0.2165, 0.2333 0.7365 3.3661, 0.2552 0.708 3.3661, 0.2333 0.7365 0.2165, 0.2552 0.708 0.2165, 0.2689 0.6748 3.3661, 0.2689 0.6748 0.2165, 0.2047 0.7584 0.2165, 0.1715 0.7722 0.2165, 0.2047 0.7584 3.3661, 0.1715 0.7722 3.3661, -0.7264 0.6391 3.3661, -0.7264 0.3031 3.3661, -0.7264 0.3031 0.2165, -0.7264 0.6391 0.2165, -0.8248 0.3031 3.3661, -0.8248 0.3031 0.2165, -0.8248 0.6391 3.3661, -0.8248 0.6391 0.2165, -0.8301 0.6588 0.2165, -0.8642 0.6785 0.2165, -0.8445 0.6732 3.3661, -0.8642 0.6785 3.3661, -0.8445 0.6732 0.2165, -0.8301 0.6588 3.3661, -1.1398 0.6785 0.2165, -1.1398 0.6785 3.3661, -1.1594 0.6732 0.2165, -1.1791 0.6391 0.2165, -1.1739 0.6588 3.3661, -1.1791 0.6391 3.3661, -1.1739 0.6588 0.2165, -1.1594 0.6732 3.3661, -1.1791 0.3031 3.3661, -1.1791 0.3031 0.2165, -1.2776 0.3031 3.3661, -1.2776 0.3031 0.2165, -1.2776 0.6391 3.3661, -1.2776 0.6391 0.2165, -1.2372 0.7365 3.3661, -1.2087 0.7584 3.3661, -1.2372 0.7365 0.2165, -1.2087 0.7584 0.2165, -1.1754 0.7722 3.3661, -1.1398 0.7769 3.3661, -1.1754 0.7722 0.2165, -1.1398 0.7769 0.2165, -1.2591 0.708 0.2165, -1.2729 0.6748 0.2165, -1.2591 0.708 3.3661, -1.2729 0.6748 3.3661, -0.8642 0.7769 3.3661, -0.8642 0.7769 0.2165, -0.7667 0.7365 3.3661, -0.7448 0.708 3.3661, -0.7667 0.7365 0.2165, -0.7448 0.708 0.2165, -0.7311 0.6748 3.3661, -0.7311 0.6748 0.2165, -0.7953 0.7584 0.2165, -0.8285 0.7722 0.2165, -0.7953 0.7584 3.3661, -0.8285 0.7722 3.3661, 1.2736 -0.3031 3.3661, 1.2736 -0.6391 0.2165, 1.2736 -0.3031 0.2165, 1.2736 -0.6391 3.3661, 1.1752 -0.3031 0.2165, 1.1752 -0.3031 3.3661, 1.1752 -0.6391 0.2165, 1.1752 -0.6391 3.3661, 1.1555 -0.6732 0.2165, 1.1358 -0.6785 0.2165, 1.1358 -0.6785 3.3661, 1.1699 -0.6588 3.3661, 1.1699 -0.6588 0.2165, 1.1555 -0.6732 3.3661, 0.8602 -0.6785 3.3661, 0.8602 -0.6785 0.2165, 0.8261 -0.6588 0.2165, 0.8209 -0.6391 0.2165, 0.8209 -0.6391 3.3661, 0.8406 -0.6732 3.3661, 0.8406 -0.6732 0.2165, 0.8261 -0.6588 3.3661, 0.8209 -0.3031 0.2165, 0.8209 -0.3031 3.3661, 0.7224 -0.3031 0.2165, 0.7224 -0.3031 3.3661, 0.7224 -0.6391 3.3661, 0.7224 -0.6391 0.2165, 0.7628 -0.7365 3.3661, 0.7409 -0.708 3.3661, 0.7628 -0.7365 0.2165, 0.7409 -0.708 0.2165, 0.7271 -0.6748 3.3661, 0.7271 -0.6748 0.2165, 0.7913 -0.7584 0.2165, 0.8246 -0.7722 0.2165, 0.7913 -0.7584 3.3661, 0.8246 -0.7722 3.3661, 0.8602 -0.7769 0.2165, 0.8602 -0.7769 3.3661, 1.1358 -0.7769 0.2165, 1.1358 -0.7769 3.3661, 1.2333 -0.7365 3.3661, 1.2047 -0.7584 3.3661, 1.2333 -0.7365 0.2165, 1.2047 -0.7584 0.2165, 1.1715 -0.7722 3.3661, 1.1715 -0.7722 0.2165, 1.2552 -0.708 0.2165, 1.2689 -0.6748 0.2165, 1.2552 -0.708 3.3661, 1.2689 -0.6748 3.3661, 0.2736 -0.3031 3.3661, 0.2736 -0.6391 0.2165, 0.2736 -0.3031 0.2165, 0.2736 -0.6391 3.3661, 0.1752 -0.3031 0.2165, 0.1752 -0.3031 3.3661, 0.1752 -0.6391 0.2165, 0.1752 -0.6391 3.3661, 0.1555 -0.6732 0.2165, 0.1358 -0.6785 0.2165, 0.1358 -0.6785 3.3661, 0.1699 -0.6588 3.3661, 0.1699 -0.6588 0.2165, 0.1555 -0.6732 3.3661, -0.1398 -0.6785 3.3661, -0.1398 -0.6785 0.2165, -0.1739 -0.6588 0.2165, -0.1791 -0.6391 0.2165, -0.1791 -0.6391 3.3661, -0.1594 -0.6732 3.3661, -0.1594 -0.6732 0.2165, -0.1739 -0.6588 3.3661, -0.1791 -0.3031 0.2165, -0.1791 -0.3031 3.3661, -0.2776 -0.3031 0.2165, -0.2776 -0.3031 3.3661, -0.2776 -0.6391 3.3661, -0.2776 -0.6391 0.2165, -0.2372 -0.7365 3.3661, -0.2591 -0.708 3.3661, -0.2372 -0.7365 0.2165, -0.2591 -0.708 0.2165, -0.2729 -0.6748 3.3661, -0.2729 -0.6748 0.2165, -0.2087 -0.7584 0.2165, -0.1754 -0.7722 0.2165, -0.2087 -0.7584 3.3661, -0.1754 -0.7722 3.3661, -0.1398 -0.7769 0.2165, -0.1398 -0.7769 3.3661, 0.1358 -0.7769 0.2165, 0.1358 -0.7769 3.3661, 0.2333 -0.7365 3.3661, 0.2047 -0.7584 3.3661, 0.2333 -0.7365 0.2165, 0.2047 -0.7584 0.2165, 0.1715 -0.7722 3.3661, 0.1715 -0.7722 0.2165, 0.2552 -0.708 0.2165, 0.2689 -0.6748 0.2165, 0.2552 -0.708 3.3661, 0.2689 -0.6748 3.3661, -0.7264 -0.3031 3.3661, -0.7264 -0.6391 0.2165, -0.7264 -0.3031 0.2165, -0.7264 -0.6391 3.3661, -0.8248 -0.3031 0.2165, -0.8248 -0.3031 3.3661, -0.8248 -0.6391 0.2165, -0.8248 -0.6391 3.3661, -0.8445 -0.6732 0.2165, -0.8642 -0.6785 0.2165, -0.8642 -0.6785 3.3661, -0.8301 -0.6588 3.3661, -0.8301 -0.6588 0.2165, -0.8445 -0.6732 3.3661, -1.1398 -0.6785 3.3661, -1.1398 -0.6785 0.2165, -1.1739 -0.6588 0.2165, -1.1791 -0.6391 0.2165, -1.1791 -0.6391 3.3661, -1.1594 -0.6732 3.3661, -1.1594 -0.6732 0.2165, -1.1739 -0.6588 3.3661, -1.1791 -0.3031 0.2165, -1.1791 -0.3031 3.3661, -1.2776 -0.3031 0.2165, -1.2776 -0.3031 3.3661, -1.2776 -0.6391 3.3661, -1.2776 -0.6391 0.2165, -1.2372 -0.7365 3.3661, -1.2591 -0.708 3.3661, -1.2372 -0.7365 0.2165, -1.2591 -0.708 0.2165, -1.2729 -0.6748 3.3661, -1.2729 -0.6748 0.2165, -1.2087 -0.7584 0.2165, -1.1754 -0.7722 0.2165, -1.2087 -0.7584 3.3661, -1.1754 -0.7722 3.3661, -1.1398 -0.7769 0.2165, -1.1398 -0.7769 3.3661, -0.8642 -0.7769 0.2165, -0.8642 -0.7769 3.3661, -0.7667 -0.7365 3.3661, -0.7953 -0.7584 3.3661, -0.7667 -0.7365 0.2165, -0.7953 -0.7584 0.2165, -0.8285 -0.7722 3.3661, -0.8285 -0.7722 0.2165, -0.7448 -0.708 0.2165, -0.7311 -0.6748 0.2165, -0.7448 -0.708 3.3661, -0.7311 -0.6748 3.3661
            ]
        }
        coordIndex [
            0,1,2,-1,0,3,4,-1,0,4,5,-1,3,6,4,-1,1,0,5,-1,6,3,7,-1,8,9,7,-1,6,7,9,-1,10,11,8,-1,8,11,9,-1,8,12,10,-1,13,14,15,-1,15,16,13,-1,15,17,18,-1,17,15,14,-1,17,19,18,-1,20,21,22,-1,23,24,19,-1,23,22,21,-1,25,21,20,-1,24,23,21,-1,18,19,24,-1,26,27,28,-1,29,27,30,-1,27,29,28,-1,31,32,30,-1,29,30,32,-1,33,32,31,-1,34,26,28,-1,34,35,36,-1,36,26,34,-1,37,35,18,-1,35,37,36,-1,37,18,24,-1,33,38,39,-1,38,33,31,-1,40,41,42,-1,40,43,41,-1,44,40,42,-1,3,45,7,-1,46,47,45,-1,44,47,46,-1,3,46,45,-1,42,47,44,-1,32,46,3,-1,44,46,32,-1,18,0,15,-1,44,32,33,-1,0,18,3,-1,48,40,33,-1,40,48,43,-1,39,48,33,-1,29,32,3,-1,40,44,33,-1,28,18,34,-1,29,3,28,-1,34,18,35,-1,18,28,3,-1,24,8,7,-1,8,24,21,-1,45,30,7,-1,49,31,42,-1,31,30,47,-1,47,42,31,-1,42,41,49,-1,38,31,49,-1,30,27,7,-1,45,47,30,-1,24,7,26,-1,27,26,7,-1,37,24,36,-1,24,26,36,-1,25,8,21,-1,23,11,22,-1,20,10,12,-1,19,6,9,-1,9,23,19,-1,11,10,22,-1,9,11,23,-1,20,12,25,-1,22,10,20,-1,8,25,12,-1,5,13,1,-1,2,1,16,-1,13,16,1,-1,15,0,2,-1,2,16,15,-1,13,5,14,-1,14,4,17,-1,4,14,5,-1,4,6,17,-1,17,6,19,-1,50,51,52,-1,53,54,50,-1,53,50,52,-1,55,54,56,-1,54,55,50,-1,57,58,56,-1,59,60,61,-1,61,62,59,-1,62,61,57,-1,61,58,57,-1,58,55,56,-1,63,55,58,-1,64,65,66,-1,67,68,65,-1,63,68,67,-1,64,67,65,-1,58,68,63,-1,64,69,70,-1,69,64,66,-1,71,72,73,-1,71,74,72,-1,75,76,77,-1,78,76,79,-1,76,78,77,-1,80,81,79,-1,78,79,81,-1,82,81,80,-1,83,75,77,-1,83,84,85,-1,85,75,83,-1,86,84,71,-1,84,86,85,-1,86,71,73,-1,87,88,89,-1,82,88,87,-1,87,89,90,-1,87,90,91,-1,82,80,92,-1,88,82,92,-1,93,94,80,-1,92,80,94,-1,95,96,93,-1,93,96,94,-1,93,97,95,-1,82,78,81,-1,55,82,87,-1,77,78,82,-1,71,84,67,-1,63,67,84,-1,64,71,67,-1,98,74,64,-1,64,70,98,-1,55,63,84,-1,64,74,71,-1,83,77,55,-1,83,55,84,-1,55,87,50,-1,55,77,82,-1,80,79,76,-1,58,61,93,-1,66,72,99,-1,66,99,69,-1,75,80,76,-1,58,93,80,-1,80,75,58,-1,86,58,85,-1,58,75,85,-1,73,66,65,-1,66,73,72,-1,68,86,65,-1,73,65,86,-1,58,86,68,-1,96,62,57,-1,56,92,94,-1,60,97,93,-1,97,59,95,-1,97,60,59,-1,60,93,61,-1,96,95,62,-1,62,95,59,-1,94,57,56,-1,96,57,94,-1,88,53,89,-1,53,52,89,-1,88,92,54,-1,54,53,88,-1,92,56,54,-1,90,89,52,-1,90,51,91,-1,51,90,52,-1,51,50,91,-1,91,50,87,-1,100,101,102,-1,103,104,100,-1,103,100,102,-1,105,104,106,-1,104,105,100,-1,107,108,106,-1,109,110,111,-1,111,112,109,-1,112,111,107,-1,111,108,107,-1,108,105,106,-1,113,105,108,-1,114,115,116,-1,117,118,115,-1,113,118,117,-1,114,117,115,-1,108,118,113,-1,114,119,120,-1,119,114,116,-1,121,122,123,-1,121,124,122,-1,125,126,127,-1,128,126,129,-1,126,128,127,-1,130,131,129,-1,128,129,131,-1,132,131,130,-1,133,125,127,-1,133,134,135,-1,135,125,133,-1,136,134,121,-1,134,136,135,-1,136,121,123,-1,137,138,139,-1,132,138,137,-1,137,139,140,-1,137,140,141,-1,132,130,142,-1,138,132,142,-1,143,144,130,-1,142,130,144,-1,145,146,143,-1,143,146,144,-1,143,147,145,-1,132,128,131,-1,105,132,137,-1,127,128,132,-1,121,134,117,-1,113,117,134,-1,114,121,117,-1,148,124,114,-1,114,120,148,-1,105,113,134,-1,114,124,121,-1,133,127,105,-1,133,105,134,-1,105,137,100,-1,105,127,132,-1,130,129,126,-1,108,111,143,-1,116,122,149,-1,116,149,119,-1,125,130,126,-1,108,143,130,-1,130,125,108,-1,136,108,135,-1,108,125,135,-1,123,116,115,-1,116,123,122,-1,118,136,115,-1,123,115,136,-1,108,136,118,-1,146,112,107,-1,106,142,144,-1,110,147,143,-1,147,109,145,-1,109,112,145,-1,110,143,111,-1,110,109,147,-1,146,107,144,-1,145,112,146,-1,106,144,107,-1,103,102,139,-1,138,142,104,-1,103,139,138,-1,106,104,142,-1,104,103,138,-1,102,140,139,-1,140,101,141,-1,101,140,102,-1,101,100,141,-1,141,100,137,-1,150,151,152,-1,153,154,150,-1,153,150,152,-1,155,154,156,-1,154,155,150,-1,157,158,156,-1,159,160,161,-1,161,162,159,-1,162,161,157,-1,161,158,157,-1,158,155,156,-1,163,155,158,-1,164,165,166,-1,167,168,165,-1,163,168,167,-1,164,167,165,-1,158,168,163,-1,164,169,170,-1,169,164,166,-1,171,172,173,-1,171,174,172,-1,175,176,177,-1,178,176,179,-1,176,178,177,-1,180,181,179,-1,178,179,181,-1,182,181,180,-1,183,175,177,-1,183,184,185,-1,185,175,183,-1,186,184,171,-1,184,186,185,-1,186,171,173,-1,187,188,189,-1,182,188,187,-1,187,189,190,-1,187,190,191,-1,182,180,192,-1,188,182,192,-1,193,194,180,-1,192,180,194,-1,195,196,193,-1,193,196,194,-1,193,197,195,-1,182,178,181,-1,155,182,187,-1,177,178,182,-1,171,184,167,-1,163,167,184,-1,164,171,167,-1,198,174,164,-1,164,170,198,-1,155,163,184,-1,164,174,171,-1,183,177,155,-1,183,155,184,-1,155,187,150,-1,155,177,182,-1,180,179,176,-1,158,161,193,-1,166,172,199,-1,166,199,169,-1,175,180,176,-1,158,193,180,-1,180,175,158,-1,186,158,185,-1,158,175,185,-1,173,166,165,-1,166,173,172,-1,168,186,165,-1,173,165,186,-1,158,186,168,-1,196,162,157,-1,156,192,194,-1,160,197,193,-1,197,159,195,-1,197,160,159,-1,160,193,161,-1,196,195,162,-1,162,195,159,-1,194,157,156,-1,196,157,194,-1,153,152,189,-1,188,192,154,-1,153,189,188,-1,156,154,192,-1,154,153,188,-1,152,190,189,-1,190,151,191,-1,151,190,152,-1,151,150,191,-1,191,150,187,-1,200,201,202,-1,200,203,204,-1,200,204,205,-1,203,206,204,-1,201,200,205,-1,206,203,207,-1,208,209,207,-1,206,207,209,-1,210,211,208,-1,208,211,209,-1,208,212,210,-1,213,214,215,-1,215,216,213,-1,215,217,218,-1,217,215,214,-1,217,219,218,-1,220,221,222,-1,223,224,219,-1,223,222,221,-1,225,221,220,-1,224,223,221,-1,218,219,224,-1,226,227,228,-1,229,227,230,-1,227,229,228,-1,231,232,230,-1,229,230,232,-1,233,232,231,-1,234,226,228,-1,234,235,236,-1,236,226,234,-1,237,235,218,-1,235,237,236,-1,237,218,224,-1,233,238,239,-1,238,233,231,-1,240,241,242,-1,240,243,241,-1,244,240,242,-1,203,245,207,-1,246,247,245,-1,244,247,246,-1,203,246,245,-1,242,247,244,-1,232,246,203,-1,244,246,232,-1,218,200,215,-1,244,232,233,-1,200,218,203,-1,248,240,233,-1,240,248,243,-1,239,248,233,-1,229,232,203,-1,240,244,233,-1,228,218,234,-1,229,203,228,-1,234,218,235,-1,218,228,203,-1,224,208,207,-1,208,224,221,-1,245,230,207,-1,249,231,242,-1,231,230,247,-1,247,242,231,-1,242,241,249,-1,238,231,249,-1,230,227,207,-1,245,247,230,-1,224,207,226,-1,227,226,207,-1,237,224,236,-1,224,226,236,-1,250,251,252,-1,250,253,254,-1,250,254,255,-1,253,256,254,-1,251,250,255,-1,256,253,257,-1,258,259,257,-1,256,257,259,-1,260,261,258,-1,258,261,259,-1,258,262,260,-1,263,264,265,-1,265,266,263,-1,265,267,268,-1,267,265,264,-1,267,269,268,-1,270,271,272,-1,273,274,269,-1,273,272,271,-1,275,271,270,-1,274,273,271,-1,268,269,274,-1,276,277,278,-1,279,277,280,-1,277,279,278,-1,281,282,280,-1,279,280,282,-1,283,282,281,-1,284,276,278,-1,284,285,286,-1,286,276,284,-1,287,285,268,-1,285,287,286,-1,287,268,274,-1,283,288,289,-1,288,283,281,-1,290,291,292,-1,290,293,291,-1,294,290,292,-1,253,295,257,-1,296,297,295,-1,294,297,296,-1,253,296,295,-1,292,297,294,-1,282,296,253,-1,294,296,282,-1,268,250,265,-1,294,282,283,-1,250,268,253,-1,298,290,283,-1,290,298,293,-1,289,298,283,-1,279,282,253,-1,290,294,283,-1,278,268,284,-1,279,253,278,-1,284,268,285,-1,268,278,253,-1,274,258,257,-1,258,274,271,-1,295,280,257,-1,299,281,292,-1,281,280,297,-1,297,292,281,-1,292,291,299,-1,288,281,299,-1,280,277,257,-1,295,297,280,-1,274,257,276,-1,277,276,257,-1,287,274,286,-1,274,276,286,-1,225,208,221,-1,223,211,222,-1,220,210,212,-1,219,206,209,-1,209,223,219,-1,211,210,222,-1,209,211,223,-1,220,212,225,-1,222,210,220,-1,208,225,212,-1,205,213,201,-1,202,201,216,-1,213,216,201,-1,215,200,202,-1,202,216,215,-1,213,205,214,-1,214,204,217,-1,204,214,205,-1,204,206,217,-1,217,206,219,-1,275,258,271,-1,273,261,272,-1,270,260,262,-1,269,256,259,-1,259,273,269,-1,261,260,272,-1,259,261,273,-1,270,262,275,-1,272,260,270,-1,258,275,262,-1,255,263,251,-1,252,251,266,-1,263,266,251,-1,265,250,252,-1,252,266,265,-1,263,255,264,-1,264,254,267,-1,254,264,255,-1,254,256,267,-1,267,256,269,-1,300,301,302,-1,302,303,300,-1,304,305,302,-1,304,302,301,-1,306,307,305,-1,306,305,304,-1,308,307,306,-1,309,310,311,-1,312,313,310,-1,308,313,312,-1,309,312,310,-1,306,313,308,-1,311,314,309,-1,314,311,315,-1,316,314,315,-1,317,318,319,-1,320,321,318,-1,316,321,320,-1,317,320,318,-1,315,321,316,-1,322,323,317,-1,322,317,319,-1,324,325,323,-1,324,323,322,-1,324,326,327,-1,327,325,324,-1,328,329,330,-1,331,329,332,-1,329,331,330,-1,333,334,332,-1,331,332,334,-1,335,334,333,-1,336,328,330,-1,336,337,338,-1,338,328,336,-1,339,337,327,-1,337,339,338,-1,339,327,326,-1,340,341,335,-1,335,333,340,-1,342,343,344,-1,345,343,346,-1,343,345,344,-1,300,347,346,-1,345,346,347,-1,303,347,300,-1,348,342,344,-1,348,349,350,-1,350,342,348,-1,351,349,341,-1,349,351,350,-1,351,341,340,-1,303,305,307,-1,305,303,302,-1,308,347,307,-1,327,317,325,-1,341,309,314,-1,349,348,312,-1,335,341,314,-1,330,331,316,-1,317,337,320,-1,320,336,316,-1,337,317,327,-1,317,323,325,-1,336,330,316,-1,337,336,320,-1,334,316,331,-1,314,334,335,-1,334,314,316,-1,349,309,341,-1,344,312,348,-1,349,312,309,-1,312,345,308,-1,345,312,344,-1,307,347,303,-1,345,347,308,-1,300,306,304,-1,350,310,342,-1,319,326,324,-1,351,310,350,-1,351,311,310,-1,315,340,333,-1,342,310,343,-1,328,321,329,-1,319,318,339,-1,318,321,338,-1,339,326,319,-1,319,324,322,-1,338,321,328,-1,339,318,338,-1,332,329,321,-1,315,333,332,-1,332,321,315,-1,340,315,311,-1,310,313,343,-1,340,311,351,-1,346,343,313,-1,306,300,346,-1,346,313,306,-1,300,304,301,-1,352,353,354,-1,354,355,352,-1,356,357,354,-1,356,354,353,-1,358,359,357,-1,358,357,356,-1,360,359,358,-1,361,362,363,-1,364,365,362,-1,360,365,364,-1,361,364,362,-1,358,365,360,-1,363,366,361,-1,366,363,367,-1,368,366,367,-1,369,370,371,-1,372,373,370,-1,368,373,372,-1,369,372,370,-1,367,373,368,-1,374,375,369,-1,374,369,371,-1,376,377,375,-1,376,375,374,-1,376,378,379,-1,379,377,376,-1,380,381,382,-1,383,381,384,-1,381,383,382,-1,385,386,384,-1,383,384,386,-1,387,386,385,-1,388,380,382,-1,388,389,390,-1,390,380,388,-1,391,389,379,-1,389,391,390,-1,391,379,378,-1,392,393,387,-1,387,385,392,-1,394,395,396,-1,397,395,398,-1,395,397,396,-1,352,399,398,-1,397,398,399,-1,355,399,352,-1,400,394,396,-1,400,401,402,-1,402,394,400,-1,403,401,393,-1,401,403,402,-1,403,393,392,-1,355,357,359,-1,357,355,354,-1,360,399,359,-1,379,369,377,-1,393,361,366,-1,401,400,364,-1,387,393,366,-1,382,383,368,-1,369,389,372,-1,372,388,368,-1,389,369,379,-1,369,375,377,-1,388,382,368,-1,389,388,372,-1,386,368,383,-1,366,386,387,-1,386,366,368,-1,401,361,393,-1,396,364,400,-1,401,364,361,-1,364,397,360,-1,397,364,396,-1,359,399,355,-1,397,399,360,-1,352,358,356,-1,402,362,394,-1,371,378,376,-1,403,362,402,-1,403,363,362,-1,367,392,385,-1,394,362,395,-1,380,373,381,-1,371,370,391,-1,370,373,390,-1,391,378,371,-1,371,376,374,-1,390,373,380,-1,391,370,390,-1,384,381,373,-1,367,385,384,-1,384,373,367,-1,392,367,363,-1,362,365,395,-1,392,363,403,-1,398,395,365,-1,358,352,398,-1,398,365,358,-1,352,356,353,-1,404,405,406,-1,406,407,404,-1,408,409,406,-1,408,406,405,-1,410,411,409,-1,410,409,408,-1,412,411,410,-1,413,414,415,-1,416,417,414,-1,412,417,416,-1,413,416,414,-1,410,417,412,-1,415,418,413,-1,418,415,419,-1,420,418,419,-1,421,422,423,-1,424,425,422,-1,420,425,424,-1,421,424,422,-1,419,425,420,-1,426,427,421,-1,426,421,423,-1,428,429,427,-1,428,427,426,-1,428,430,431,-1,431,429,428,-1,432,433,434,-1,435,433,436,-1,433,435,434,-1,437,438,436,-1,435,436,438,-1,439,438,437,-1,440,432,434,-1,440,441,442,-1,442,432,440,-1,443,441,431,-1,441,443,442,-1,443,431,430,-1,444,445,439,-1,439,437,444,-1,446,447,448,-1,449,447,450,-1,447,449,448,-1,404,451,450,-1,449,450,451,-1,407,451,404,-1,452,446,448,-1,452,453,454,-1,454,446,452,-1,455,453,445,-1,453,455,454,-1,455,445,444,-1,407,409,411,-1,409,407,406,-1,412,451,411,-1,431,421,429,-1,445,413,418,-1,453,452,416,-1,439,445,418,-1,434,435,420,-1,421,441,424,-1,424,440,420,-1,441,421,431,-1,421,427,429,-1,440,434,420,-1,441,440,424,-1,438,420,435,-1,418,438,439,-1,438,418,420,-1,453,413,445,-1,448,416,452,-1,453,416,413,-1,416,449,412,-1,449,416,448,-1,411,451,407,-1,449,451,412,-1,404,410,408,-1,454,414,446,-1,423,430,428,-1,455,414,454,-1,455,415,414,-1,419,444,437,-1,446,414,447,-1,432,425,433,-1,423,422,443,-1,422,425,442,-1,443,430,423,-1,423,428,426,-1,442,425,432,-1,443,422,442,-1,436,433,425,-1,419,437,436,-1,436,425,419,-1,444,419,415,-1,414,417,447,-1,444,415,455,-1,450,447,417,-1,410,404,450,-1,450,417,410,-1,404,408,405,-1,456,457,458,-1,456,459,457,-1,460,456,458,-1,456,460,461,-1,462,461,460,-1,461,462,463,-1,464,465,466,-1,462,467,463,-1,468,469,467,-1,464,469,468,-1,462,468,467,-1,466,469,464,-1,470,465,471,-1,465,470,466,-1,472,473,474,-1,471,475,470,-1,476,477,475,-1,472,477,476,-1,471,476,475,-1,474,477,472,-1,478,474,473,-1,474,478,479,-1,480,479,478,-1,479,480,481,-1,482,480,483,-1,482,481,480,-1,484,485,486,-1,487,485,488,-1,485,487,486,-1,482,489,488,-1,487,488,489,-1,483,489,482,-1,490,484,486,-1,490,491,492,-1,492,484,490,-1,493,491,494,-1,491,493,492,-1,493,494,495,-1,495,494,496,-1,496,497,495,-1,498,499,500,-1,501,499,502,-1,499,501,500,-1,497,503,502,-1,501,502,503,-1,496,503,497,-1,504,498,500,-1,504,505,506,-1,506,498,504,-1,507,505,457,-1,505,507,506,-1,507,457,459,-1,503,465,464,-1,464,501,503,-1,503,496,465,-1,464,504,500,-1,501,464,500,-1,491,476,471,-1,487,489,472,-1,476,487,472,-1,486,487,476,-1,473,489,483,-1,473,472,489,-1,483,478,473,-1,476,490,486,-1,483,480,478,-1,468,462,505,-1,490,476,491,-1,491,471,494,-1,471,465,494,-1,494,465,496,-1,504,468,505,-1,464,468,504,-1,505,462,457,-1,457,462,458,-1,458,462,460,-1,502,466,497,-1,461,463,456,-1,499,469,502,-1,466,502,469,-1,498,469,499,-1,498,506,469,-1,470,475,493,-1,475,477,485,-1,484,475,485,-1,474,488,477,-1,485,477,488,-1,492,475,484,-1,474,482,488,-1,481,482,479,-1,482,474,479,-1,463,467,507,-1,492,493,475,-1,493,495,470,-1,470,495,466,-1,495,497,466,-1,506,507,467,-1,469,506,467,-1,507,459,463,-1,456,463,459,-1,508,509,510,-1,508,511,509,-1,512,508,510,-1,508,512,513,-1,514,513,512,-1,513,514,515,-1,516,517,518,-1,514,519,515,-1,520,521,519,-1,516,521,520,-1,514,520,519,-1,518,521,516,-1,522,517,523,-1,517,522,518,-1,524,525,526,-1,523,527,522,-1,528,529,527,-1,524,529,528,-1,523,528,527,-1,526,529,524,-1,530,526,525,-1,526,530,531,-1,532,531,530,-1,531,532,533,-1,534,532,535,-1,534,533,532,-1,536,537,538,-1,539,537,540,-1,537,539,538,-1,534,541,540,-1,539,540,541,-1,535,541,534,-1,542,536,538,-1,542,543,544,-1,544,536,542,-1,545,543,546,-1,543,545,544,-1,545,546,547,-1,547,546,548,-1,548,549,547,-1,550,551,552,-1,553,551,554,-1,551,553,552,-1,549,555,554,-1,553,554,555,-1,548,555,549,-1,556,550,552,-1,556,557,558,-1,558,550,556,-1,559,557,509,-1,557,559,558,-1,559,509,511,-1,555,517,516,-1,516,553,555,-1,555,548,517,-1,516,556,552,-1,553,516,552,-1,543,528,523,-1,539,541,524,-1,528,539,524,-1,538,539,528,-1,525,541,535,-1,525,524,541,-1,535,530,525,-1,528,542,538,-1,535,532,530,-1,520,514,557,-1,542,528,543,-1,543,523,546,-1,523,517,546,-1,546,517,548,-1,556,520,557,-1,516,520,556,-1,557,514,509,-1,509,514,510,-1,510,514,512,-1,554,518,549,-1,513,515,508,-1,551,521,554,-1,518,554,521,-1,550,521,551,-1,550,558,521,-1,522,527,545,-1,527,529,537,-1,536,527,537,-1,526,540,529,-1,537,529,540,-1,544,527,536,-1,526,534,540,-1,533,534,531,-1,534,526,531,-1,515,519,559,-1,544,545,527,-1,545,547,522,-1,522,547,518,-1,547,549,518,-1,558,559,519,-1,521,558,519,-1,559,511,515,-1,508,515,511,-1,560,561,562,-1,560,563,561,-1,564,560,562,-1,560,564,565,-1,566,565,564,-1,565,566,567,-1,568,569,570,-1,566,571,567,-1,572,573,571,-1,568,573,572,-1,566,572,571,-1,570,573,568,-1,574,569,575,-1,569,574,570,-1,576,577,578,-1,575,579,574,-1,580,581,579,-1,576,581,580,-1,575,580,579,-1,578,581,576,-1,582,578,577,-1,578,582,583,-1,584,583,582,-1,583,584,585,-1,586,584,587,-1,586,585,584,-1,588,589,590,-1,591,589,592,-1,589,591,590,-1,586,593,592,-1,591,592,593,-1,587,593,586,-1,594,588,590,-1,594,595,596,-1,596,588,594,-1,597,595,598,-1,595,597,596,-1,597,598,599,-1,599,598,600,-1,600,601,599,-1,602,603,604,-1,605,603,606,-1,603,605,604,-1,601,607,606,-1,605,606,607,-1,600,607,601,-1,608,602,604,-1,608,609,610,-1,610,602,608,-1,611,609,561,-1,609,611,610,-1,611,561,563,-1,607,569,568,-1,568,605,607,-1,607,600,569,-1,568,608,604,-1,605,568,604,-1,595,580,575,-1,591,593,576,-1,580,591,576,-1,590,591,580,-1,577,593,587,-1,577,576,593,-1,587,582,577,-1,580,594,590,-1,587,584,582,-1,572,566,609,-1,594,580,595,-1,595,575,598,-1,575,569,598,-1,598,569,600,-1,608,572,609,-1,568,572,608,-1,609,566,561,-1,561,566,562,-1,562,566,564,-1,606,570,601,-1,565,567,560,-1,603,573,606,-1,570,606,573,-1,602,573,603,-1,602,610,573,-1,574,579,597,-1,579,581,589,-1,588,579,589,-1,578,592,581,-1,589,581,592,-1,596,579,588,-1,578,586,592,-1,585,586,583,-1,586,578,583,-1,567,571,611,-1,596,597,579,-1,597,599,574,-1,574,599,570,-1,599,601,570,-1,610,611,571,-1,573,610,571,-1,611,563,567,-1,560,567,563,-1,
        ]
    }
}
Shape{
    appearance Appearance {
        material  Material {
            diffuseColor 1.0 1.0 1.0
            specularColor 0.7529411764705882 0.7529411764705882 0.7529411764705882
            ambientIntensity 1.0
            transparency 1.0
            shininess 0.5
        }
    }
    geometry IndexedFaceSet {
        ccw TRUE
        solid FALSE
        coord DEF co Coordinate {
            point [
                1.5965 0.5382 0.5013, 1.6004 0.5382 0.5086, 1.6004 0.5382 0.5013, 1.5965 0.5382 0.5086, 1.5965 0.5127 0.5086, 1.6004 0.5127 0.5086, 1.6004 0.5127 0.5653, 1.5965 0.5127 0.5653, 1.5965 0.5044 0.5653, 1.6004 0.5044 0.5653, 1.6004 0.5044 0.5013, 1.5965 0.5044 0.5013, 1.6004 0.5808 0.5011, 1.6004 0.571 0.5002, 1.5965 0.571 0.5002, 1.6004 0.5887 0.5039, 1.5965 0.5808 0.5011, 1.5965 0.5887 0.5039, 1.6004 0.5887 0.5119, 1.5965 0.5887 0.5119, 1.6004 0.5811 0.5087, 1.6004 0.5722 0.5076, 1.5965 0.5811 0.5087, 1.5965 0.5722 0.5076, 1.6004 0.563 0.5093, 1.6004 0.5557 0.5143, 1.5965 0.563 0.5093, 1.5965 0.5557 0.5143, 1.6004 0.551 0.5223, 1.6004 0.5495 0.5326, 1.5965 0.551 0.5223, 1.5965 0.5495 0.5326, 1.6004 0.5511 0.5435, 1.6004 0.5562 0.5519, 1.5965 0.5511 0.5435, 1.5965 0.5562 0.5519, 1.6004 0.5639 0.5572, 1.6004 0.5736 0.559, 1.5965 0.5639 0.5572, 1.5965 0.5736 0.559, 1.6004 0.5815 0.558, 1.6004 0.5887 0.5552, 1.5965 0.5815 0.558, 1.5965 0.5887 0.5552, 1.6004 0.5887 0.5638, 1.5965 0.5887 0.5638, 1.6004 0.582 0.5658, 1.6004 0.5736 0.5664, 1.5965 0.582 0.5658, 1.5965 0.5736 0.5664, 1.6004 0.5605 0.5641, 1.6004 0.55 0.557, 1.5965 0.5605 0.5641, 1.5965 0.55 0.557, 1.6004 0.5431 0.5461, 1.6004 0.5408 0.5321, 1.5965 0.5431 0.5461, 1.5965 0.5408 0.5321, 1.6004 0.5428 0.5191, 1.6004 0.549 0.509, 1.5965 0.5428 0.5191, 1.5965 0.549 0.509, 1.6004 0.5586 0.5024, 1.5965 0.5586 0.5024, 1.5965 0.636 0.5013, 1.6004 0.636 0.5086, 1.6004 0.636 0.5013, 1.5965 0.636 0.5086, 1.5965 0.6098 0.5086, 1.6004 0.6098 0.5086, 1.6004 0.6098 0.5301, 1.5965 0.6098 0.5301, 1.6004 0.6327 0.5301, 1.5965 0.6327 0.5301, 1.6004 0.6327 0.5375, 1.5965 0.6327 0.5375, 1.5965 0.6098 0.5375, 1.6004 0.6098 0.5375, 1.6004 0.6098 0.558, 1.5965 0.6098 0.558, 1.5965 0.6346 0.558, 1.6004 0.6346 0.558, 1.6004 0.6346 0.5653, 1.5965 0.6346 0.5653, 1.5965 0.6016 0.5653, 1.6004 0.6016 0.5653, 1.6004 0.6016 0.5013, 1.5965 0.6016 0.5013, 1.6004 0.6898 0.5444, 1.6004 0.6916 0.5339, 1.6004 0.6979 0.5469, 1.6004 0.6845 0.552, 1.6004 0.6906 0.5569, 1.6004 0.6797 0.5632, 1.6004 0.6664 0.5653, 1.6004 0.6764 0.5565, 1.6004 0.7003 0.5341, 1.6004 0.6979 0.5207, 1.6004 0.6564 0.558, 1.6004 0.6661 0.558, 1.6004 0.6481 0.5653, 1.6004 0.6481 0.5013, 1.6004 0.6564 0.5086, 1.6004 0.6657 0.5013, 1.6004 0.6657 0.5086, 1.6004 0.6899 0.5233, 1.6004 0.6906 0.5103, 1.6004 0.6766 0.5103, 1.6004 0.6796 0.5035, 1.6004 0.6847 0.5153, 1.5965 0.6979 0.5469, 1.5965 0.6916 0.5339, 1.5965 0.6898 0.5444, 1.5965 0.6906 0.5569, 1.5965 0.6845 0.552, 1.5965 0.6764 0.5565, 1.5965 0.6661 0.558, 1.5965 0.6664 0.5653, 1.5965 0.6564 0.558, 1.5965 0.6481 0.5013, 1.5965 0.6481 0.5653, 1.5965 0.6899 0.5233, 1.5965 0.6979 0.5207, 1.5965 0.6906 0.5103, 1.5965 0.6564 0.5086, 1.5965 0.6657 0.5013, 1.5965 0.6657 0.5086, 1.5965 0.6766 0.5103, 1.5965 0.6797 0.5632, 1.5965 0.6796 0.5035, 1.5965 0.7003 0.5341, 1.5965 0.6847 0.5153, 1.6004 0.7432 0.526, 1.6004 0.7615 0.5013, 1.6004 0.7371 0.5653, 1.6004 0.7038 0.5013, 1.6004 0.7217 0.526, 1.6004 0.7282 0.5653, 1.6004 0.7324 0.5572, 1.6004 0.7319 0.5546, 1.6004 0.7458 0.5188, 1.6004 0.7523 0.5013, 1.6004 0.7191 0.5188, 1.6004 0.713 0.5013, 1.6004 0.7326 0.5572, 1.6004 0.7331 0.5544, 1.6004 0.7336 0.5527, 1.6004 0.7313 0.5527, 1.5965 0.7615 0.5013, 1.5965 0.7523 0.5013, 1.5965 0.7458 0.5188, 1.5965 0.7038 0.5013, 1.5965 0.7191 0.5188, 1.5965 0.713 0.5013, 1.5965 0.7217 0.526, 1.5965 0.7432 0.526, 1.5965 0.7282 0.5653, 1.5965 0.7324 0.5572, 1.5965 0.7319 0.5546, 1.5965 0.7371 0.5653, 1.5965 0.7331 0.5544, 1.5965 0.7336 0.5527, 1.5965 0.7313 0.5527, 1.5965 0.7326 0.5572, 1.5965 0.5388 0.3997, 1.6004 0.5388 0.407, 1.6004 0.5388 0.3997, 1.5965 0.5388 0.407, 1.6004 0.5127 0.407, 1.5965 0.5127 0.407, 1.6004 0.5127 0.4285, 1.5965 0.5127 0.4285, 1.5965 0.5356 0.4285, 1.6004 0.5356 0.4285, 1.6004 0.5356 0.4359, 1.5965 0.5356 0.4359, 1.6004 0.5127 0.4359, 1.5965 0.5127 0.4359, 1.6004 0.5127 0.4564, 1.5965 0.5127 0.4564, 1.6004 0.5374 0.4564, 1.5965 0.5374 0.4564, 1.6004 0.5374 0.4637, 1.5965 0.5374 0.4637, 1.6004 0.5044 0.4637, 1.5965 0.5044 0.4637, 1.6004 0.5044 0.3997, 1.5965 0.5044 0.3997, 1.6004 0.551 0.4422, 1.6004 0.551 0.4344, 1.6004 0.5581 0.4386, 1.6004 0.5753 0.4288, 1.6004 0.5814 0.4388, 1.6004 0.5729 0.4372, 1.6004 0.5583 0.4454, 1.6004 0.566 0.44, 1.6004 0.5552 0.4096, 1.6004 0.5475 0.4064, 1.6004 0.5504 0.4022, 1.6004 0.5667 0.4465, 1.6004 0.5744 0.4131, 1.6004 0.5833 0.3997, 1.6004 0.5753 0.4182, 1.6004 0.5759 0.4445, 1.6004 0.557 0.4072, 1.6004 0.5551 0.3995, 1.6004 0.5597 0.4057, 1.6004 0.5617 0.4269, 1.6004 0.5503 0.4221, 1.6004 0.5568 0.4184, 1.6004 0.5718 0.4089, 1.6004 0.575 0.4067, 1.6004 0.5679 0.4061, 1.6004 0.5692 0.4006, 1.6004 0.5753 0.4067, 1.6004 0.5645 0.4212, 1.6004 0.5598 0.4201, 1.6004 0.5833 0.4291, 1.6004 0.5753 0.3997, 1.6004 0.5547 0.4126, 1.6004 0.5465 0.4119, 1.6004 0.561 0.3986, 1.6004 0.5631 0.4052, 1.6004 0.5753 0.4226, 1.6004 0.5552 0.4159, 1.5965 0.557 0.4072, 1.5965 0.5597 0.4057, 1.5965 0.5551 0.3995, 1.5965 0.566 0.44, 1.5965 0.5583 0.4454, 1.5965 0.5667 0.4465, 1.5965 0.5814 0.4388, 1.5965 0.5729 0.4372, 1.5965 0.5759 0.4445, 1.5965 0.551 0.4422, 1.5965 0.5581 0.4386, 1.5965 0.551 0.4344, 1.5965 0.5744 0.4131, 1.5965 0.5753 0.4182, 1.5965 0.5833 0.3997, 1.5965 0.5753 0.4288, 1.5965 0.5504 0.4022, 1.5965 0.561 0.3986, 1.5965 0.5718 0.4089, 1.5965 0.5692 0.4006, 1.5965 0.5679 0.4061, 1.5965 0.5631 0.4052, 1.5965 0.5753 0.4067, 1.5965 0.575 0.4067, 1.5965 0.5833 0.4291, 1.5965 0.5753 0.3997, 1.5965 0.5645 0.4212, 1.5965 0.5617 0.4269, 1.5965 0.5753 0.4226, 1.5965 0.5503 0.4221, 1.5965 0.5568 0.4184, 1.5965 0.5552 0.4096, 1.5965 0.5475 0.4064, 1.5965 0.5547 0.4126, 1.5965 0.5465 0.4119, 1.5965 0.5552 0.4159, 1.5965 0.5598 0.4201, 1.6004 0.6005 0.4062, 1.6004 0.6073 0.4051, 1.5965 0.6073 0.4051, 1.6004 0.5941 0.4096, 1.5965 0.6005 0.4062, 1.5965 0.5941 0.4096, 1.6004 0.5941 0.4013, 1.5965 0.5941 0.4013, 1.6004 0.5999 0.3993, 1.6004 0.6066 0.3986, 1.5965 0.5999 0.3993, 1.5965 0.6066 0.3986, 1.6004 0.614 0.3995, 1.6004 0.6199 0.4022, 1.5965 0.614 0.3995, 1.5965 0.6199 0.4022, 1.6004 0.6238 0.4065, 1.6004 0.625 0.4121, 1.5965 0.6238 0.4065, 1.5965 0.625 0.4121, 1.6004 0.6244 0.4163, 1.6004 0.6224 0.4197, 1.5965 0.6244 0.4163, 1.5965 0.6224 0.4197, 1.6004 0.6184 0.4227, 1.6004 0.612 0.4256, 1.5965 0.6184 0.4227, 1.5965 0.612 0.4256, 1.6004 0.607 0.4278, 1.6004 0.6042 0.4295, 1.5965 0.607 0.4278, 1.5965 0.6042 0.4295, 1.6004 0.6029 0.4314, 1.6004 0.6025 0.4338, 1.5965 0.6029 0.4314, 1.5965 0.6025 0.4338, 1.6004 0.6031 0.4363, 1.6004 0.6049 0.4383, 1.5965 0.6031 0.4363, 1.5965 0.6049 0.4383, 1.6004 0.6077 0.4395, 1.6004 0.6112 0.44, 1.5965 0.6077 0.4395, 1.5965 0.6112 0.44, 1.6004 0.6174 0.4391, 1.6004 0.6229 0.4366, 1.5965 0.6174 0.4391, 1.5965 0.6229 0.4366, 1.6004 0.6229 0.4444, 1.5965 0.6229 0.4444, 1.6004 0.6176 0.446, 1.6004 0.612 0.4465, 1.5965 0.6176 0.446, 1.5965 0.612 0.4465, 1.6004 0.6051 0.4456, 1.6004 0.5993 0.4428, 1.5965 0.6051 0.4456, 1.5965 0.5993 0.4428, 1.6004 0.5955 0.4386, 1.6004 0.5942 0.4331, 1.5965 0.5955 0.4386, 1.5965 0.5942 0.4331, 1.6004 0.5948 0.4292, 1.6004 0.5965 0.4258, 1.5965 0.5948 0.4292, 1.5965 0.5965 0.4258, 1.6004 0.6001 0.4228, 1.6004 0.6063 0.4198, 1.5965 0.6001 0.4228, 1.5965 0.6063 0.4198, 1.6004 0.6116 0.4176, 1.6004 0.6147 0.4157, 1.5965 0.6116 0.4176, 1.5965 0.6147 0.4157, 1.6004 0.6163 0.4137, 1.6004 0.6168 0.4113, 1.5965 0.6163 0.4137, 1.5965 0.6168 0.4113, 1.6004 0.6153 0.4074, 1.5965 0.6116 0.4055, 1.6004 0.6116 0.4055, 1.5965 0.6153 0.4074, 1.6004 0.6731 0.4454, 1.5965 0.6648 0.4454, 1.6004 0.6648 0.4454, 1.5965 0.6731 0.4454, 1.6004 0.6523 0.411, 1.5965 0.6523 0.411, 1.6004 0.6517 0.4088, 1.6004 0.6513 0.4073, 1.5965 0.6517 0.4088, 1.5965 0.6513 0.4073, 1.6004 0.6511 0.4073, 1.5965 0.6511 0.4073, 1.6004 0.6501 0.411, 1.5965 0.6501 0.411, 1.6004 0.6382 0.4454, 1.5965 0.6382 0.4454, 1.6004 0.6292 0.4454, 1.5965 0.6292 0.4454, 1.6004 0.6472 0.3998, 1.5965 0.6472 0.3998, 1.6004 0.6436 0.3915, 1.5965 0.6436 0.3915, 1.6004 0.6402 0.3866, 1.6004 0.6354 0.385, 1.5965 0.6402 0.3866, 1.5965 0.6354 0.385, 1.6004 0.6332 0.3852, 1.6004 0.6309 0.3859, 1.5965 0.6332 0.3852, 1.5965 0.6309 0.3859, 1.6004 0.6309 0.3788, 1.5965 0.6309 0.3788, 1.6004 0.6332 0.3783, 1.6004 0.636 0.3781, 1.5965 0.6332 0.3783, 1.5965 0.636 0.3781, 1.6004 0.6454 0.3818, 1.6004 0.6524 0.3928, 1.5965 0.6454 0.3818, 1.5965 0.6524 0.3928, 1.5965 0.7162 0.3997, 1.6004 0.7162 0.407, 1.6004 0.7162 0.3997, 1.5965 0.7162 0.407, 1.5965 0.6901 0.407, 1.6004 0.6901 0.407, 1.6004 0.6901 0.4285, 1.5965 0.6901 0.4285, 1.5965 0.713 0.4285, 1.6004 0.713 0.4285, 1.6004 0.713 0.4359, 1.5965 0.713 0.4359, 1.6004 0.6901 0.4359, 1.5965 0.6901 0.4359, 1.6004 0.6901 0.4564, 1.5965 0.6901 0.4564, 1.6004 0.7148 0.4564, 1.5965 0.7148 0.4564, 1.6004 0.7148 0.4637, 1.5965 0.7148 0.4637, 1.6004 0.6818 0.4637, 1.5965 0.6818 0.4637, 1.6004 0.6818 0.3997, 1.5965 0.6818 0.3997, 1.6004 0.77 0.4428, 1.6004 0.7718 0.4323, 1.6004 0.7781 0.4453, 1.6004 0.7648 0.4503, 1.6004 0.7708 0.4552, 1.6004 0.7599 0.4616, 1.6004 0.7466 0.4637, 1.6004 0.7566 0.4549, 1.6004 0.7805 0.4325, 1.6004 0.7781 0.4191, 1.6004 0.7366 0.4564, 1.6004 0.7463 0.4564, 1.6004 0.7283 0.4637, 1.6004 0.7283 0.3997, 1.6004 0.7366 0.407, 1.6004 0.746 0.3997, 1.6004 0.7459 0.407, 1.6004 0.7701 0.4216, 1.6004 0.7708 0.4086, 1.6004 0.7568 0.4086, 1.6004 0.7598 0.4019, 1.6004 0.7649 0.4137, 1.5965 0.7781 0.4453, 1.5965 0.7718 0.4323, 1.5965 0.77 0.4428, 1.5965 0.7708 0.4552, 1.5965 0.7648 0.4503, 1.5965 0.7566 0.4549, 1.5965 0.7463 0.4564, 1.5965 0.7466 0.4637, 1.5965 0.7366 0.4564, 1.5965 0.7283 0.3997, 1.5965 0.7283 0.4637, 1.5965 0.7701 0.4216, 1.5965 0.7781 0.4191, 1.5965 0.7708 0.4086, 1.5965 0.7366 0.407, 1.5965 0.746 0.3997, 1.5965 0.7459 0.407, 1.5965 0.7568 0.4086, 1.5965 0.7599 0.4616, 1.5965 0.7598 0.4019, 1.5965 0.7805 0.4325, 1.5965 0.7649 0.4137, 1.6004 0.8234 0.4244, 1.6004 0.8417 0.3997, 1.6004 0.8173 0.4637, 1.6004 0.784 0.3997, 1.6004 0.802 0.4244, 1.6004 0.8084 0.4637, 1.6004 0.8126 0.4555, 1.6004 0.8121 0.453, 1.6004 0.826 0.4172, 1.6004 0.8325 0.3997, 1.6004 0.7993 0.4172, 1.6004 0.7932 0.3997, 1.6004 0.8128 0.4555, 1.6004 0.8133 0.4528, 1.6004 0.8138 0.4511, 1.6004 0.8115 0.4511, 1.5965 0.8417 0.3997, 1.5965 0.8325 0.3997, 1.5965 0.826 0.4172, 1.5965 0.784 0.3997, 1.5965 0.7993 0.4172, 1.5965 0.7932 0.3997, 1.5965 0.802 0.4244, 1.5965 0.8234 0.4244, 1.5965 0.8084 0.4637, 1.5965 0.8126 0.4555, 1.5965 0.8121 0.453, 1.5965 0.8173 0.4637, 1.5965 0.8133 0.4528, 1.5965 0.8138 0.4511, 1.5965 0.8115 0.4511, 1.5965 0.8128 0.4555, 1.6004 0.3677 0.4277, 1.6004 0.3577 0.4235, 1.6004 0.3704 0.4272, 1.6004 0.4068 0.5229, 1.6004 0.3882 0.4983, 1.6004 0.4061 0.4934, 1.6004 0.3574 0.4039, 1.6004 0.3668 0.3995, 1.6004 0.3536 0.4136, 1.6004 0.2689 0.5291, 1.6004 0.2483 0.5164, 1.6004 0.2597 0.5115, 1.6004 0.3936 0.3995, 1.6004 0.2943 0.4454, 1.6004 0.3695 0.4532, 1.6004 0.3554 0.4773, 1.6004 0.3909 0.4272, 1.6004 0.2793 0.4568, 1.6004 0.2701 0.4289, 1.6004 0.4193 0.4456, 1.6004 0.4077 0.4329, 1.6004 0.4351 0.4199, 1.6004 0.4476 0.44, 1.6004 0.4237 0.4628, 1.6004 0.4162 0.4058, 1.6004 0.4519 0.4632, 1.6004 0.3822 0.5589, 1.6004 0.3636 0.5717, 1.6004 0.344 0.5508, 1.6004 0.4483 0.4829, 1.6004 0.4188 0.4807, 1.6004 0.3776 0.5206, 1.6004 0.3845 0.4983, 1.6004 0.3203 0.5825, 1.6004 0.2914 0.5779, 1.6004 0.3208 0.5552, 1.6004 0.3426 0.5797, 1.6004 0.3636 0.5387, 1.6004 0.3003 0.552, 1.6004 0.2179 0.5147, 1.6004 0.1828 0.5238, 1.6004 0.2034 0.5049, 1.6004 0.2456 0.5447, 1.6004 0.2356 0.5183, 1.6004 0.2404 0.5454, 1.6004 0.2351 0.5456, 1.6004 0.1614 0.4719, 1.6004 0.1936 0.4552, 1.6004 0.1901 0.4728, 1.6004 0.216 0.5431, 1.6004 0.1983 0.5357, 1.6004 0.1711 0.5086, 1.6004 0.1936 0.4905, 1.6004 0.1639 0.491, 1.6004 0.1805 0.4222, 1.6004 0.2032 0.4408, 1.6004 0.1663 0.4453, 1.6004 0.2174 0.4309, 1.6004 0.2493 0.4289, 1.6004 0.227 0.4464, 1.6004 0.2418 0.457, 1.6004 0.2597 0.4322, 1.6004 0.2597 0.3967, 1.6004 0.2602 0.3694, 1.6004 0.2779 0.373, 1.6004 0.2429 0.4202, 1.6004 0.2169 0.4004, 1.6004 0.2766 0.4202, 1.6004 0.3057 0.4195, 1.6004 0.2602 0.4609, 1.6004 0.2766 0.409, 1.6004 0.3057 0.4149, 1.6004 0.3021 0.3973, 1.6004 0.2263 0.3842, 1.6004 0.2414 0.3734, 1.6004 0.2493 0.4001, 1.6004 0.1972 0.4086, 1.6004 0.2703 0.4002, 1.6004 0.2827 0.5429, 1.6004 0.2657 0.5648, 1.6004 0.255 0.5556, 1.6004 0.3968 0.5422, 1.6004 0.4389 0.5002, 1.6004 0.4248 0.5139, 1.6004 0.2924 0.3828, 1.6004 0.2429 0.4088, 1.5965 0.3704 0.4272, 1.5965 0.3936 0.3995, 1.5965 0.3668 0.3995, 1.5965 0.3636 0.5387, 1.5965 0.344 0.5508, 1.5965 0.3822 0.5589, 1.5965 0.3636 0.5717, 1.5965 0.4237 0.4628, 1.5965 0.4476 0.44, 1.5965 0.4193 0.4456, 1.5965 0.3577 0.4235, 1.5965 0.3677 0.4277, 1.5965 0.3574 0.4039, 1.5965 0.3536 0.4136, 1.5965 0.3909 0.4272, 1.5965 0.2689 0.5291, 1.5965 0.2597 0.5115, 1.5965 0.2483 0.5164, 1.5965 0.3208 0.5552, 1.5965 0.3203 0.5825, 1.5965 0.3426 0.5797, 1.5965 0.4061 0.4934, 1.5965 0.4389 0.5002, 1.5965 0.4188 0.4807, 1.5965 0.4483 0.4829, 1.5965 0.4519 0.4632, 1.5965 0.2793 0.4568, 1.5965 0.2943 0.4454, 1.5965 0.2701 0.4289, 1.5965 0.4351 0.4199, 1.5965 0.4077 0.4329, 1.5965 0.4068 0.5229, 1.5965 0.4248 0.5139, 1.5965 0.4162 0.4058, 1.5965 0.3695 0.4532, 1.5965 0.3554 0.4773, 1.5965 0.3882 0.4983, 1.5965 0.3845 0.4983, 1.5965 0.3776 0.5206, 1.5965 0.3968 0.5422, 1.5965 0.2914 0.5779, 1.5965 0.2179 0.5147, 1.5965 0.2034 0.5049, 1.5965 0.1828 0.5238, 1.5965 0.2456 0.5447, 1.5965 0.2356 0.5183, 1.5965 0.2351 0.5456, 1.5965 0.2404 0.5454, 1.5965 0.1614 0.4719, 1.5965 0.1901 0.4728, 1.5965 0.1936 0.4552, 1.5965 0.216 0.5431, 1.5965 0.1983 0.5357, 1.5965 0.1711 0.5086, 1.5965 0.1639 0.491, 1.5965 0.1936 0.4905, 1.5965 0.1805 0.4222, 1.5965 0.1663 0.4453, 1.5965 0.2032 0.4408, 1.5965 0.2174 0.4309, 1.5965 0.227 0.4464, 1.5965 0.2493 0.4289, 1.5965 0.2418 0.457, 1.5965 0.2597 0.4322, 1.5965 0.2597 0.3967, 1.5965 0.2779 0.373, 1.5965 0.2602 0.3694, 1.5965 0.2429 0.4202, 1.5965 0.2169 0.4004, 1.5965 0.2766 0.4202, 1.5965 0.3057 0.4195, 1.5965 0.2602 0.4609, 1.5965 0.2766 0.409, 1.5965 0.3057 0.4149, 1.5965 0.3021 0.3973, 1.5965 0.2263 0.3842, 1.5965 0.2493 0.4001, 1.5965 0.2414 0.3734, 1.5965 0.1972 0.4086, 1.5965 0.2703 0.4002, 1.5965 0.2827 0.5429, 1.5965 0.2657 0.5648, 1.5965 0.3003 0.552, 1.5965 0.255 0.5556, 1.5965 0.2924 0.3828, 1.5965 0.2429 0.4088
            ]
        }
        coordIndex [
            0,1,2,-1,0,3,1,-1,1,4,5,-1,1,3,4,-1,4,6,5,-1,4,7,6,-1,6,8,9,-1,6,7,8,-1,8,10,9,-1,8,11,10,-1,11,2,10,-1,11,0,2,-1,5,6,9,-1,2,5,10,-1,9,10,5,-1,5,2,1,-1,0,11,4,-1,8,7,4,-1,0,4,3,-1,8,4,11,-1,12,13,14,-1,15,16,17,-1,16,12,14,-1,15,12,16,-1,17,18,15,-1,17,19,18,-1,20,18,19,-1,21,22,23,-1,22,20,19,-1,21,20,22,-1,24,21,23,-1,25,26,27,-1,26,24,23,-1,25,24,26,-1,28,25,27,-1,29,30,31,-1,30,28,27,-1,29,28,30,-1,32,29,31,-1,33,34,35,-1,34,32,31,-1,33,32,34,-1,36,33,35,-1,37,38,39,-1,38,36,35,-1,37,36,38,-1,40,37,39,-1,41,42,43,-1,42,40,39,-1,41,40,42,-1,43,44,41,-1,43,45,44,-1,46,44,45,-1,47,48,49,-1,48,46,45,-1,47,46,48,-1,50,47,49,-1,51,52,53,-1,52,50,49,-1,51,50,52,-1,54,51,53,-1,55,56,57,-1,56,54,53,-1,55,54,56,-1,58,55,57,-1,59,60,61,-1,60,58,57,-1,59,58,60,-1,62,59,61,-1,13,63,14,-1,63,62,61,-1,13,62,63,-1,13,21,24,-1,15,18,20,-1,12,15,20,-1,20,21,12,-1,59,62,25,-1,12,21,13,-1,59,25,28,-1,29,54,55,-1,29,58,28,-1,51,54,32,-1,51,33,50,-1,51,32,33,-1,40,44,46,-1,36,47,50,-1,40,46,37,-1,41,44,40,-1,46,47,37,-1,36,50,33,-1,37,47,36,-1,29,32,54,-1,58,59,28,-1,55,58,29,-1,13,24,62,-1,24,25,62,-1,17,22,19,-1,22,16,23,-1,14,23,16,-1,63,27,26,-1,26,14,63,-1,30,27,61,-1,31,57,56,-1,31,30,60,-1,53,34,56,-1,53,52,35,-1,53,35,34,-1,42,48,45,-1,38,52,49,-1,42,39,48,-1,43,42,45,-1,48,39,49,-1,38,35,52,-1,39,38,49,-1,31,56,34,-1,60,30,61,-1,57,31,60,-1,14,26,23,-1,61,27,63,-1,22,17,16,-1,64,65,66,-1,64,67,65,-1,65,68,69,-1,65,67,68,-1,68,70,69,-1,68,71,70,-1,71,72,70,-1,71,73,72,-1,73,74,72,-1,73,75,74,-1,74,76,77,-1,74,75,76,-1,76,78,77,-1,76,79,78,-1,80,81,78,-1,78,79,80,-1,80,82,81,-1,80,83,82,-1,82,84,85,-1,82,83,84,-1,84,86,85,-1,84,87,86,-1,87,66,86,-1,87,64,66,-1,78,81,82,-1,82,85,78,-1,85,77,78,-1,70,72,77,-1,77,85,70,-1,77,72,74,-1,85,86,70,-1,66,69,86,-1,86,69,70,-1,66,65,69,-1,84,83,79,-1,83,80,79,-1,84,79,76,-1,71,76,73,-1,76,71,84,-1,76,75,73,-1,68,67,64,-1,84,71,87,-1,64,87,68,-1,87,71,68,-1,88,89,90,-1,91,92,93,-1,94,95,93,-1,91,93,95,-1,96,89,97,-1,94,98,99,-1,95,94,99,-1,94,100,98,-1,100,101,98,-1,102,103,104,-1,105,106,97,-1,107,103,108,-1,91,88,92,-1,92,88,90,-1,90,89,96,-1,97,89,105,-1,106,105,109,-1,108,109,107,-1,106,109,108,-1,103,107,104,-1,98,101,102,-1,103,102,101,-1,110,111,112,-1,112,113,110,-1,113,112,114,-1,115,116,117,-1,118,119,120,-1,121,122,123,-1,124,119,118,-1,125,126,127,-1,113,114,128,-1,125,127,129,-1,110,130,111,-1,122,121,111,-1,130,122,111,-1,123,131,121,-1,129,127,131,-1,123,129,131,-1,126,125,124,-1,125,119,124,-1,117,118,120,-1,117,128,115,-1,117,116,118,-1,114,115,128,-1,119,103,101,-1,119,125,103,-1,108,103,125,-1,106,129,123,-1,129,108,125,-1,106,108,129,-1,97,106,123,-1,96,122,130,-1,122,97,123,-1,96,97,122,-1,90,96,130,-1,92,110,113,-1,110,90,130,-1,92,90,110,-1,93,92,113,-1,94,128,117,-1,128,93,113,-1,94,93,128,-1,94,120,100,-1,94,117,120,-1,120,101,100,-1,120,119,101,-1,98,116,99,-1,116,98,118,-1,102,118,98,-1,118,102,124,-1,104,124,102,-1,124,104,126,-1,126,107,127,-1,104,107,126,-1,109,127,107,-1,127,109,131,-1,131,105,121,-1,109,105,131,-1,89,121,105,-1,121,89,111,-1,111,88,112,-1,89,88,111,-1,91,112,88,-1,112,91,114,-1,114,95,115,-1,91,95,114,-1,99,115,95,-1,115,99,116,-1,132,133,134,-1,135,136,137,-1,138,137,139,-1,133,140,141,-1,142,135,143,-1,133,132,140,-1,142,136,135,-1,137,144,134,-1,134,145,146,-1,134,144,145,-1,138,144,137,-1,137,147,139,-1,147,137,136,-1,140,136,142,-1,136,140,132,-1,146,132,134,-1,148,149,150,-1,151,152,153,-1,152,151,154,-1,150,155,148,-1,156,154,151,-1,156,157,158,-1,150,152,154,-1,148,155,159,-1,150,154,155,-1,160,159,161,-1,159,155,161,-1,162,154,156,-1,156,159,163,-1,159,160,163,-1,156,163,157,-1,158,162,156,-1,148,134,133,-1,148,159,134,-1,134,156,137,-1,134,159,156,-1,156,135,137,-1,156,151,135,-1,153,143,135,-1,135,151,153,-1,153,142,143,-1,153,152,142,-1,152,140,142,-1,152,150,140,-1,150,141,140,-1,150,149,141,-1,149,133,141,-1,149,148,133,-1,155,136,132,-1,136,155,154,-1,146,155,132,-1,155,146,161,-1,161,145,160,-1,146,145,161,-1,144,160,145,-1,160,144,163,-1,138,163,144,-1,163,138,157,-1,157,139,158,-1,138,139,157,-1,147,158,139,-1,158,147,162,-1,136,162,147,-1,162,136,154,-1,164,165,166,-1,164,167,165,-1,167,168,165,-1,167,169,168,-1,169,170,168,-1,169,171,170,-1,172,173,170,-1,170,171,172,-1,172,174,173,-1,172,175,174,-1,175,176,174,-1,175,177,176,-1,177,178,176,-1,177,179,178,-1,179,180,178,-1,179,181,180,-1,181,182,180,-1,181,183,182,-1,183,184,182,-1,183,185,184,-1,185,186,184,-1,185,187,186,-1,187,166,186,-1,187,164,166,-1,178,180,182,-1,182,184,178,-1,184,176,178,-1,170,173,176,-1,176,184,170,-1,176,173,174,-1,184,186,170,-1,166,168,186,-1,186,168,170,-1,166,165,168,-1,185,183,179,-1,183,181,179,-1,185,179,177,-1,171,177,172,-1,177,171,185,-1,177,175,172,-1,169,167,164,-1,185,171,187,-1,164,187,169,-1,187,171,169,-1,188,189,190,-1,191,192,193,-1,188,190,194,-1,190,195,194,-1,196,197,198,-1,199,195,193,-1,194,195,199,-1,200,201,202,-1,192,203,193,-1,204,198,205,-1,206,204,205,-1,207,208,209,-1,200,210,211,-1,212,213,210,-1,214,201,200,-1,215,207,216,-1,217,202,201,-1,214,218,201,-1,191,217,192,-1,193,203,199,-1,197,219,220,-1,206,221,222,-1,207,215,191,-1,207,209,216,-1,213,212,222,-1,211,214,200,-1,215,223,191,-1,217,191,223,-1,217,223,202,-1,211,210,213,-1,221,206,205,-1,213,222,221,-1,196,219,197,-1,204,196,198,-1,219,224,220,-1,209,208,224,-1,220,224,208,-1,225,226,227,-1,228,229,230,-1,231,232,233,-1,234,235,236,-1,230,233,232,-1,237,238,239,-1,231,240,232,-1,227,241,225,-1,242,227,226,-1,243,244,245,-1,242,246,244,-1,247,248,237,-1,247,237,239,-1,249,239,238,-1,247,239,250,-1,240,231,249,-1,230,232,228,-1,234,229,235,-1,235,229,228,-1,251,252,240,-1,249,253,240,-1,253,251,240,-1,249,238,253,-1,248,243,237,-1,245,244,246,-1,248,244,243,-1,246,242,226,-1,254,252,255,-1,256,225,241,-1,257,258,256,-1,256,241,257,-1,257,259,258,-1,258,259,260,-1,254,255,260,-1,259,254,260,-1,252,261,255,-1,252,251,261,-1,194,199,230,-1,188,229,234,-1,229,194,230,-1,188,194,229,-1,234,189,188,-1,234,236,189,-1,190,189,236,-1,195,235,228,-1,235,190,236,-1,195,190,235,-1,193,195,228,-1,191,232,240,-1,232,193,228,-1,191,193,232,-1,240,207,191,-1,240,252,207,-1,208,207,252,-1,220,254,259,-1,254,208,252,-1,220,208,254,-1,197,220,259,-1,198,257,241,-1,257,197,259,-1,198,197,257,-1,205,198,241,-1,221,227,242,-1,227,205,241,-1,221,205,227,-1,213,221,242,-1,211,244,248,-1,244,213,242,-1,211,213,244,-1,248,214,211,-1,248,247,214,-1,247,218,214,-1,247,250,218,-1,239,201,218,-1,218,250,239,-1,239,217,201,-1,239,249,217,-1,192,217,249,-1,199,233,230,-1,203,231,233,-1,192,231,203,-1,199,203,233,-1,249,231,192,-1,251,216,261,-1,215,216,251,-1,209,261,216,-1,261,209,255,-1,255,224,260,-1,209,224,255,-1,219,260,224,-1,260,219,258,-1,258,196,256,-1,219,196,258,-1,204,256,196,-1,256,204,225,-1,225,206,226,-1,204,206,225,-1,222,226,206,-1,226,222,246,-1,246,212,245,-1,222,212,246,-1,210,245,212,-1,245,210,243,-1,243,200,237,-1,210,200,243,-1,202,237,200,-1,237,202,238,-1,223,238,202,-1,238,223,253,-1,215,253,223,-1,253,215,251,-1,262,263,264,-1,265,266,267,-1,266,262,264,-1,265,262,266,-1,267,268,265,-1,267,269,268,-1,270,268,269,-1,271,272,273,-1,272,270,269,-1,271,270,272,-1,274,271,273,-1,275,276,277,-1,276,274,273,-1,275,274,276,-1,278,275,277,-1,279,280,281,-1,280,278,277,-1,279,278,280,-1,282,279,281,-1,283,284,285,-1,284,282,281,-1,283,282,284,-1,286,283,285,-1,287,288,289,-1,288,286,285,-1,287,286,288,-1,290,287,289,-1,291,292,293,-1,292,290,289,-1,291,290,292,-1,294,291,293,-1,295,296,297,-1,296,294,293,-1,295,294,296,-1,298,295,297,-1,299,300,301,-1,300,298,297,-1,299,298,300,-1,302,299,301,-1,303,304,305,-1,304,302,301,-1,303,302,304,-1,306,303,305,-1,307,308,309,-1,308,306,305,-1,307,306,308,-1,309,310,307,-1,309,311,310,-1,312,310,311,-1,313,314,315,-1,314,312,311,-1,313,312,314,-1,316,313,315,-1,317,318,319,-1,318,316,315,-1,317,316,318,-1,320,317,319,-1,321,322,323,-1,322,320,319,-1,321,320,322,-1,324,321,323,-1,325,326,327,-1,326,324,323,-1,325,324,326,-1,328,325,327,-1,329,330,331,-1,330,328,327,-1,329,328,330,-1,332,329,331,-1,333,334,335,-1,334,332,331,-1,333,332,334,-1,336,333,335,-1,337,338,339,-1,338,336,335,-1,337,336,338,-1,340,337,339,-1,263,341,264,-1,263,342,341,-1,340,343,342,-1,341,342,343,-1,339,343,340,-1,295,320,321,-1,278,337,275,-1,275,340,274,-1,298,317,295,-1,282,283,337,-1,279,282,337,-1,313,302,303,-1,307,310,306,-1,262,268,270,-1,295,317,320,-1,299,302,316,-1,298,299,317,-1,262,270,271,-1,265,268,262,-1,287,290,329,-1,313,303,306,-1,313,306,312,-1,306,310,312,-1,333,287,332,-1,286,287,333,-1,283,286,336,-1,329,290,291,-1,294,325,328,-1,316,317,299,-1,313,316,302,-1,295,321,324,-1,325,294,295,-1,324,325,295,-1,328,291,294,-1,328,329,291,-1,329,332,287,-1,336,286,333,-1,283,336,337,-1,278,279,337,-1,337,340,275,-1,342,271,274,-1,274,340,342,-1,342,263,271,-1,271,263,262,-1,318,304,301,-1,339,280,277,-1,297,319,300,-1,266,273,272,-1,277,276,343,-1,276,273,341,-1,284,339,285,-1,281,339,284,-1,315,305,304,-1,309,308,311,-1,322,297,323,-1,297,322,319,-1,300,319,301,-1,289,331,292,-1,315,308,305,-1,315,314,308,-1,308,314,311,-1,335,334,289,-1,288,335,289,-1,285,338,288,-1,331,293,292,-1,296,330,327,-1,318,301,319,-1,315,304,318,-1,297,326,323,-1,327,297,296,-1,326,297,327,-1,330,296,293,-1,330,293,331,-1,331,289,334,-1,338,335,288,-1,285,339,338,-1,280,339,281,-1,339,277,343,-1,273,264,341,-1,276,341,343,-1,272,269,266,-1,264,273,266,-1,266,269,267,-1,344,345,346,-1,344,347,345,-1,345,348,346,-1,345,349,348,-1,350,348,349,-1,351,352,353,-1,352,350,349,-1,351,350,352,-1,353,354,351,-1,353,355,354,-1,355,356,354,-1,355,357,356,-1,357,358,356,-1,357,359,358,-1,359,360,358,-1,359,361,360,-1,361,362,360,-1,361,363,362,-1,363,364,362,-1,363,365,364,-1,366,364,365,-1,367,368,369,-1,368,366,365,-1,367,366,368,-1,370,367,369,-1,371,372,373,-1,372,370,369,-1,371,370,372,-1,373,374,371,-1,373,375,374,-1,376,374,375,-1,377,378,379,-1,378,376,375,-1,377,376,378,-1,380,377,379,-1,381,382,383,-1,382,380,379,-1,381,380,382,-1,383,344,381,-1,383,347,344,-1,350,351,381,-1,356,358,360,-1,348,350,381,-1,344,346,348,-1,360,362,356,-1,364,381,362,-1,380,381,364,-1,351,354,362,-1,356,362,354,-1,380,366,377,-1,351,362,381,-1,377,367,376,-1,376,367,370,-1,374,370,371,-1,377,366,367,-1,370,374,376,-1,366,380,364,-1,381,344,348,-1,357,361,359,-1,383,352,349,-1,352,383,353,-1,361,357,363,-1,365,383,382,-1,383,363,353,-1,353,363,355,-1,357,355,363,-1,382,379,368,-1,363,383,365,-1,379,378,369,-1,378,372,369,-1,375,373,372,-1,379,369,368,-1,372,378,375,-1,368,365,382,-1,347,383,349,-1,349,345,347,-1,384,385,386,-1,384,387,385,-1,385,388,389,-1,385,387,388,-1,388,390,389,-1,388,391,390,-1,392,393,390,-1,390,391,392,-1,392,394,393,-1,392,395,394,-1,395,396,394,-1,395,397,396,-1,397,398,396,-1,397,399,398,-1,399,400,398,-1,399,401,400,-1,401,402,400,-1,401,403,402,-1,403,404,402,-1,403,405,404,-1,405,406,404,-1,405,407,406,-1,384,386,406,-1,406,407,384,-1,398,400,402,-1,402,404,398,-1,404,396,398,-1,390,393,396,-1,396,404,390,-1,396,393,394,-1,404,406,390,-1,386,389,406,-1,406,389,390,-1,386,385,389,-1,405,403,399,-1,403,401,399,-1,405,399,397,-1,391,397,392,-1,397,391,405,-1,397,395,392,-1,388,387,384,-1,405,391,407,-1,384,407,388,-1,407,391,388,-1,408,409,410,-1,411,412,413,-1,414,415,413,-1,411,413,415,-1,416,409,417,-1,414,418,419,-1,415,414,419,-1,414,420,418,-1,420,421,418,-1,422,423,424,-1,425,426,417,-1,427,423,428,-1,411,408,412,-1,412,408,410,-1,410,409,416,-1,417,409,425,-1,426,425,429,-1,428,429,427,-1,426,429,428,-1,423,427,424,-1,418,421,422,-1,423,422,421,-1,430,431,432,-1,432,433,430,-1,433,432,434,-1,435,436,437,-1,438,439,440,-1,441,442,443,-1,444,439,438,-1,445,446,447,-1,433,434,448,-1,445,447,449,-1,430,450,431,-1,442,441,431,-1,450,442,431,-1,443,451,441,-1,449,447,451,-1,443,449,451,-1,446,445,444,-1,445,439,444,-1,437,438,440,-1,437,448,435,-1,437,436,438,-1,434,435,448,-1,439,423,421,-1,439,445,423,-1,428,423,445,-1,426,449,443,-1,449,428,445,-1,426,428,449,-1,417,426,443,-1,416,442,450,-1,442,417,443,-1,416,417,442,-1,410,416,450,-1,412,430,433,-1,430,410,450,-1,412,410,430,-1,413,412,433,-1,414,448,437,-1,448,413,433,-1,414,413,448,-1,437,420,414,-1,437,440,420,-1,440,421,420,-1,440,439,421,-1,418,436,419,-1,436,418,438,-1,422,438,418,-1,438,422,444,-1,424,444,422,-1,444,424,446,-1,446,427,447,-1,424,427,446,-1,429,447,427,-1,447,429,451,-1,451,425,441,-1,429,425,451,-1,409,441,425,-1,441,409,431,-1,431,408,432,-1,409,408,431,-1,411,432,408,-1,432,411,434,-1,434,415,435,-1,411,415,434,-1,419,435,415,-1,435,419,436,-1,452,453,454,-1,455,456,457,-1,458,457,459,-1,453,460,461,-1,462,455,463,-1,453,452,460,-1,462,456,455,-1,457,464,454,-1,454,465,466,-1,454,464,465,-1,458,464,457,-1,457,467,459,-1,467,457,456,-1,460,456,462,-1,456,460,452,-1,466,452,454,-1,468,469,470,-1,471,472,473,-1,472,471,474,-1,470,475,468,-1,476,474,471,-1,476,477,478,-1,470,472,474,-1,468,475,479,-1,470,474,475,-1,480,479,481,-1,479,475,481,-1,482,474,476,-1,476,479,483,-1,479,480,483,-1,476,483,477,-1,478,482,476,-1,468,454,453,-1,468,479,454,-1,454,476,457,-1,454,479,476,-1,476,455,457,-1,476,471,455,-1,471,463,455,-1,471,473,463,-1,473,462,463,-1,473,472,462,-1,472,460,462,-1,472,470,460,-1,470,461,460,-1,470,469,461,-1,469,453,461,-1,469,468,453,-1,475,456,452,-1,456,475,474,-1,466,475,452,-1,475,466,481,-1,481,465,480,-1,466,465,481,-1,464,480,465,-1,480,464,483,-1,458,483,464,-1,483,458,477,-1,477,459,478,-1,458,459,477,-1,467,478,459,-1,478,467,482,-1,456,482,467,-1,482,456,474,-1,484,485,486,-1,487,488,489,-1,490,491,492,-1,492,486,485,-1,492,491,486,-1,493,494,495,-1,496,486,491,-1,497,498,499,-1,496,500,486,-1,501,502,497,-1,503,504,505,-1,503,506,507,-1,496,508,500,-1,508,505,504,-1,500,508,504,-1,505,506,503,-1,509,507,506,-1,510,511,512,-1,507,513,514,-1,488,487,515,-1,488,515,516,-1,517,518,519,-1,520,512,511,-1,521,510,512,-1,519,512,520,-1,522,519,518,-1,523,524,525,-1,494,493,526,-1,527,528,529,-1,530,531,532,-1,523,527,533,-1,524,523,534,-1,525,524,535,-1,532,536,537,-1,536,525,535,-1,538,539,540,-1,541,542,543,-1,544,542,545,-1,546,547,548,-1,549,541,550,-1,551,497,502,-1,551,552,497,-1,545,553,544,-1,554,555,551,-1,497,552,498,-1,554,556,555,-1,557,558,559,-1,547,546,558,-1,550,541,560,-1,548,561,546,-1,539,531,540,-1,538,541,539,-1,538,560,541,-1,540,531,530,-1,537,536,535,-1,530,532,537,-1,523,533,534,-1,528,527,526,-1,533,527,529,-1,527,494,526,-1,562,522,563,-1,564,562,563,-1,526,562,564,-1,562,526,493,-1,519,520,517,-1,563,522,518,-1,565,521,515,-1,510,521,565,-1,487,565,515,-1,566,489,514,-1,567,489,566,-1,487,489,567,-1,507,509,513,-1,566,514,513,-1,561,548,568,-1,569,550,559,-1,556,554,561,-1,568,556,561,-1,555,552,551,-1,502,501,545,-1,501,553,545,-1,544,543,542,-1,541,549,542,-1,550,557,559,-1,550,569,549,-1,558,546,559,-1,570,571,572,-1,573,574,575,-1,574,576,575,-1,577,578,579,-1,570,580,581,-1,582,583,572,-1,583,580,570,-1,570,572,583,-1,570,584,571,-1,585,586,587,-1,588,589,590,-1,591,592,593,-1,594,595,577,-1,596,597,598,-1,579,599,600,-1,591,601,602,-1,571,584,603,-1,603,600,599,-1,584,600,603,-1,599,579,578,-1,578,577,595,-1,594,593,592,-1,577,593,594,-1,592,591,602,-1,604,597,605,-1,606,607,608,-1,591,606,601,-1,606,608,601,-1,588,590,574,-1,608,573,609,-1,588,610,589,-1,611,612,613,-1,587,614,585,-1,615,616,617,-1,618,619,620,-1,611,621,615,-1,613,622,611,-1,612,623,613,-1,619,624,625,-1,625,623,612,-1,626,627,628,-1,629,630,631,-1,632,633,631,-1,634,635,636,-1,637,638,629,-1,639,598,597,-1,639,597,640,-1,633,632,641,-1,642,639,643,-1,597,604,640,-1,642,643,644,-1,645,646,647,-1,636,647,634,-1,638,648,629,-1,635,634,649,-1,628,627,620,-1,626,628,629,-1,626,629,648,-1,627,618,620,-1,624,623,625,-1,618,624,619,-1,611,622,621,-1,617,614,615,-1,621,616,615,-1,615,614,587,-1,650,651,652,-1,653,651,650,-1,614,653,650,-1,650,585,614,-1,588,652,610,-1,651,610,652,-1,574,590,576,-1,609,573,575,-1,609,601,608,-1,649,654,635,-1,655,646,638,-1,644,649,642,-1,654,649,644,-1,643,639,640,-1,598,633,596,-1,596,633,641,-1,632,631,630,-1,629,631,637,-1,638,646,645,-1,638,637,655,-1,647,646,634,-1,513,509,595,-1,487,567,602,-1,566,594,592,-1,601,487,602,-1,566,592,567,-1,602,567,592,-1,513,595,594,-1,566,513,594,-1,565,487,601,-1,510,609,575,-1,609,565,601,-1,510,565,609,-1,511,510,575,-1,517,590,589,-1,520,576,590,-1,511,576,520,-1,517,520,590,-1,575,576,511,-1,518,517,589,-1,563,610,651,-1,610,518,589,-1,563,518,610,-1,564,563,651,-1,526,653,614,-1,653,564,651,-1,526,564,653,-1,528,526,614,-1,529,617,616,-1,617,528,614,-1,529,528,617,-1,533,529,616,-1,524,622,613,-1,534,621,622,-1,533,621,534,-1,524,534,622,-1,616,621,533,-1,535,524,613,-1,530,624,618,-1,537,623,624,-1,535,623,537,-1,530,537,624,-1,613,623,535,-1,540,530,618,-1,538,627,626,-1,627,540,618,-1,538,540,627,-1,560,538,626,-1,550,648,638,-1,648,560,626,-1,550,560,648,-1,557,550,638,-1,547,647,636,-1,558,645,647,-1,557,645,558,-1,547,558,647,-1,638,645,557,-1,548,547,636,-1,555,556,644,-1,568,635,654,-1,643,555,644,-1,568,654,556,-1,644,556,654,-1,548,636,635,-1,568,548,635,-1,643,552,555,-1,643,640,552,-1,640,498,552,-1,640,604,498,-1,604,499,498,-1,604,605,499,-1,605,497,499,-1,605,597,497,-1,501,497,597,-1,553,596,641,-1,596,501,597,-1,553,501,596,-1,544,553,641,-1,541,630,629,-1,543,632,630,-1,544,632,543,-1,541,543,630,-1,641,632,544,-1,539,541,629,-1,532,620,619,-1,531,628,620,-1,539,628,531,-1,532,531,620,-1,629,628,539,-1,536,532,619,-1,527,523,611,-1,525,625,612,-1,615,527,611,-1,525,612,523,-1,611,523,612,-1,536,619,625,-1,525,536,625,-1,494,527,615,-1,495,587,586,-1,587,494,615,-1,495,494,587,-1,493,495,586,-1,519,522,652,-1,562,585,650,-1,588,519,652,-1,562,650,522,-1,652,522,650,-1,493,586,585,-1,562,493,585,-1,512,519,588,-1,516,515,608,-1,521,574,573,-1,607,516,608,-1,521,573,515,-1,608,515,573,-1,512,588,574,-1,521,512,574,-1,606,488,516,-1,516,607,606,-1,489,488,606,-1,507,593,577,-1,514,591,593,-1,489,591,514,-1,507,514,593,-1,606,591,489,-1,503,507,577,-1,500,600,584,-1,504,579,600,-1,503,579,504,-1,500,504,600,-1,577,579,503,-1,500,570,486,-1,500,584,570,-1,570,581,484,-1,484,486,570,-1,485,484,581,-1,492,580,583,-1,580,485,581,-1,492,485,580,-1,490,492,583,-1,491,582,572,-1,582,490,583,-1,491,490,582,-1,571,496,491,-1,491,572,571,-1,508,496,571,-1,505,603,599,-1,603,508,571,-1,505,508,603,-1,506,505,599,-1,509,578,595,-1,578,506,599,-1,509,506,578,-1,551,642,554,-1,561,554,649,-1,642,649,554,-1,634,546,561,-1,561,649,634,-1,642,551,639,-1,639,502,598,-1,502,639,551,-1,502,545,598,-1,598,545,633,-1,569,637,549,-1,542,549,631,-1,637,631,549,-1,633,545,542,-1,542,631,633,-1,637,569,655,-1,655,559,646,-1,559,655,569,-1,559,546,646,-1,646,546,634,-1,
        ]
    }
}